<?xml version="1.0" encoding="utf-8"?>
<!-- Generator: Adobe Illustrator 21.1.0, SVG Export Plug-In . SVG Version: 6.00 Build 0)  -->
<svg version="1.1" id="Layer_1" xmlns="http://www.w3.org/2000/svg" xmlns:xlink="http://www.w3.org/1999/xlink" x="0px" y="0px"
	 viewBox="0 0 50 50" style="enable-background:new 0 0 50 50;" xml:space="preserve">
<style type="text/css">
	.st0{fill:#E95F26;}
</style>
<g>
	<path class="st0" d="M35.6,20.4v-9.9c0-5.6-4.9-10.1-10.9-10.1S13.8,4.9,13.8,10.4v9.9H6V43v7h38.3v-7V20.4H35.6z M15.6,10.4
		c0-4.6,4.1-8.4,9.1-8.4s9.1,3.8,9.1,8.4v9.9H15.6V10.4z M42.6,48.3H7.7v-3.5h34.8V48.3z M7.7,43V22.1h6.1h21.8h7V43H7.7z"/>
</g>
<g>
	<path class="st0" d="M27.7,33.2c0-1.2-0.9-2.1-2.1-2.1c-1.2,0-2.1,0.9-2.1,2.1c0,1.2,0.9,2.1,2.1,2.1
		C26.7,35.3,27.7,34.4,27.7,33.2z M25.6,34.5c-0.7,0-1.3-0.6-1.3-1.3c0-0.7,0.6-1.3,1.3-1.3c0.7,0,1.3,0.6,1.3,1.3
		C26.8,33.9,26.3,34.5,25.6,34.5z"/>
	<circle class="st0" cx="22.5" cy="33.2" r="0.4"/>
	<circle class="st0" cx="21.2" cy="33.2" r="0.4"/>
	<path class="st0" d="M20.3,33.2c0-0.8-0.7-1.5-1.5-1.5c-0.8,0-1.5,0.6-1.5,1.5c0,0.8,0.7,1.5,1.5,1.5C19.6,34.7,20.3,34,20.3,33.2z
		 M18.7,33.9c-0.4,0-0.7-0.3-0.7-0.7c0-0.4,0.3-0.7,0.7-0.7c0.4,0,0.7,0.3,0.7,0.7C19.4,33.6,19.1,33.9,18.7,33.9z"/>
	<circle class="st0" cx="29.9" cy="33.2" r="0.4"/>
	<circle class="st0" cx="28.6" cy="33.2" r="0.4"/>
	<path class="st0" d="M32.4,31.7c-0.8,0-1.5,0.7-1.5,1.5c0,0.8,0.7,1.5,1.5,1.5c0.8,0,1.5-0.7,1.5-1.5
		C33.9,32.3,33.3,31.7,32.4,31.7z M32.4,33.9c-0.4,0-0.7-0.3-0.7-0.7c0-0.4,0.3-0.7,0.7-0.7c0.4,0,0.7,0.3,0.7,0.7
		C33.1,33.6,32.8,33.9,32.4,33.9z"/>
	<circle class="st0" cx="25.6" cy="36.2" r="0.4"/>
	<circle class="st0" cx="25.6" cy="37.6" r="0.4"/>
	<path class="st0" d="M25.6,38.5c-0.8,0-1.5,0.7-1.5,1.5c0,0.8,0.7,1.5,1.5,1.5c0.8,0,1.5-0.7,1.5-1.5
		C27.1,39.2,26.4,38.5,25.6,38.5z M25.6,40.7c-0.4,0-0.7-0.3-0.7-0.7c0-0.4,0.3-0.7,0.7-0.7c0.4,0,0.7,0.3,0.7,0.7
		C26.3,40.4,25.9,40.7,25.6,40.7z"/>
	<circle class="st0" cx="25.6" cy="30.1" r="0.4"/>
	<circle class="st0" cx="25.6" cy="28.8" r="0.4"/>
	<path class="st0" d="M25.6,27.9c0.8,0,1.5-0.7,1.5-1.5c0-0.8-0.7-1.5-1.5-1.5c-0.8,0-1.5,0.7-1.5,1.5
		C24.1,27.2,24.7,27.9,25.6,27.9z M25.6,25.7c0.4,0,0.7,0.3,0.7,0.7c0,0.4-0.3,0.7-0.7,0.7c-0.4,0-0.7-0.3-0.7-0.7
		C24.9,26,25.2,25.7,25.6,25.7z"/>
	<path class="st0" d="M23.1,35.1c-0.2,0.2-0.2,0.4,0,0.6c0.2,0.2,0.4,0.2,0.6,0c0.2-0.2,0.2-0.4,0-0.6
		C23.5,34.9,23.3,34.9,23.1,35.1z"/>
	<circle class="st0" cx="22.4" cy="36.3" r="0.4"/>
	<path class="st0" d="M19.7,37c-0.6,0.6-0.6,1.5,0,2.1s1.5,0.6,2.1,0c0.6-0.6,0.6-1.5,0-2.1C21.2,36.4,20.3,36.4,19.7,37z
		 M21.2,38.5c-0.3,0.3-0.7,0.3-1,0c-0.3-0.3-0.3-0.7,0-1c0.3-0.3,0.7-0.3,1,0C21.5,37.8,21.5,38.2,21.2,38.5z"/>
	<circle class="st0" cx="28.7" cy="30.1" r="0.4"/>
	<circle class="st0" cx="27.7" cy="31.1" r="0.4"/>
	<path class="st0" d="M31.5,29.4c0.6-0.6,0.6-1.5,0-2.1s-1.5-0.6-2.1,0s-0.6,1.5,0,2.1C29.9,30,30.9,30,31.5,29.4z M29.9,27.9
		c0.3-0.3,0.7-0.3,1,0c0.3,0.3,0.3,0.7,0,1c-0.3,0.3-0.7,0.3-1,0C29.6,28.6,29.6,28.1,29.9,27.9z"/>
	<circle class="st0" cx="28.7" cy="36.3" r="0.4"/>
	<ellipse transform="matrix(0.7071 -0.7071 0.7071 0.7071 -16.8777 29.9387)" class="st0" cx="27.7" cy="35.3" rx="0.4" ry="0.4"/>
	<path class="st0" d="M29.3,37c-0.6,0.6-0.6,1.5,0,2.1s1.5,0.6,2.1,0s0.6-1.5,0-2.1C30.9,36.4,29.9,36.4,29.3,37z M30.9,38.5
		c-0.3,0.3-0.7,0.3-1,0c-0.3-0.3-0.3-0.7,0-1c0.3-0.3,0.7-0.3,1,0C31.2,37.8,31.2,38.2,30.9,38.5z"/>
	<circle class="st0" cx="23.4" cy="31.1" r="0.4"/>
	<circle class="st0" cx="22.4" cy="30.1" r="0.4"/>
	<path class="st0" d="M21.8,29.4c0.6-0.6,0.6-1.5,0-2.1c-0.6-0.6-1.5-0.6-2.1,0c-0.6,0.6-0.6,1.5,0,2.1S21.2,30,21.8,29.4z
		 M20.3,27.9c0.3-0.3,0.7-0.3,1,0c0.3,0.3,0.3,0.7,0,1c-0.3,0.3-0.7,0.3-1,0C19.9,28.6,19.9,28.1,20.3,27.9z"/>
</g>
</svg>
