<svg xmlns="http://www.w3.org/2000/svg" viewBox="0 0 75 75" enable-background="new 0 0 75 75"><style type="text/css">.st0{fill:#FFFFFF;}</style><path d="M61.2 3.1H13.8C6.2 3.1 0 9.3 0 16.9v28.8c0 7.6 6.2 13.8 13.8 13.8h32.7l11.8 11.8c.4.4.8.5 1.3.5.2 0 .5 0 .7-.1.7-.3 1.1-1 1.1-1.7V59.6C69 59.4 75 53.3 75 45.7V16.9c0-7.6-6.2-13.8-13.8-13.8zm10.1 42.6c0 5.6-4.6 10.2-10.2 10.2h-1.5c-1 0-1.8.8-1.8 1.8v7.9l-9.2-9.2c-.3-.3-.8-.5-1.3-.5H13.8c-5.6 0-10.2-4.6-10.2-10.2V16.9c0-5.6 4.6-10.2 10.2-10.2h47.3c5.6 0 10.2 4.6 10.2 10.2v28.8zm0 0" class="st0"/></svg>