<svg xmlns="http://www.w3.org/2000/svg" width="29" height="29" xmlns:xlink="http://www.w3.org/1999/xlink"><title>Group</title><desc>Created with Sketch.</desc><defs><path id="a" d="M29 0H0v28.9h29V0z"/></defs><g id="Page-1" fill="none"><g><g><g><g transform="translate(0 .099)"><mask id="b"><use xlink:href="#a"/></mask><path fill="#F8F9FA" d="M14.5 2.46c-6.65 0-12.05 5.38-12.05 12 0 6.6 5.4 11.98 12.04 11.98 6.63 0 12.03-5.38 12.03-12 0-6.6-5.4-11.98-12.04-11.98m0 26.43C6.5 28.9 0 22.4 0 14.44 0 6.5 6.5 0 14.5 0S29 6.5 29 14.46c0 7.96-6.5 14.44-14.5 14.44" mask="url(#b)"/></g><path fill="#F8F9FA" d="M22.17 8.67l-1.74-1.73-5.95 5.93-5.95-5.93L6.8 8.67l5.95 5.93-5.95 5.92 1.73 1.73 5.95-5.93 5.95 5.93 1.74-1.73-5.95-5.92z"/></g></g></g></g></svg>