<svg xmlns="http://www.w3.org/2000/svg" width="30" height="30" xmlns:xlink="http://www.w3.org/1999/xlink"><title>Group 6</title><desc>Created with Sketch.</desc><defs><path id="a" d="M29 0H0v28.9h29V0z"/></defs><g fill="none"><g><g><g><g><g transform="matrix(.707 .707 -.707 .707 -6.363 3.261)"><mask id="b"><use xlink:href="#a"/></mask><path fill="#F8F9FA" d="M14.5 2.46c-6.65 0-12.05 5.38-12.05 12 0 6.6 5.4 11.98 12.04 11.98 6.63 0 12.03-5.38 12.03-12 0-6.6-5.4-11.98-12.04-11.98m0 26.43C6.5 28.9 0 22.4 0 14.44 0 6.5 6.5 0 14.5 0S29 6.5 29 14.46c0 7.96-6.5 14.44-14.5 14.44" mask="url(#b)"/></g><path fill="#F8F9FA" d="M24.4 15.95V13.5l-8.4-.02-.02-8.4h-2.45l.02 8.4-8.4-.02v2.45l8.4.02.02 8.4h2.45l-.02-8.4z"/></g></g></g></g></g></svg>