<svg xmlns="http://www.w3.org/2000/svg" width="9.953" height="9.931" viewBox="0 0 9.953 9.931">
  <g id="Group_124" data-name="Group 124" transform="translate(0 0.042)">
    <path id="Path_8" data-name="Path 8" d="M12.924,1.317,12.21,3.983a.372.372,0,0,1-.168.285.367.367,0,0,1-.5-.105l-.621-.62L4.375,10.26a.49.49,0,0,1-.342.136A.475.475,0,0,1,3.7,10.26c-.187-.186-.55-.178-.364-.365L3.7,9.584l6.543-6.736-.621-.62c-.267-.273-.193-.577.18-.676L12.433.827C12.812.74,13.067.926,12.924,1.317Z" transform="translate(-3.012 -0.848)" fill="#242b2e"/>
    <path id="Path_9" data-name="Path 9" d="M8.639,9.889H1.262A1.271,1.271,0,0,1,0,8.623V1.261A1.272,1.272,0,0,1,1.262,0H4.644a.346.346,0,1,1,0,.692H1.262a.574.574,0,0,0-.569.574V8.623a.584.584,0,0,0,.574.579H8.639a.584.584,0,0,0,.574-.579V5.282A.347.347,0,0,1,9.9,5.2a.329.329,0,0,1,0,.083V8.623A1.271,1.271,0,0,1,8.639,9.889Z" fill="#242b2e"/>
  </g>
</svg>
