<svg xmlns="http://www.w3.org/2000/svg" viewBox="0 0 15 15" enable-background="new 0 0 15 15"><style type="text/css">.st0{fill:#97A3AB;}</style><title>instagram-light</title><path d="M7.5 3.4c1.4 0 1.6 0 2.1 0 .3 0 .6.1 1 .2.4.2.8.5 1 1 .1.3.2.6.2 1 0 .5 0 .7 0 2.1s0 1.6 0 2.1c0 .3-.1.6-.2 1-.2.4-.5.8-1 1-.3.1-.6.2-1 .2-.5 0-.7 0-2.1 0s-1.6 0-2.1 0c-.3 0-.6-.1-1-.2-.4-.2-.8-.5-1-1-.1-.3-.2-.6-.2-1 0-.5 0-.7 0-2.1s0-1.6 0-2.1c0-.3.1-.6.2-1 .2-.4.5-.8 1-1 .3-.1.6-.2 1-.2.6 0 .8 0 2.1 0m0-1c-1.4 0-1.6 0-2.1 0-.4 0-.8.1-1.1.3-.5.1-.7.3-1 .6-.3.3-.5.5-.6.9-.2.4-.3.8-.3 1.3s0 .7 0 2.1 0 1.6 0 2.1c0 .4.1.9.3 1.2.1.3.3.7.6.9.3.3.6.4.9.6.4.2.9.3 1.3.3.5 0 .7 0 2.1 0s1.6 0 2.1 0c.4 0 .9-.1 1.2-.3.7-.3 1.2-.8 1.5-1.5.2-.4.3-.9.3-1.3 0-.5 0-.7 0-2.1s0-1.6 0-2.1c0-.4-.1-.9-.3-1.2-.1-.3-.3-.7-.6-.9-.3-.3-.6-.4-1-.6-.5-.2-.8-.3-1.3-.3-.4 0-.6 0-2 0zM7.5 4.9C6 4.9 4.9 6.1 4.9 7.5s1.2 2.6 2.6 2.6 2.6-1.2 2.6-2.6c0-1.4-1.1-2.6-2.6-2.6zm0 4.4c-1 0-1.7-.8-1.7-1.7s.8-1.7 1.7-1.7 1.7.8 1.7 1.7-.7 1.7-1.7 1.7z" class="st0"/><circle cx="10.3" cy="4.8" r=".6" class="st0"/></svg>