<svg xmlns="http://www.w3.org/2000/svg" viewBox="0 0 10 10"><defs><style>.cls-1{fill:none;}.cls-2{clip-path:url(#clip-path);}.cls-3{fill:#fff;}</style><clipPath id="clip-path" transform="translate(-.04)"><path d="M-32.5-40.9h75.1V50.9h-75.1z" class="cls-1"/></clipPath></defs><title>padlock</title><path d="M9.76 4.74a.9.9 0 0 0-.6-.2H8.9V3.18A2.82 2.82 0 0 0 7.74.94 4.2 4.2 0 0 0 4.95 0a4.2 4.2 0 0 0-2.7.94 2.82 2.82 0 0 0-1.14 2.24v1.37H.85a.9.9 0 0 0-.6.2.6.6 0 0 0-.28.48v4.1a.6.6 0 0 0 .24.47.9.9 0 0 0 .6.2h8.37a.9.9 0 0 0 .6-.2.6.6 0 0 0 .2-.48v-4.1a.6.6 0 0 0-.25-.47m-2.53-.2H2.77V3.18a1.6 1.6 0 0 1 .65-1.28 2.4 2.4 0 0 1 1.53-.54 2.4 2.4 0 0 1 1.57.53 1.6 1.6 0 0 1 .65 1.28z" class="cls-3"/></svg>