<?xml version="1.0" encoding="utf-8"?>
<!-- Generator: Adobe Illustrator 20.1.0, SVG Export Plug-In . SVG Version: 6.00 Build 0)  -->
<svg version="1.1" id="Layer_1" xmlns="http://www.w3.org/2000/svg" xmlns:xlink="http://www.w3.org/1999/xlink" x="0px" y="0px"
	 viewBox="0 0 175 70" style="enable-background:new 0 0 175 70;" xml:space="preserve">
<style type="text/css">
	.st0{fill:#E95F26;}
	.st1{fill:none;enable-background:new    ;}
	.st2{enable-background:new    ;}
	.st3{fill:#97A3AB;}
</style>
<g id="Symbols">
	<g id="Rapid7-logo">
		<g id="Group">
			<path id="Shape" d="M19,13.1h-0.4h-6.7l1.5-7H20c2.2,0,3.4,1.2,3.4,2.9C23.4,11.2,21.8,13.1,19,13.1 M30.7,8.3
				C30.7,3.5,27,0,20.6,0H7.4L1,29.3h7.3l2.2-10.1h4.3l4.3,10.1h7.3l-4.5-10.5C27.3,17.9,30.7,13.5,30.7,8.3"/>
			<path id="Shape_1_" d="M43.4,18.3l6.3-10.8L52,18.3H43.4L43.4,18.3z M46.7,0l-17,29.3H37l2.8-4.9l13.5,0l1.1,4.9h7.3L55.3,0H46.7
				L46.7,0z"/>
			<path id="Shape_2_" d="M82.7,13.1h-0.5h-6l1.5-7h5.7C85.6,6.1,87,7.2,87,9C87,11.2,85.3,13.1,82.7,13.1 M84.1,0H71.8l-6.4,29.3
				h7.3l2.2-10.1l8.2,0c7,0,11.2-5.3,11.2-10.8C94.2,3.5,90.4,0,84.1,0"/>
			<polygon id="Shape_3_" points="108.4,0 101.1,0 94.6,29.3 101.9,29.3 			"/>
			<path id="Shape_4_" class="st0" d="M160.8,0h-23.1c0.4,0.4,0.7,0.7,1,1.1c2.6,3.1,4,7.1,4,11.4c0,6.7-2.8,12.7-7.3,16.8h14.1
				l6.7-16.7h-8.4l1.4-6.5h16.7l-8.8,23.2h3.4c8,0,13.4-6.6,13.4-14.7C174,6.5,168.8,0,160.8,0"/>
			<path id="Shape_5_" d="M120.1,23.2h-4l3.8-17l3.8,0c4.2,0,6.5,3.1,6.5,7.1C130.1,18.5,126.4,23.2,120.1,23.2 M134.7,4.8
				c-2.5-3.1-6.7-4.8-11.6-4.8h-9.4l-6.4,29.3h11.8c4.6,0,8.1-1,10.8-2.6c5.5-3.3,7.4-9.2,7.4-14.1C137.4,9.4,136.4,6.8,134.7,4.8"
				/>
		</g>
	</g>
</g>
<path class="st1" d="z"/>
<g class="st2">
	<path class="st3" d="M93,62.2h-7.8V70h-5.3v-7.8H72v-5.4h7.9V49h5.3v7.8H93V62.2z"/>
</g>
</svg>
