<svg xmlns="http://www.w3.org/2000/svg" width="14" height="20"><title>lightning</title><desc>Created with Sketch.</desc><g fill="none"><g fill="#fff"><path d="M4.8 19.95c.08.03.16.05.25.05.22 0 .45-.1.58-.3L12.97 9c.16-.2.17-.5.05-.72-.1-.22-.35-.38-.6-.38l-4.56-.03L9.16.84c.08-.3-.1-.64-.38-.77-.3-.14-.63-.06-.84.2L.16 10.14c-.17.2-.2.5-.1.75.13.23.37.38.64.38l5.04.04-1.36 7.85c-.07.33.1.66.4.78zM2.13 9.9l5.14-6.53-.96 5.1c-.04.2 0 .4.15.57.14.16.33.26.53.26l4.06.02-4.78 6.96.94-5.55c.04-.2 0-.4-.15-.57-.12-.15-.3-.24-.5-.24L2.13 9.9z"/></g></g></svg>