<svg xmlns="http://www.w3.org/2000/svg" width="17" height="15"><title>Shape</title><desc>Created with Sketch.</desc><g fill="none"><g fill="#97a3ab"><g><g><g><path d="M14.78 2.4c.7-.45 1.25-1.16 1.5-2-.65.42-1.4.72-2.17.88-.6-.7-1.5-1.14-2.5-1.14-1.88 0-3.42 1.6-3.42 3.6 0 .3.03.57.1.83C5.4 4.42 2.9 3 1.2.8.9 1.33.75 1.95.75 2.62c0 1.25.6 2.35 1.53 3-.56 0-1.1-.18-1.55-.45v.05c0 1.75 1.18 3.2 2.75 3.54-.3.1-.6.13-.9.13-.23 0-.44-.03-.65-.08.43 1.44 1.7 2.5 3.2 2.5-1.17.98-2.65 1.56-4.26 1.56-.27 0-.55 0-.8-.05 1.5 1.03 3.3 1.62 5.24 1.62 6.3 0 9.75-5.5 9.75-10.28 0-.16 0-.3 0-.47.66-.5 1.24-1.14 1.7-1.87-.6.3-1.28.48-1.97.57z"/></g></g></g></g></g></svg>