<svg xmlns="http://www.w3.org/2000/svg" width="21" height="21"><title>Shape</title><desc>Created with Sketch.</desc><g fill="none"><g fill="#fff"><path d="M0 10.5C0 16.3 4.7 21 10.5 21S21 16.3 21 10.5 16.3 0 10.5 0 0 4.7 0 10.5zm3.58-6.25c-.9.5-.57-.34-.2-.7l-.06-.28c1.1-.97 3.65-1.78 5-1.65-.12-.53-.34-.34-.75-.57.6.02 1.2.04 1.8-.05.12 0 .7.98 1.24.86l.65-.43c.4 0 .8.1 1.2.2 0 .63-.7.7-1.04 1.24v.16l1.13.8c.63-.3.44.6.54.72.4.45.78-.75.87-1.03l-.47-.77.87.2.6.65c.2.02.44 0 .6-.1.17.4.55.8.93 1.02.12.8 1.18 1.36-.08 1.12l-.03-.52h-1.02c.3.05.5 1.06.64 1.33h-.94c.1.57-1.02.57-1.1 1.06 0 .62-.33.25-.7.63l.17.97-1.77-.83c-1.18.32-1.07 1.03-.5 1.95l.37-.23c-.03-.05.26-.27.28-.06v.76l1.32.25v.8l.7.25-.96-.16C12.4 10.6 9.3 10.8 9.52 9.7 9.32 9.48 8.04 8 7.8 8.13 5.54 6.87 8.1 4.8 5.5 3.8H3.78l-.06.15-.14.3zm12.4 13.62c0 .1 0 .44-.1.5-.22.1-.48-.06-.68.07-.13.08-.18.2-.28.32-.28.33-.6.6-.88.94-.04.05-.08.15-.07.23 0 0 .04.06 0 .06-.2.05-.5-.3-.52-.5-.04-.25.2-.4.27-.64.24-.65.55-1.9.44-2.58-.16-1-.97-.43-1.12-1.62-.04-.23-.08-.52.03-.75.1-.22.37-.3.46-.55.22-.5-.28-1.17.55-1.26l.08-.02H14.32l.1-.03c.12-.04.18-.05.3-.05.1 0 .23.04.35.05.3.04.58 0 .82.17.47.28.97.57 1.4.96l-.25.4c.03-.06.08-.08.15-.06.53.05 1.43.12 1.8.65.12.53-.9 1.1-.94 1.75 0 .08.1.2 0 .27-.2.15-.5.15-.7.3-.5.43-.62 1.27-1.37 1.37z"/></g></g></svg>