<?xml version="1.0" encoding="utf-8"?>
<!-- Generator: Adobe Illustrator 20.1.0, SVG Export Plug-In . SVG Version: 6.00 Build 0)  -->
<svg version="1.1" id="Layer_1" xmlns="http://www.w3.org/2000/svg" xmlns:xlink="http://www.w3.org/1999/xlink" x="0px" y="0px"
	 viewBox="0 0 50 50" style="enable-background:new 0 0 50 50;" xml:space="preserve">
<style type="text/css">
	.st0{fill:#E95F26;}
</style>
<g>
	<g>
		<circle class="st0" cx="25" cy="36.8" r="2.3"/>
		<path class="st0" d="M24.7,30.8c0.7,0,1.3-0.6,1.3-1.3V17.4c0-0.7-0.6-1.3-1.3-1.3s-1.3,0.6-1.3,1.3v12.1
			C23.4,30.2,24,30.8,24.7,30.8z"/>
		<path class="st0" d="M29.6,7.3L29.6,7.3c-1.2-1.9-2.5-3.8-4.6-3.8c-2.3,0-3.5,1.9-4.6,3.7c0,0,0,0.1,0,0.1L0.2,41.5
			C0.1,41.7,0,41.8,0,42.1c0,2.5,2,4.4,4.4,4.4h41.1c2.5,0,4.4-1.9,4.4-4.4c0-0.2-0.1-0.4-0.2-0.6L29.6,7.3z M45.6,43.9H4.4
			c-0.9,0-1.7-0.6-1.9-1.5l20-33.8c1-1.6,1.6-2.5,2.5-2.5c0.8,0,1.6,1.2,2.4,2.5l20,33.7C47.3,43.3,46.5,43.9,45.6,43.9z"/>
	</g>
</g>
</svg>
