<?xml version="1.0" encoding="utf-8"?>
<!-- Generator: Adobe Illustrator 20.1.0, SVG Export Plug-In . SVG Version: 6.00 Build 0)  -->
<svg version="1.1" id="Layer_1" xmlns="http://www.w3.org/2000/svg" xmlns:xlink="http://www.w3.org/1999/xlink" x="0px" y="0px"
	 viewBox="0 0 75 75" style="enable-background:new 0 0 75 75;" xml:space="preserve">
<style type="text/css">
	.st0{fill:#E95F26;}
</style>
<g>
	<path class="st0" d="M67.7,44c0.7-2.7,1-5.5,1-8.3c0-19-15.4-34.4-34.4-34.4C15.4,1.3,0,16.7,0,35.6c0,10,4.3,19,11.2,25.3l0,0
		l1.1,0.9c0.1,0.1,0.1,0.1,0.2,0.2c0.6,0.5,1.2,1,1.8,1.4c0.2,0.1,0.4,0.3,0.6,0.4c0.7,0.5,1.4,0.9,2.1,1.3c0.2,0.1,0.3,0.2,0.5,0.3
		c0.8,0.4,1.6,0.8,2.4,1.2c0.1,0,0.1,0,0.2,0.1c2.6,1.2,5.4,2.1,8.3,2.6c0.1,0,0.2,0,0.2,0c0.9,0.2,1.8,0.3,2.7,0.4
		c0.1,0,0.2,0,0.3,0c0.9,0.1,1.9,0.1,2.8,0.1c4.1,0,8.1-0.7,11.9-2.1c3,3.6,7.5,5.9,12.5,5.9c9,0,16.2-7.3,16.2-16.2
		C75,51.8,72.1,46.9,67.7,44L67.7,44z M2.5,35.6C2.5,18,16.8,3.8,34.4,3.8S66.2,18,66.2,35.6c0,2.4-0.3,4.8-0.8,7.1c0,0,0,0-0.1,0
		c-0.5-0.2-1-0.4-1.4-0.6h-0.1c-0.5-0.2-1-0.3-1.6-0.4h-0.1c-0.5-0.1-1.1-0.2-1.6-0.3h-0.1c-0.6-0.1-1.1-0.1-1.7-0.1
		c-7.4,0-13.7,5-15.6,11.8c-0.5-0.5-0.9-1.2-0.9-2v-3.7c0.2-0.3,0.5-0.6,0.8-1c1.4-1.9,2.5-4.1,3.3-6.4c1.6-0.8,2.6-2.3,2.6-4.1
		v-4.4c0-1.1-0.4-2.1-1.1-3v-5.8c0.1-0.6,0.3-4.3-2.4-7.3c-2.3-2.6-6-4-11.1-4s-8.8,1.3-11.1,4c-2.6,3-2.4,6.7-2.4,7.3v5.8
		c-0.7,0.8-1.1,1.9-1.1,3v4.4c0,1.4,0.6,2.7,1.7,3.5c1,4,3.1,7,3.9,8V51c0,1-0.6,2-1.5,2.4L14,58.8c-0.3,0.2-0.6,0.4-0.9,0.6
		C6.6,53.5,2.5,45,2.5,35.6L2.5,35.6z M32,67.4c-0.1,0-0.3,0-0.4,0c-0.8-0.1-1.6-0.2-2.4-0.3h-0.1c-1.7-0.3-3.3-0.7-4.9-1.2h-0.1
		c-1.5-0.5-3-1.2-4.5-1.9c-0.1,0-0.2-0.1-0.2-0.1c-0.6-0.3-1.3-0.7-1.9-1.1c-0.2-0.1-0.4-0.2-0.5-0.3c-0.6-0.4-1.1-0.8-1.7-1.2
		c-0.1,0-0.1-0.1-0.2-0.1c0,0,0.1,0,0.1-0.1l9.9-5.4c1.7-0.9,2.8-2.7,2.8-4.6v-4.5L27.6,46c0,0-2.7-3.3-3.7-7.8l-0.1-0.5l-0.4-0.3
		c-0.6-0.4-1-1-1-1.7v-4.4c0-0.6,0.2-1.1,0.7-1.5l0.4-0.4v-7v-0.2c0,0-0.4-3,1.7-5.5c1.8-2.1,4.9-3.1,9.2-3.1s7.4,1,9.2,3.1
		c2.1,2.4,1.8,5.5,1.8,5.5v7.1l0.4,0.4c0.4,0.4,0.7,0.9,0.7,1.5v4.4c0,0.9-0.6,1.7-1.5,2l-0.6,0.2l-0.2,0.6
		c-0.7,2.3-1.8,4.4-3.1,6.3c-0.3,0.5-0.6,0.9-0.9,1.2l-0.3,0.3V51c0,2,1.1,3.8,2.8,4.7c-0.1,0.6-0.1,1.2-0.1,1.8c0,0.4,0,0.7,0,1.1
		c0,0.1,0,0.3,0,0.4s0,0.2,0,0.4c0,0.1,0,0.2,0,0.3c0,0.2,0.1,0.4,0.1,0.6c0,0.1,0,0.3,0.1,0.4l0,0v0.1c0,0.2,0.1,0.4,0.1,0.5
		s0.1,0.2,0.1,0.4c0,0.1,0.1,0.2,0.1,0.3s0.1,0.3,0.1,0.4s0.1,0.2,0.1,0.3c0.1,0.3,0.2,0.5,0.3,0.7l0,0c0.1,0.2,0.2,0.4,0.2,0.6
		c0.1,0.1,0.1,0.3,0.2,0.4c0,0.1,0.1,0.2,0.1,0.3c0,0.1,0.1,0.1,0.1,0.2c0.1,0.2,0.2,0.4,0.3,0.6c0,0.1,0.1,0.1,0.1,0.2
		c-3.4,1.2-6.8,1.8-10.4,1.8C33.6,67.5,32.8,67.5,32,67.4L32,67.4z M58.8,71.3c-4.6,0-8.6-2.3-11.1-5.7c-0.1-0.1-0.2-0.3-0.3-0.4
		s-0.1-0.2-0.2-0.3c-0.1-0.1-0.1-0.2-0.2-0.3c-0.1-0.1-0.1-0.2-0.2-0.3c-0.1-0.2-0.2-0.3-0.3-0.5c-0.1-0.1-0.1-0.2-0.2-0.3v-0.1
		c-0.1-0.2-0.2-0.4-0.3-0.6c0-0.1-0.1-0.2-0.1-0.3c-0.1-0.3-0.2-0.5-0.3-0.8c0-0.1-0.1-0.2-0.1-0.4v-0.1c-0.1-0.3-0.1-0.5-0.2-0.8
		c0-0.1,0-0.2,0-0.2c0-0.1,0-0.2,0-0.2c0-0.3-0.1-0.6-0.1-0.8v-0.1c0-0.1,0-0.2,0-0.3c0-0.4-0.1-0.8-0.1-1.3c0-0.4,0-0.8,0.1-1.2
		c0-0.4,0.1-0.8,0.2-1.1l0.1-0.5c1.3-6.2,6.8-10.9,13.4-10.9c0.6,0,1.1,0,1.7,0.1c0.1,0,0.3,0,0.4,0.1c0.5,0.1,0.9,0.2,1.4,0.3
		c0.1,0,0.2,0,0.3,0.1c1.1,0.3,2.2,0.8,3.2,1.3c4.1,2.4,6.9,6.8,6.9,11.9C72.5,65.1,66.3,71.3,58.8,71.3L58.8,71.3z"/>
</g>
<g>
	<g>
		<circle class="st0" cx="58.7" cy="60.3" r="0.8"/>
		<path class="st0" d="M58.6,58.3c0.2,0,0.4-0.2,0.4-0.4v-4.1c0-0.2-0.2-0.4-0.4-0.4c-0.2,0-0.4,0.2-0.4,0.4v4.1
			C58.1,58,58.3,58.3,58.6,58.3z"/>
		<path class="st0" d="M60.3,50.2L60.3,50.2c-0.4-0.6-0.9-1.3-1.6-1.3c-0.8,0-1.2,0.6-1.6,1.3v0l-6.9,11.7c0,0.1-0.1,0.1-0.1,0.2
			c0,0.9,0.7,1.5,1.5,1.5h14c0.9,0,1.5-0.6,1.5-1.5c0-0.1,0-0.1-0.1-0.2L60.3,50.2z M65.7,62.7H51.6c-0.3,0-0.6-0.2-0.6-0.5
			l6.8-11.6c0.3-0.5,0.5-0.9,0.9-0.9c0.3,0,0.5,0.4,0.8,0.9l6.8,11.5C66.3,62.5,66,62.7,65.7,62.7z"/>
	</g>
</g>
</svg>
