<?xml version="1.0" encoding="utf-8"?>
<!-- Generator: Adobe Illustrator 19.2.1, SVG Export Plug-In . SVG Version: 6.00 Build 0)  -->
<svg version="1.1" id="Capa_1" xmlns="http://www.w3.org/2000/svg" xmlns:xlink="http://www.w3.org/1999/xlink" x="0px" y="0px"
	 viewBox="0 0 50 50" style="enable-background:new 0 0 50 50;" xml:space="preserve">
<style type="text/css">
	.st0{fill:#E95F26;}
</style>
<g>
	<path class="st0" d="M17,26.2h15.5c0.5,0,0.8-0.4,0.8-0.8c0-0.4-0.4-0.8-0.8-0.8H17c-0.5,0-0.8,0.4-0.8,0.8S16.6,26.2,17,26.2z"/>
	<path class="st0" d="M17,19.2h15.5c0.5,0,0.8-0.4,0.8-0.8c0-0.5-0.4-0.8-0.8-0.8H17c-0.5,0-0.8,0.4-0.8,0.8
		C16.2,18.8,16.6,19.2,17,19.2z"/>
	<path class="st0" d="M20.4,38.8h-3.3c-0.5,0-0.8,0.4-0.8,0.8c0,0.5,0.4,0.8,0.8,0.8h3.3c0.5,0,0.8-0.4,0.8-0.8
		C21.2,39.1,20.8,38.8,20.4,38.8z"/>
	<path class="st0" d="M21.5,31.7h-4.4c-0.5,0-0.8,0.4-0.8,0.8c0,0.5,0.4,0.8,0.8,0.8h4.4c0.5,0,0.8-0.4,0.8-0.8
		C22.3,32,21.9,31.7,21.5,31.7z"/>
	<path class="st0" d="M39,31.3v-23c0-0.5-0.4-0.8-0.8-0.8h-6.9V5.2c0-0.5-0.4-0.8-0.8-0.8h-3.3c0,0,0,0,0,0c0-2.4-2-4.4-4.4-4.4
		c-2.4,0-4.4,2-4.4,4.4c0,0,0,0,0,0h-3.3c-0.5,0-0.8,0.4-0.8,0.8v2.2H7.4c-0.5,0-0.8,0.4-0.8,0.8v38.2c0,0.4,0.4,0.8,0.8,0.8h18.9
		c0,0,0,0,0,0c1.8,1.7,4.2,2.7,6.9,2.7c5.7,0,10.3-4.6,10.3-10.3C43.5,36.2,41.7,33.1,39,31.3z M15.9,6h3.5c0.3,0,0.5-0.1,0.6-0.3
		c0.2-0.2,0.2-0.5,0.1-0.7c-0.1-0.2-0.1-0.5-0.1-0.7c0-1.5,1.2-2.7,2.7-2.7s2.7,1.2,2.7,2.7c0,0.2,0,0.4-0.1,0.7
		c-0.1,0.2,0,0.5,0.1,0.7C25.7,5.9,26,6,26.2,6h3.5v4H15.9V6z M8.2,45.7l0-36.6h6.1v1.8c0,0.5,0.4,0.8,0.8,0.8h15.4
		c0.5,0,0.8-0.4,0.8-0.8V9.1h6.1v21.2c-1.3-0.6-2.7-0.9-4.2-0.9c-5.7,0-10.3,4.6-10.3,10.3c0,2.2,0.7,4.3,1.9,6H8.2z M33.2,48.4
		c-4.8,0-8.6-3.9-8.6-8.6c0-4.8,3.9-8.7,8.6-8.7c4.8,0,8.6,3.9,8.6,8.7C41.8,44.5,38,48.4,33.2,48.4z"/>
	<path class="st0" d="M37.7,36.3l-5,4.8l-3.4-2.7c-0.4-0.3-0.9-0.2-1.1,0.1c-0.3,0.4-0.2,0.9,0.1,1.1l3.9,3.2
		c0.1,0.1,0.3,0.2,0.5,0.2c0.2,0,0.4-0.1,0.6-0.2l5.5-5.3c0.3-0.3,0.3-0.8,0-1.2C38.5,36,38,36,37.7,36.3z"/>
	<circle class="st0" cx="13" cy="18.3" r="1"/>
	<circle class="st0" cx="12.9" cy="25.4" r="1"/>
	<circle class="st0" cx="12.8" cy="32.5" r="1"/>
	<circle class="st0" cx="13" cy="39.6" r="1"/>
</g>
</svg>
