<?xml version="1.0" encoding="utf-8"?>
<!-- Generator: Adobe Illustrator 20.1.0, SVG Export Plug-In . SVG Version: 6.00 Build 0)  -->
<svg version="1.1" id="Layer_1" xmlns="http://www.w3.org/2000/svg" xmlns:xlink="http://www.w3.org/1999/xlink" x="0px" y="0px"
	 viewBox="0 0 75 75" style="enable-background:new 0 0 75 75;" xml:space="preserve">
<style type="text/css">
	.st0{fill:#E95F26;}
</style>
<g>
	<path class="st0" d="M68.2,30.7c-3.3,0-6,2.3-6.7,5.4h-6.3c-0.3-3.8-1.8-7.3-4.2-10.1l4.5-4.5c1.1,0.7,2.4,1.1,3.7,1.1
		c1.8,0,3.5-0.7,4.8-2c1.3-1.3,2-3,2-4.8c0-1.8-0.7-3.5-2-4.8c-1.3-1.3-3-2-4.8-2c-1.8,0-3.5,0.7-4.8,2c-1.3,1.3-2,3-2,4.8
		c0,1.4,0.4,2.6,1.1,3.7L49,24.1c-2.8-2.3-6.3-3.9-10.1-4.1v-6.4c3.1-0.6,5.4-3.4,5.4-6.7c0-3.8-3.1-6.8-6.8-6.8
		c-3.8,0-6.8,3.1-6.8,6.8c0,3.3,2.3,6,5.4,6.7v6.4c-3.8,0.3-7.3,1.9-10,4.2l-4.6-4.6c0.7-1.1,1.1-2.4,1.1-3.7c0-1.8-0.7-3.5-2-4.8
		c-1.3-1.3-3-2-4.8-2C14,9,12.3,9.7,11,11c-1.3,1.3-2,3-2,4.8c0,1.8,0.7,3.5,2,4.8c1.3,1.3,3,2,4.8,2c1.4,0,2.6-0.4,3.7-1.1l4.6,4.6
		c-2.3,2.7-3.8,6.2-4.1,10h-6.5c-0.6-3.1-3.4-5.4-6.7-5.4c-3.8,0-6.8,3.1-6.8,6.8c0,3.8,3.1,6.8,6.8,6.8c3.3,0,6-2.3,6.7-5.4H20
		c0.3,3.8,1.8,7.2,4.1,10l-4.6,4.6c-1.1-0.7-2.4-1.1-3.7-1.1c-1.8,0-3.5,0.7-4.8,2c-1.3,1.3-2,3-2,4.8c0,1.8,0.7,3.5,2,4.8
		c1.3,1.3,3,2,4.8,2c1.8,0,3.5-0.7,4.8-2c1.3-1.3,2-3,2-4.8c0-1.4-0.4-2.6-1.1-3.7l4.6-4.6c2.7,2.4,6.2,3.9,10,4.2v6.4
		c-3.1,0.6-5.4,3.4-5.4,6.7c0,3.8,3.1,6.8,6.8,6.8c3.8,0,6.8-3.1,6.8-6.8c0-3.3-2.3-6-5.4-6.7v-6.4c3.8-0.3,7.3-1.8,10.1-4.1
		l4.5,4.5c-0.7,1.1-1.1,2.4-1.1,3.7c0,1.8,0.7,3.5,2,4.8c1.3,1.3,3,2,4.8,2c1.8,0,3.5-0.7,4.8-2c1.3-1.3,2-3,2-4.8
		c0-1.8-0.7-3.5-2-4.8c-1.3-1.3-3-2-4.8-2c-1.4,0-2.6,0.4-3.7,1.1L51,49c2.4-2.8,3.9-6.3,4.2-10.1h6.3c0.6,3.1,3.4,5.4,6.7,5.4
		c3.8,0,6.8-3.1,6.8-6.8C75,33.7,71.9,30.7,68.2,30.7z M56.3,13c0.8-0.8,1.8-1.2,2.9-1.2c1.1,0,2.1,0.4,2.9,1.2
		c1.6,1.6,1.6,4.1,0,5.7c-0.8,0.8-1.8,1.2-2.9,1.2c-1.1,0-2.1-0.4-2.9-1.2C54.8,17.1,54.8,14.5,56.3,13z M18.7,18.6
		c-0.8,0.8-1.8,1.2-2.9,1.2c-1.1,0-2.1-0.4-2.9-1.2c-1.6-1.6-1.6-4.1,0-5.7c0.8-0.8,1.8-1.2,2.9-1.2c1.1,0,2.1,0.4,2.9,1.2
		C20.2,14.5,20.2,17.1,18.7,18.6z M6.8,41.5c-2.2,0-4-1.8-4-4c0-2.2,1.8-4,4-4c2.2,0,4,1.8,4,4C10.9,39.7,9,41.5,6.8,41.5z M18.7,62
		c-0.8,0.8-1.8,1.2-2.9,1.2c-1.1,0-2.1-0.4-2.9-1.2c-1.6-1.6-1.6-4.1,0-5.7c0.8-0.8,1.8-1.2,2.9-1.2c1.1,0,2.1,0.4,2.9,1.2
		C20.2,57.9,20.2,60.5,18.7,62z M56.3,56.4c0.8-0.8,1.8-1.2,2.9-1.2c1.1,0,2.1,0.4,2.9,1.2c1.6,1.6,1.6,4.1,0,5.7
		c-0.8,0.8-1.8,1.2-2.9,1.2c-1.1,0-2.1-0.4-2.9-1.2C54.8,60.5,54.8,57.9,56.3,56.4z M33.5,6.8c0-2.2,1.8-4,4-4c2.2,0,4,1.8,4,4
		c0,2.2-1.8,4-4,4C35.3,10.9,33.5,9,33.5,6.8z M41.5,68.2c0,2.2-1.8,4-4,4c-2.2,0-4-1.8-4-4c0-2.2,1.8-4,4-4
		C39.7,64.1,41.5,66,41.5,68.2z M37.6,52.8c-8.4,0-15.3-6.9-15.3-15.3s6.9-15.3,15.3-15.3s15.3,6.9,15.3,15.3S46.1,52.8,37.6,52.8z
		 M68.2,41.5c-2.2,0-4-1.8-4-4c0-2.2,1.8-4,4-4c2.2,0,4,1.8,4,4C72.2,39.7,70.4,41.5,68.2,41.5z"/>
	<path class="st0" d="M41,40.3c1.2-1.3,1.9-3,1.9-4.8c0-3.9-3.2-7.1-7.1-7.1c-3.9,0-7.1,3.2-7.1,7.1c0,3.9,3.2,7.1,7.1,7.1
		c1.6,0,3.1-0.5,4.3-1.4l5.3,5.3c0.1,0.1,0.3,0.2,0.5,0.2c0.2,0,0.3-0.1,0.5-0.2c0.2-0.2,0.2-0.7,0-0.9L41,40.3z M35.7,41.3
		c-3.2,0-5.8-2.6-5.8-5.8c0-3.2,2.6-5.8,5.8-5.8c3.2,0,5.8,2.6,5.8,5.8S39,41.3,35.7,41.3z"/>
</g>
</svg>
