<?xml version="1.0" encoding="utf-8"?>
<!-- Generator: Adobe Illustrator 19.2.1, SVG Export Plug-In . SVG Version: 6.00 Build 0)  -->
<svg version="1.1" id="Layer_1" xmlns="http://www.w3.org/2000/svg" xmlns:xlink="http://www.w3.org/1999/xlink" x="0px" y="0px"
	 viewBox="0 0 50 50" style="enable-background:new 0 0 50 50;" xml:space="preserve">
<style type="text/css">
	.st0{fill:#E95F26;}
</style>
<g>
	<path class="st0" d="M25,0C11.2,0,0,11.2,0,25s11.2,25,25,25s25-11.2,25-25S38.8,0,25,0z M25,47.9C12.4,47.9,2.1,37.6,2.1,25
		S12.4,2.1,25,2.1S47.9,12.4,47.9,25S37.6,47.9,25,47.9z"/>
	<path class="st0" d="M37.6,27.4l-7.8-1.9l-0.7,2.9l3.9,1l-7.8,4c-3.7,1.9-8.2,0.4-10.1-3.3l-2.7,1.4c2.7,5.2,9,7.2,14.2,4.6l7.8-4
		l-1.5,3.7l2.8,1.1l3-7.4c0.2-0.4,0.1-0.9-0.1-1.2C38.3,27.8,38,27.6,37.6,27.4z"/>
	<path class="st0" d="M20.1,24.5l0.8-2.9l-3.9-1l7.9-3.9c3.7-1.8,8.2-0.3,10.1,3.4l2.7-1.3c-2.6-5.2-8.9-7.3-14.1-4.8l-7.9,3.9
		l1.5-3.7L14.4,13l-3.1,7.4c-0.2,0.4-0.2,0.9,0,1.2c0.2,0.4,0.5,0.7,1,0.8L20.1,24.5z"/>
</g>
</svg>
