<?xml version="1.0" encoding="utf-8"?>
<!-- Generator: Adobe Illustrator 19.2.1, SVG Export Plug-In . SVG Version: 6.00 Build 0)  -->
<svg version="1.1" id="Layer_1" xmlns="http://www.w3.org/2000/svg" xmlns:xlink="http://www.w3.org/1999/xlink" x="0px" y="0px"
	 viewBox="0 0 55 50" style="enable-background:new 0 0 55 50;" xml:space="preserve">
<style type="text/css">
	.st0{fill:#E95F26;}
</style>
<g>
	<path class="st0" d="M51.3,47L36.9,32.6c3.2-3.5,5.2-8.1,5.2-13.2C42.1,8.7,33.4,0,22.7,0S3.2,8.7,3.2,19.4
		c0,10.7,8.7,19.4,19.4,19.4c4.4,0,8.4-1.4,11.6-3.9l14.5,14.5c0.4,0.4,0.8,0.5,1.2,0.5c0.4,0,0.9-0.2,1.2-0.5
		C51.9,48.8,51.9,47.7,51.3,47z M22.7,35.4c-8.8,0-15.9-7.2-15.9-15.9c0-8.8,7.1-15.9,15.9-15.9s15.9,7.1,15.9,15.9
		C38.6,28.2,31.5,35.4,22.7,35.4z"/>
	<path class="st0" d="M32.4,18.4H31c-0.6-3.6-3.5-6.5-7.3-6.9V9.8c0-0.6-0.5-1.1-1.1-1.1c-0.6,0-1.1,0.5-1.1,1.1v1.7
		c-3.5,0.5-6.4,3.3-7,6.9H13c-0.6,0-1.1,0.5-1.1,1.1c0,0.6,0.5,1.1,1.1,1.1h1.4c0.4,3.9,3.3,7,7.1,7.5v1.1c0,0.6,0.5,1.1,1.1,1.1
		c0.6,0,1.1-0.5,1.1-1.1v-1.1c3.9-0.5,7-3.6,7.4-7.5h1.3c0.6,0,1.1-0.5,1.1-1.1C33.5,18.9,33,18.4,32.4,18.4z M23.7,25.9v-2.8
		c0-0.6-0.5-1.1-1.1-1.1c-0.6,0-1.1,0.5-1.1,1.1v2.8c-2.6-0.5-4.6-2.6-4.9-5.3h2.5c0.6,0,1.1-0.5,1.1-1.1c0-0.6-0.5-1.1-1.1-1.1
		h-2.4c0.5-2.4,2.5-4.2,4.8-4.7v2.2c0,0.6,0.5,1.1,1.1,1.1c0.6,0,1.1-0.5,1.1-1.1v-2.2c2.5,0.4,4.5,2.3,5.1,4.7h-2.5
		c-0.6,0-1.1,0.5-1.1,1.1c0,0.6,0.5,1.1,1.1,1.1h2.6C28.6,23.3,26.5,25.5,23.7,25.9z"/>
</g>
</svg>
