<?xml version="1.0" encoding="utf-8"?>
<!-- Generator: Adobe Illustrator 19.2.1, SVG Export Plug-In . SVG Version: 6.00 Build 0)  -->
<svg version="1.1" id="Layer_1" xmlns="http://www.w3.org/2000/svg" xmlns:xlink="http://www.w3.org/1999/xlink" x="0px" y="0px"
	 viewBox="0 0 55 50" style="enable-background:new 0 0 55 50;" xml:space="preserve">
<style type="text/css">
	.st0{fill:#E95F26;}
</style>
<g>
	<path class="st0" d="M10.9,8.8c8.9-9.1,23.6-9.3,32.7-0.4l0.1,0.1l-2.8,0c-0.5,0-0.9,0.4-0.9,0.9c0,0.5,0.4,0.9,0.9,0.9h0l5-0.1
		c0.2,0,0.5-0.1,0.7-0.3C46.9,10,47,9.7,47,9.5l-0.1-5c0-0.5-0.4-0.9-0.9-0.9c-0.5,0-0.9,0.4-0.9,0.9l0,2.8L45,7.1
		C35.1-2.5,19.2-2.3,9.6,7.5C6.3,10.9,4,15.2,3,19.9C2.1,24.4,2.4,29.1,4,33.5c0.1,0.4,0.5,0.6,0.9,0.6c0.1,0,0.2,0,0.3-0.1
		c0.5-0.2,0.7-0.7,0.6-1.2C2.7,24.4,4.7,15.2,10.9,8.8z"/>
	<path class="st0" d="M51,16.5c-0.2-0.5-0.7-0.7-1.2-0.6c-0.5,0.2-0.7,0.7-0.6,1.2c3,8.4,1,17.6-5.2,24c-4.5,4.6-10.5,7-16.6,7
		c-5.8,0-11.7-2.2-16.2-6.6l-0.1-0.1l2.8,0c0.5,0,0.9-0.4,0.9-0.9c0-0.5-0.4-0.9-0.9-0.9h0l-5,0.1C8.4,39.6,8,40,8,40.5l0.1,5
		c0,0.5,0.4,0.9,0.9,0.9h0c0.5,0,0.9-0.4,0.9-0.9l0-2.8l0.1,0.1c4.9,4.7,11.2,7.1,17.5,7.1c6.5,0,13-2.5,17.9-7.5
		c3.3-3.4,5.6-7.7,6.6-12.4C52.9,25.6,52.6,20.9,51,16.5z"/>
	<path class="st0" d="M27.5,10.6c-4.1,0-7.5,3.4-7.5,7.5v3.7h-0.3c-1.3,0-2.4,1.1-2.4,2.4v10.3c0,1.3,1.1,2.4,2.4,2.4h15.6
		c1.3,0,2.4-1.1,2.4-2.4V24.2c0-1.3-1.1-2.4-2.4-2.4H35v-3.7C35,14,31.6,10.6,27.5,10.6z M21.9,18.1c0-3.1,2.5-5.6,5.6-5.6
		c3.1,0,5.6,2.5,5.6,5.6v3.7H21.9V18.1z M35.3,23.7c0.3,0,0.6,0.2,0.6,0.6v10.3c0,0.3-0.2,0.6-0.6,0.6H19.7c-0.3,0-0.6-0.2-0.6-0.6
		V24.2c0-0.3,0.2-0.6,0.6-0.6H35.3z"/>
	<path class="st0" d="M26.6,29.5c0.1,0.1,0.2,0.2,0.2,0.3c0,0.7,0,1.3,0,2c0,0.6,0.6,1,1.2,0.7c0.2-0.1,0.4-0.4,0.4-0.7
		c0-0.7,0-1.3,0-2c0-0.1,0-0.2,0.2-0.3c0.4-0.3,0.6-0.7,0.6-1.3c0-0.7-0.6-1.4-1.3-1.5c-0.7-0.1-1.4,0.2-1.7,0.9
		C25.8,28.3,26,29.1,26.6,29.5z"/>
</g>
</svg>
