<svg viewBox="0 0 28 28" xmlns="http://www.w3.org/2000/svg"><path d="m27.66719 4.86294-4.552-4.5712a1.13232 1.13232 0 0 0 -1.51734 0l-19.13363 18.98446a1.39012 1.39012 0 0 0 -.28829.482l-2.09393 6.67021a1.19147 1.19147 0 0 0 .64515 1.53481q.02617.01067.05282.02a1.08145 1.08145 0 0 0 .37934 0 1.20014 1.20014 0 0 0 .33381 0l6.67628-2.14567a.982.982 0 0 0 .4552-.27987l19.04259-19.03108a1.1866 1.1866 0 0 0 0-1.64811zm-20.42335 18.79787-4.32441 1.3527 1.33525-4.26023 13.36774-13.34042.12139.18658 2.79189 2.78314zm14.93059-14.9419-2.83743-2.79869-.13656-.09329 3.03467-3.10966 2.94365 2.93863z" fill="#b1c1c9"/></svg>