<svg viewBox="0 0 28 28" xmlns="http://www.w3.org/2000/svg"><g fill="#b1c1c9"><path d="m25.06731 26.72964-5.78675-12.35614a7.605 7.605 0 0 1 -.58562-2.66179v-6.30415a1.4018 1.4018 0 0 0 -1.39439-1.40093h-6.60939a1.4018 1.4018 0 0 0 -1.39439 1.40093v6.30415a7.60478 7.60478 0 0 1 -.58562 2.66179l-5.78675 12.35614a.83051.83051 0 0 0 .251 1.13475.79026.79026 0 0 0 .55779.126h20.52535a.82967.82967 0 0 0 .9343-.70046.87909.87909 0 0 0 -.12553-.56029zm-14.47377-11.45964a9.44767 9.44767 0 0 0 .79481-3.55831v-5.60369h5.215v5.60369a9.44767 9.44767 0 0 0 .79482 3.55831l.71115 1.513h-4.12742a1.8917 1.8917 0 0 0 -3.06768 0h-1.03183zm-4.964 10.619 3.27676-7.00457h10.17911l3.27678 7.00457z"/><circle cx="13.11739" cy="3.04" r=".66931"/><circle cx="15.05559" cy="1.8212" r=".55776"/><circle cx="14.14924" cy=".36424" r=".36339"/><ellipse cx="13.56359" cy="8.20941" rx="1.10157" ry="1.10673"/><ellipse cx="14.52572" cy="13.16867" rx="1.35256" ry="1.3589"/></g></svg>