<svg viewBox="0 0 28 28" xmlns="http://www.w3.org/2000/svg"><g fill="#e85e26"><path d="m1.053 28a1.05243 1.05243 0 0 1 -1.053-1.05128v-25.89744a1.053 1.053 0 0 1 2.10607 0v25.89744a1.05243 1.05243 0 0 1 -1.05307 1.05128z"/><path d="m26.947 28a1.05243 1.05243 0 0 1 -1.053-1.05128v-25.89744a1.053 1.053 0 0 1 2.10607 0v25.89744a1.05243 1.05243 0 0 1 -1.05307 1.05128z"/><path d="m14.00513 23.88164a1.04763 1.04763 0 0 0 -1.05 1.04826v3.04683h2.1v-3.04683a1.05693 1.05693 0 0 0 -1.05-1.04826zm0-8.74944a1.04763 1.04763 0 0 0 -1.05 1.04825v4.37455a1.05 1.05 0 0 0 2.1 0v-4.37455a1.05693 1.05693 0 0 0 -1.05-1.04825zm0-8.73546a1.03886 1.03886 0 0 0 -1.05 1.04826v4.3609a1.05 1.05 0 0 0 2.1 0v-4.3609a1.04786 1.04786 0 0 0 -1.05-1.04826zm-1.05-6.37347v3.04717a1.05 1.05 0 0 0 2.1 0v-3.04717z"/></g></svg>