<svg viewBox="0 0 28 28" xmlns="http://www.w3.org/2000/svg"><path d="m27.95861 10.85182a1.04589 1.04589 0 0 0 -.85245-.70689l-8.38477-1.17816-3.829-7.42933a1.09546 1.09546 0 0 0 -1.49529-.3188 1.2133 1.2133 0 0 0 -.37731.3188l-3.74525 7.41547-8.38478 1.17816a1.0547 1.0547 0 0 0 -.8804 1.17816 1.07837 1.07837 0 0 0 .32142.60987l6.051 5.72446-1.39745 8.08079a1.0403 1.0403 0 0 0 .84878 1.20524l.00367.00064a.97117.97117 0 0 0 .65681-.097l7.4904-3.82555 7.50437 3.82555a1.05232 1.05232 0 0 0 1.39746-.44354.99076.99076 0 0 0 .09783-.66531l-1.39747-8.08079 6.051-5.72446a1.02052 1.02052 0 0 0 .32143-1.06731zm-8.18913 5.68289a1.06189 1.06189 0 0 0 -.30744.92866l1.15989 6.57-6.19075-3.09093a1.06983 1.06983 0 0 0 -.96425 0l-6.10693 3.0909 1.1599-6.57a1.02058 1.02058 0 0 0 -.30744-.92866l-4.89111-4.6433 6.79165-.95638a1.01978 1.01978 0 0 0 .78258-.55443l3.08839-6.071 3.06044 6.01554a1.01974 1.01974 0 0 0 .78258.55442l6.79167.95639z" fill="#b1c1c9"/></svg>