<svg viewBox="0 0 28 28" xmlns="http://www.w3.org/2000/svg"><path d="m26.9397 13.95752h-1.95735l-3.39935-10.04112a1.049 1.049 0 0 0 -1.32262-.671l-8.50317 2.68115-3.83807-2.55273a1.05927 1.05927 0 0 0 -1.58214.51635l-3.69729 10.06735h-1.57941a1.06031 1.06031 0 0 0 0 2.12061h1.38785a5.71958 5.71958 0 1 0 10.46463 4.168h2.06262a5.72282 5.72282 0 1 0 10.46772-4.168h1.49658a1.06031 1.06031 0 0 0 0-2.12061zm-14.76831 2.1213h3.5485a5.73032 5.73032 0 0 0 -.77349 2.04674h-2.00394a5.7319 5.7319 0 0 0 -.77107-2.04674zm-4.30748-10.19506 3.14225 2.08885a1.05661 1.05661 0 0 0 .90568.12839l7.99645-2.521 2.83576 8.3775h-17.84498zm-.55638 16.80331a3.58965 3.58965 0 0 1 -1.95873-6.60756l3.9109-.00035a3.58715 3.58715 0 0 1 -1.95217 6.60791zm13.27173 0a3.59046 3.59046 0 0 1 -1.95769-6.6086l3.90848-.00034a3.58724 3.58724 0 0 1 -1.95079 6.60894z" fill="#e85e26"/></svg>