<svg xmlns="http://www.w3.org/2000/svg" width="50.87" height="38.152" viewBox="0 0 50.87 38.152">
  <g id="counter-employees" transform="translate(0 -2.5)">
    <path id="Path_346" data-name="Path 346" d="M50.386,19.321s-1.221-3.569-7.834-3.569h-6a1.429,1.429,0,0,0-.229-.776c-.229-.361-1.7-4.886-11.013-4.886S14.371,15.03,14.371,15.03s-.153.516-.229.8H8.215C1.6,15.832.432,19.372.432,19.372A10.32,10.32,0,0,0,0,22.086v5.428a1.41,1.41,0,0,0,1.4,1.422H49.445a1.436,1.436,0,0,0,1.424-1.422V22.086A10,10,0,0,0,50.386,19.321ZM12.717,25.059H3.79V22.086a6.332,6.332,0,0,1,.2-1.292c.254-.285,1.272-1.165,4.222-1.165h4.5Zm20.348,0H17.55V18.828a10.96,10.96,0,0,1,.382-2.584c.229-.361,1.806-2.429,7.376-2.429s7.249,2.093,7.478,2.584a10.627,10.627,0,0,1,.382,2.429Zm13.887,0h-8.8v-5.43h4.426c3.027,0,4.07.905,4.324,1.19a8.827,8.827,0,0,1,.178,1.267Z" transform="translate(0 11.717)" fill="#fff"/>
    <path id="Path_347" data-name="Path 347" d="M14.955,6.376a4.421,4.421,0,1,1-4.324,4.446v-.051A4.385,4.385,0,0,1,14.955,6.376Zm0-3.876A8.232,8.232,0,0,0,6.79,10.8a8.166,8.166,0,1,0,16.329,0v-.025A8.231,8.231,0,0,0,14.955,2.5Z" transform="translate(10.48)" fill="#fff"/>
    <path id="Path_348" data-name="Path 348" d="M20.84,9.839a2.947,2.947,0,1,1-2.9,2.945v-.025A2.919,2.919,0,0,1,20.84,9.839Zm0-3.879a6.825,6.825,0,1,0,6.689,6.85v-.051A6.771,6.771,0,0,0,20.84,5.935Z" transform="translate(21.763 5.302)" fill="#fff"/>
    <path id="Path_349" data-name="Path 349" d="M7.325,9.839a2.947,2.947,0,1,1-2.9,2.945v-.025A2.919,2.919,0,0,1,7.325,9.839Zm0-3.879a6.825,6.825,0,0,0,0,13.648,6.77,6.77,0,0,0,6.715-6.824v-.025A6.745,6.745,0,0,0,7.376,5.935H7.325Z" transform="translate(0.942 5.302)" fill="#fff"/>
  </g>
</svg>
