<svg xmlns="http://www.w3.org/2000/svg" width="51.109" height="47.278" viewBox="0 0 51.109 47.278">
  <path id="counter-managers" d="M51.033,18.641a1.905,1.905,0,0,0-1.554-1.291L34.172,15.2,27.183,1.64a2,2,0,0,0-2.729-.583,2.252,2.252,0,0,0-.687.583L16.93,15.176l-15.3,2.149A1.925,1.925,0,0,0,.017,19.477,1.969,1.969,0,0,0,.6,20.591l11.045,10.45L9.1,45.791a1.9,1.9,0,0,0,1.551,2.2l.005,0a1.773,1.773,0,0,0,1.2-.176l13.675-6.984,13.7,6.984a1.923,1.923,0,0,0,2.55-.81,1.807,1.807,0,0,0,.179-1.214L39.4,31.041l11.045-10.45A1.863,1.863,0,0,0,51.033,18.641ZM36.086,29.017a1.937,1.937,0,0,0-.562,1.694L37.642,42.7l-11.3-5.643a1.959,1.959,0,0,0-1.761,0L13.434,42.7l2.119-11.993a1.862,1.862,0,0,0-.562-1.694L6.061,20.54l12.4-1.745a1.864,1.864,0,0,0,1.429-1.012L25.527,6.7l5.586,10.981a1.86,1.86,0,0,0,1.429,1.012l12.4,1.745Z" transform="translate(0 -0.75)" fill="#fff"/>
</svg>
