<svg xmlns="http://www.w3.org/2000/svg" width="48.817" height="50.066" viewBox="0 0 48.817 50.066">
  <g id="counter-hours" transform="translate(-82.529)">
    <g id="Group_133" data-name="Group 133" transform="translate(82.529)">
      <path id="Path_352" data-name="Path 352" d="M131.156,17.015,127,9.808a1.43,1.43,0,0,0-1.965-.551l-2.934,1.7a1.1,1.1,0,0,0-.273.2,22.758,22.758,0,0,0-6.989-4.979,2.359,2.359,0,0,0,.125-.751V2.078A2.062,2.062,0,0,0,112.924,0H97.852a2.067,2.067,0,0,0-2.065,2.078V5.43a1.829,1.829,0,0,0,.15.751,22.938,22.938,0,1,0,32.283,20.893,22.356,22.356,0,0,0-.869-6.231v-.025a1.467,1.467,0,0,0,.348-.125l2.909-1.677A1.483,1.483,0,0,0,131.156,17.015Zm-25.769,29.3a19.228,19.228,0,1,1,19.1-19.24A19.206,19.206,0,0,1,105.387,46.314Z" transform="translate(-82.529)" fill="#fff"/>
    </g>
    <g id="Group_134" data-name="Group 134" transform="translate(100.413 13.961)">
      <path id="Path_353" data-name="Path 353" d="M99.621,19.663a4.974,4.974,0,1,1-6.839-4.654V7.454a1.865,1.865,0,1,1,3.73,0v7.555A5.041,5.041,0,0,1,99.621,19.663Z" transform="translate(-89.673 -5.577)" fill="#fff"/>
    </g>
  </g>
</svg>
