<svg xmlns="http://www.w3.org/2000/svg" width="40.612" height="50.272" viewBox="0 0 40.612 50.272">
  <g id="counter-office" transform="translate(-2264.535 228.935)">
    <path id="Path_345" data-name="Path 345" d="M2300.115-228.935h-30.547a5.047,5.047,0,0,0-5.032,5.032V-183.7a5.047,5.047,0,0,0,5.032,5.032h30.547a5.049,5.049,0,0,0,5.033-5.032V-223.9A5.049,5.049,0,0,0,2300.115-228.935Zm1.258,45.24a1.262,1.262,0,0,1-1.258,1.258h-12.1v-6.24h-6.291v6.24h-12.153a1.26,1.26,0,0,1-1.258-1.258V-223.9a1.277,1.277,0,0,1,1.258-1.258h30.547a1.279,1.279,0,0,1,1.258,1.258Z" transform="translate(0 0)" fill="#fff"/>
    <rect id="Rectangle_123" data-name="Rectangle 123" width="6.291" height="6.29" transform="translate(2272.626 -219.349)" fill="#fff"/>
    <rect id="Rectangle_124" data-name="Rectangle 124" width="6.291" height="6.29" transform="translate(2290.816 -219.297)" fill="#fff"/>
    <rect id="Rectangle_125" data-name="Rectangle 125" width="6.291" height="6.29" transform="translate(2281.721 -219.349)" fill="#fff"/>
    <rect id="Rectangle_126" data-name="Rectangle 126" width="6.291" height="6.29" transform="translate(2272.626 -209.389)" fill="#fff"/>
    <rect id="Rectangle_127" data-name="Rectangle 127" width="6.291" height="6.29" transform="translate(2290.816 -209.337)" fill="#fff"/>
    <rect id="Rectangle_128" data-name="Rectangle 128" width="6.291" height="6.29" transform="translate(2281.721 -209.389)" fill="#fff"/>
    <rect id="Rectangle_129" data-name="Rectangle 129" width="6.291" height="6.29" transform="translate(2272.626 -199.797)" fill="#fff"/>
    <rect id="Rectangle_130" data-name="Rectangle 130" width="6.291" height="6.29" transform="translate(2290.816 -199.744)" fill="#fff"/>
    <rect id="Rectangle_131" data-name="Rectangle 131" width="6.291" height="6.29" transform="translate(2281.721 -199.797)" fill="#fff"/>
  </g>
</svg>
