<svg xmlns="http://www.w3.org/2000/svg" width="49.975" height="49.975" viewBox="0 0 49.975 49.975">
  <g id="counter-growth" transform="translate(82.279 -67.017)">
    <path id="Path_350" data-name="Path 350" d="M-32.3,111.23a1.9,1.9,0,0,1-1.889,1.887H-74.63v1.989a1.9,1.9,0,0,1-1.887,1.887,1.9,1.9,0,0,1-1.889-1.887v-1.989h-1.987a1.9,1.9,0,0,1-1.887-1.887,1.9,1.9,0,0,1,1.887-1.887h1.987V68.9a1.9,1.9,0,0,1,1.889-1.887A1.9,1.9,0,0,1-74.63,68.9V91.8l7.649-6.644a1.881,1.881,0,0,1,2.594.125l8.3,8.683,20.03-14.345a1.912,1.912,0,0,1,2.641.43,1.91,1.91,0,0,1-.427,2.641L-55.2,97.994a2,2,0,0,1-1.107.352,1.87,1.87,0,0,1-1.359-.58l-8.2-8.581-8.758,7.6v12.556h40.437A1.9,1.9,0,0,1-32.3,111.23Z" transform="translate(0 0)" fill="#fff"/>
  </g>
</svg>
