<svg xmlns="http://www.w3.org/2000/svg" width="31.626" height="31.623" viewBox="0 0 31.626 31.623">
  <path id="icon-restart" d="M31.625,15.812A15.841,15.841,0,0,1,0,17.14v-.032a1.167,1.167,0,0,1,1.075-1.249,1.2,1.2,0,0,1,1.281,1.075A13.409,13.409,0,1,0,8.809,4.253L10.39,5.866a.862.862,0,0,1,.316.553.918.918,0,0,1-.759,1.028L3.323,9.218c-.917.253-1.455-.3-1.217-1.217L3.876,1.391c.253-.917,1-1.123,1.66-.459l1.629,1.66A15.429,15.429,0,0,1,15.814,0,15.817,15.817,0,0,1,31.625,15.812Z" transform="translate(0.001 0)" fill="#cfd9de"/>
</svg>
