<svg xmlns="http://www.w3.org/2000/svg" width="11.713" height="20.914" viewBox="0 0 11.713 20.914">
  <g id="icon-right-arrow-white-thick" transform="translate(1783.925 -805.297)">
    <g id="Group_765" data-name="Group 765" transform="translate(-1783.925 805.297)">
      <path id="Path_1038" data-name="Path 1038" d="M-1789.039,803.479a1.66,1.66,0,0,1,.519-1.209,1.671,1.671,0,0,1,2.362.06l8.375,8.821a1.675,1.675,0,0,1,0,2.3l-8.371,8.756a1.675,1.675,0,0,1-2.362.051,1.673,1.673,0,0,1-.051-2.362l7.269-7.6-7.278-7.665A1.663,1.663,0,0,1-1789.039,803.479Z" transform="translate(1789.039 -801.81)" fill="#fff"/>
    </g>
  </g>
</svg>
