<svg xmlns="http://www.w3.org/2000/svg" width="12" height="12" viewBox="0 0 12 12">
  <g id="Group_82" data-name="Group 82" transform="translate(-470.324 -720.775)">
    <path id="Path_10" data-name="Path 10" d="M476.553,720.781c-.072-.006-.15-.006-.229-.006s-.156,0-.228.006a6,6,0,0,0,0,11.988c.072.006.15.006.228.006s.157,0,.229-.006a6,6,0,0,0,0-11.988Zm-2.785,1.59a7.838,7.838,0,0,0-1.158,3.954h-1.367A5.106,5.106,0,0,1,473.768,722.371Zm-2.525,4.854h1.367a7.841,7.841,0,0,0,1.158,3.96A5.1,5.1,0,0,1,471.243,727.225Zm4.631,4.59c-1.242-.378-2.243-2.292-2.364-4.59h2.364Zm0-5.49H473.51c.121-2.3,1.122-4.212,2.364-4.59Zm5.532,0h-1.368a7.836,7.836,0,0,0-1.157-3.96A5.1,5.1,0,0,1,481.406,726.325Zm-4.632-4.59c1.243.378,2.244,2.292,2.364,4.59h-2.364Zm0,10.08v-4.59h2.364C479.018,729.523,478.017,731.437,476.774,731.815Zm2.107-.63a7.835,7.835,0,0,0,1.157-3.96h1.368A5.1,5.1,0,0,1,478.881,731.185Z" transform="translate(0)" fill="#fff"/>
  </g>
</svg>
