<svg id="Group_16" data-name="Group 16" xmlns="http://www.w3.org/2000/svg" width="16.017" height="16.017" viewBox="0 0 16.017 16.017">
  <path id="Path_19" data-name="Path 19" d="M8.008,1.2A6.807,6.807,0,1,1,1.2,8.008,6.815,6.815,0,0,1,8.008,1.2m0-1.2a8.008,8.008,0,1,0,8.008,8.008A8.008,8.008,0,0,0,8.008,0Z" fill="#fff"/>
  <g id="Group_15" data-name="Group 15" transform="translate(5.57 4.435)">
    <path id="Path_20" data-name="Path 20" d="M7.757,12.685a.765.765,0,0,1-.388-.1.938.938,0,0,1-.414-.859V6.5a.938.938,0,0,1,.414-.859.947.947,0,0,1,.959.065l4.523,2.61a.94.94,0,0,1,.535.8.94.94,0,0,1-.534.8L8.331,12.516A1.179,1.179,0,0,1,7.757,12.685Z" transform="translate(-6.955 -5.538)" fill="#fff"/>
  </g>
</svg>
