<svg id="Icons" xmlns="http://www.w3.org/2000/svg" viewBox="0 0 20 20"><title>white</title><path d="M18.00493,5.09749l-1.35081-1.2994L14.2426,1.50925,12.77173.09,12.66161.01H3.92625A2.0529,2.0529,0,0,0,1.875,2.059V18.001A2.056,2.056,0,0,0,3.92625,20h12.1475A2.06964,2.06964,0,0,0,18.125,18.001V5.29734A.81559.81559,0,0,0,18.00493,5.09749ZM13.06188,2.52876l2.40151,2.30885H13.06188ZM16.62408,18.001a.56866.56866,0,0,1-.55033.54971H3.92625a.56866.56866,0,0,1-.55033-.54971V2.059a.55492.55492,0,0,1,.55033-.54972H11.561v4.078a.75555.75555,0,0,0,.75046.74963h4.31266Z" fill="#fff"/><path d="M12.39149.01h-.15012A.17041.17041,0,0,1,12.31142,0,.22056.22056,0,0,1,12.39149.01Z" fill="#fff"/><path d="M10.64053,9.74537h-4.813a.74963.74963,0,1,1,0-1.49925h4.813a.74963.74963,0,1,1,0,1.49925Z" fill="#fff"/><path d="M14.17249,13.22312h-8.345a.74963.74963,0,1,1,0-1.49925h8.345a.74963.74963,0,1,1,0,1.49925Z" fill="#fff"/><path d="M14.17249,16.71161h-8.345a.74963.74963,0,1,1,0-1.49925h8.345a.74963.74963,0,1,1,0,1.49925Z" fill="#fff"/></svg>