<svg xmlns="http://www.w3.org/2000/svg" width="58.872" height="48.055" viewBox="0 0 58.872 48.055">
  <path id="icon-quote-dark" d="M306.023,3022a2.688,2.688,0,0,1-3.02-2.847c0-.066,0-.113,0-.136v-13.586a41.2,41.2,0,0,1,3.341-16.927c1.963-4.4,5.281-8.823,9.582-13.6,1.848-2.053,4.036-.189,4.195-.061,1.531,1.228,3.527,2.828,4.99,4.094a2.274,2.274,0,0,1,.823,1.781,4.745,4.745,0,0,1-.882,2.46c-1.437,1.967-2.939,3.56-4,5.184a25.712,25.712,0,0,0-3.27,7.072h9.2c2.773,0,2.887,2.111,2.887,2.475,0,.032,0,.051,0,.053v21.033s0,.027,0,.069a2.757,2.757,0,0,1-2.9,2.938Zm-32,0a2.688,2.688,0,0,1-3.02-2.847c0-.066,0-.113,0-.136v-13.586a41.181,41.181,0,0,1,3.342-16.927c1.962-4.4,5.281-8.823,9.582-13.6,1.847-2.053,4.035-.189,4.194-.061,1.532,1.228,3.528,2.828,4.99,4.094a2.274,2.274,0,0,1,.824,1.781,4.743,4.743,0,0,1-.881,2.46c-1.438,1.967-2.939,3.56-4,5.184a25.66,25.66,0,0,0-3.27,7.072h9.2c2.773,0,2.886,2.111,2.886,2.475,0,.032,0,.051,0,.053v21.033s0,.027,0,.069a2.757,2.757,0,0,1-2.9,2.938Z" transform="translate(-271.002 -2973.942)" fill="#212c31" opacity="0.4"/>
</svg>
