<svg enable-background="new 0 0 60 60" viewBox="0 0 60 60" xmlns="http://www.w3.org/2000/svg"><path d="m-96.8-2867.4c.7 0 1.3.6 1.3 1.3v36.5c0 .7-.6 1.3-1.3 1.3h-27.9c-.7 0-1.3-.6-1.3-1.3v-36.5c0-.7.6-1.3 1.3-1.3zm0-3.4h-27.9c-2.6 0-4.7 2.1-4.7 4.7v36.5c0 2.6 2.1 4.7 4.7 4.7h27.9c2.6 0 4.7-2.1 4.7-4.7v-36.5c0-2.6-2.1-4.7-4.7-4.7z" fill="#dee5e8" transform="translate(130 2880.658)"/><g transform="translate(135.972 2875)"><path d="m-116.5-2870.8h8c7.2 0 12.9 5.8 12.9 12.9v16.6c0 7.2-5.8 12.9-12.9 12.9h-8c-7.2 0-12.9-5.8-12.9-12.9v-16.6c0-7.1 5.8-12.9 12.9-12.9z" fill="#fff" transform="translate(1.723 1.724)"/><path d="m-96.8-2867.4c.7 0 1.3.6 1.3 1.3v36.5c0 .7-.6 1.3-1.3 1.3h-27.9c-.7 0-1.3-.6-1.3-1.3v-36.5c0-.7.6-1.3 1.3-1.3zm0-3.4h-27.9c-2.6 0-4.7 2.1-4.7 4.7v36.5c0 2.6 2.1 4.7 4.7 4.7h27.9c2.6 0 4.7-2.1 4.7-4.7v-36.5c0-2.6-2.1-4.7-4.7-4.7z" fill="#3b454a"/></g><path d="m8.874 6.413h33.4v8.3h-33.4z" fill="#21b3cd"/><path d="m-96.8-2867.4c.7 0 1.3.6 1.3 1.3v36.5c0 .7-.6 1.3-1.3 1.3h-27.9c-.7 0-1.3-.6-1.3-1.3v-36.5c0-.7.6-1.3 1.3-1.3zm0-3.4h-27.9c-2.6 0-4.7 2.1-4.7 4.7v36.5c0 2.6 2.1 4.7 4.7 4.7h27.9c2.6 0 4.7-2.1 4.7-4.7v-36.5c0-2.6-2.1-4.7-4.7-4.7z" fill="#3b454a" transform="translate(135.972 2875)"/><g fill="#dee5e8"><path d="m-111-2867.4h-16.6c-1 0-1.7-.8-1.7-1.7s.8-1.7 1.7-1.7h16.6c1 0 1.7.8 1.7 1.7s-.8 1.7-1.7 1.7z" transform="translate(147.744 2903.337)"/><path d="m-117.3-2867.4h-10.4c-1 0-1.7-.8-1.7-1.7s.8-1.7 1.7-1.7h10.4c1 0 1.7.8 1.7 1.7s-.8 1.7-1.7 1.7z" transform="translate(147.744 2896.291)"/><path d="m-117.3-2867.4h-10.4c-1 0-1.7-.8-1.7-1.7s.8-1.7 1.7-1.7h10.4c1 0 1.7.8 1.7 1.7s-.8 1.7-1.7 1.7z" transform="translate(147.744 2889.245)"/></g><circle cx="34.609" cy="22.407" fill="#fff" r="11"/><path d="m-111-2867.4h-16.7c-1 0-1.7-.8-1.7-1.7s.8-1.7 1.7-1.7h16.7c1 0 1.7.8 1.7 1.7s-.8 1.7-1.7 1.7z" fill="#dee5e8" transform="translate(147.744 2910.381)"/><path d="m-126.4-2867.4h-1.2c-1 0-1.7-.8-1.7-1.7s.8-1.7 1.7-1.7h1.2c1 0 1.7.8 1.7 1.7s-.8 1.7-1.7 1.7z" fill="#1cbb98" transform="translate(141.627 2896.291)"/><path d="m-126.4-2867.4h-1.2c-1 0-1.7-.8-1.7-1.7s.8-1.7 1.7-1.7h1.2c1 0 1.7.8 1.7 1.7s-.8 1.7-1.7 1.7z" fill="#1cbb98" transform="translate(141.627 2889.245)"/><path d="m-126.4-2867.4h-1.2c-1 0-1.7-.8-1.7-1.7s.8-1.7 1.7-1.7h1.2c1 0 1.7.8 1.7 1.7s-.8 1.7-1.7 1.7z" fill="#dee5e8" transform="translate(141.627 2910.437)"/><path d="m-126.4-2867.4h-1.2c-1 0-1.7-.8-1.7-1.7s.8-1.7 1.7-1.7h1.2c1 0 1.7.8 1.7 1.7s-.8 1.7-1.7 1.7z" fill="#dee5e8" transform="translate(141.627 2903.391)"/><g transform="translate(150.085 2879.417)"><path d="m-95.1-2835.8c-.2 0-.4-.1-.6-.2l-12.7-12.1-.8.6c-2.2 1.6-4.8 2.4-7.5 2.4-7.1 0-12.8-5.8-12.8-12.8 0-7.1 5.8-12.8 12.8-12.8 7.1 0 12.8 5.7 12.8 12.8 0 2.8-.9 5.6-2.7 7.8l-.6.8 12.5 12.1c.4.3.4.9 0 1.2.1.1-.1.2-.4.2zm-21.5-33.3c-6.1 0-11.1 5-11.1 11.1s5 11.1 11.1 11.1 11.1-5 11.1-11.1c0-6.1-5-11.1-11.1-11.1z" fill="#dee5e8" transform="translate(1.149 1.148)"/><path d="m-115.4-2870.8c-7.7 0-14 6.3-14 14s6.3 14 14 14c2.9 0 5.8-.9 8.2-2.6l12 11.4c.4.4.9.6 1.4.6s1.1-.2 1.5-.6c.8-.8.7-2.1-.1-2.9l-11.8-11.4c1.9-2.4 2.9-5.4 2.9-8.5-.1-7.8-6.4-14-14.1-14zm0 23.9c-5.5 0-9.9-4.5-9.9-10s4.5-9.9 10-9.9 9.9 4.4 9.9 9.9c-.1 5.6-4.5 10-10 10z" fill="#3b454a"/></g><path d="m-127.4-2868.8c1.1-1.1 3-1.1 4.1 0l6.5 6.5c1.1 1.1 1.1 3 0 4.1-1.1 1.1-3 1.1-4.1 0l-6.5-6.5c-1.1-1.1-1.1-2.9 0-4.1z" fill="#3b454a" transform="translate(175.314 2904.448)"/><path d="m-129.2-2870.8c-.1.1-.2.3-.2.4" fill="none" transform="translate(163.485 2895.224)"/><path d="m-129.4-2870.8h.3.2" fill="none" transform="translate(164.918 2898.051)"/><path d="m-129.2-2870.4c-.1-.2-.1-.3-.2-.4" fill="none" transform="translate(166.614 2895.184)"/><path d="m-124.6-2862.4c-2.6 0-4.8-2.1-4.8-4.8 0-1.1.4-2.1 1-3 .6-.8 1.7-.9 2.4-.3.8.6.9 1.7.3 2.4-.2.2-.3.5-.3.8 0 .7.6 1.3 1.3 1.3s1.4-.6 1.4-1.3c0-.3-.1-.6-.3-.8-.6-.7-.5-1.8.3-2.4.7-.6 1.8-.5 2.4.2.7.8 1.1 1.9 1.1 3 0 2.8-2.2 4.9-4.8 4.9z" fill="#e55f26" transform="translate(159.442 2886.087)"/><g fill="#e55f26" transform="translate(156.224 2890.615)"><path d="m-124.9-2861.3c-.1 0-.1 0-.2 0-1.1-.1-2.1-.6-2.9-1.4-1.9-1.9-1.9-4.9 0-6.8s4.9-1.9 6.8 0c.8.8 1.3 1.8 1.4 2.9.1.9-.6 1.8-1.5 1.9s-1.8-.5-1.9-1.5c0 0 0 0 0-.1 0-.3-.2-.6-.4-.8-.5-.6-1.4-.6-1.9-.1-.6.5-.6 1.4-.1 1.9 0 0 .1.1.1.1.2.2.5.3.8.4.9.1 1.6.9 1.5 1.9s-.8 1.6-1.7 1.6z" transform="translate(6.456 .001)"/><path d="m-124.3-2861.2c-1 0-1.7-.8-1.7-1.7s.7-1.6 1.5-1.7c.3 0 .6-.2.8-.4.5-.5.5-1.4 0-1.9s-1.3-.5-1.9 0c-.2.2-.3.5-.4.8-.1.9-.9 1.6-1.8 1.5 0 0 0 0-.1 0-.9-.1-1.6-1-1.5-1.9.1-1.1.6-2.1 1.4-2.9 1.9-1.9 4.9-1.9 6.8 0s1.9 4.9 0 6.8c-.8.8-1.8 1.2-2.8 1.4-.2 0-.2 0-.3 0z"/></g></svg>