<svg enable-background="new 0 0 60 60" viewBox="0 0 60 60" xmlns="http://www.w3.org/2000/svg"><g transform="translate(13.414)"><path d="m18.2 28.7c-1.6-1-3.4-1.5-5.3-1.6h-12.3c-.3 0-.6-.3-.6-.6v-11.1c0-.3.3-.6.6-.6h12.3c1.9-.1 3.7-.6 5.3-1.6l7.8-5v25.6z" fill="#dee5e8" transform="translate(1.755 2.292)"/><path d="m26 13.7v19.2l-5.1-3.4c-1.9-1.1-4-1.8-6.2-1.9h-11.2v-8.7h11.2c2.2-.1 4.3-.7 6.2-1.9zm2.5-5.5c-.3 0-.7.1-.9.3l-8.6 5.6c-1.3.8-2.8 1.2-4.3 1.3h-12.4c-1.3 0-2.3 1-2.3 2.3v11.1c0 1.3 1 2.3 2.3 2.3h12.3c1.5.1 3 .5 4.3 1.3l8.6 5.6c.3.2.6.3.9.3.6 0 1-.5 1-1.4v-27.3c.1-.9-.3-1.4-.9-1.4z" fill="#3b454a"/></g><g transform="translate(21.016 20.083)"><path d="m1.753 22.955v-13" fill="none"/><path d="m1.8 24.7c-1 0-1.8-.8-1.8-1.8v-13c0-1 .8-1.8 1.8-1.8s1.8.8 1.8 1.8v13c-.1 1-.9 1.8-1.8 1.8z" fill="#3b454a"/></g><g transform="translate(39.505 8.599)"><path d="m5.4 12.9c0 2.6-2.8 4.8-5.4 4.8v-9.5c2.6 0 5.4 2.1 5.4 4.7z" fill="#ffd349" transform="translate(1.754 1.754)"/><path d="m1.8 21.2h-1.8v-13h1.8c3.4 0 7.1 2.7 7.1 6.5s-3.8 6.5-7.1 6.5zm1.7-9.1v5.1c1.4-.4 2.2-1.9 1.8-3.3-.3-.8-.9-1.5-1.8-1.8z" fill="#3b454a"/></g><g transform="translate(50.348 13.354)"><path d="m1.755 9.953h6.1" fill="none"/><path d="m7.9 11.7h-6.1c-1 0-1.8-.8-1.8-1.8s.8-1.8 1.8-1.8h6.1c1 0 1.8.8 1.8 1.8s-.8 1.8-1.8 1.8z" fill="#e85e26"/></g><g transform="translate(47.739 20.775)"><path d="m1.755 9.955 4.3 4.3" fill="none"/><path d="m6.1 16c-.5 0-.9-.2-1.2-.5l-4.3-4.3c-.7-.7-.7-1.8 0-2.5.6-.7 1.7-.7 2.4 0l4.3 4.3c.7.7.7 1.8 0 2.5-.3.3-.7.5-1.2.5z" fill="#e85e26"/></g><g transform="translate(47.739 2.08)"><path d="m6.055 9.954-4.3 4.3" fill="none"/><path d="m1.8 16c-1 0-1.8-.8-1.8-1.8 0-.5.2-.9.5-1.2l4.3-4.3c.8-.7 1.9-.7 2.5 0 .7.7.7 1.7 0 2.4l-4.3 4.4c-.3.3-.8.5-1.2.5z" fill="#e85e26"/></g><path d="m2.9 8.2c1.6 0 2.9 1.3 2.9 2.9v6.3c0 1.6-1.3 2.9-2.9 2.9-1.6 0-2.9-1.3-2.9-2.9v-6.3c0-1.6 1.3-2.9 2.9-2.9z" fill="#3b454a" transform="translate(19.836 29.767)"/><g transform="translate(0 22.096)"><path d="m9 26.2c-5 0-9-4-9-9s4-9 9-9 9 4 9 9c.1 5-4 9-9 9z" fill="#edf1f2" transform="translate(1.755 1.755)"/><path d="m10.8 11.7c4 0 7.3 3.3 7.3 7.3s-3.3 7.3-7.3 7.3-7.3-3.3-7.3-7.3c0-4.1 3.3-7.3 7.3-7.3zm0-3.5c-6 0-10.8 4.8-10.8 10.8s4.8 10.8 10.8 10.8 10.8-4.9 10.8-10.8c0-6-4.9-10.8-10.8-10.8z" fill="#cfd9de"/></g><path d="m1.8 16.6c-1 0-1.8-.8-1.8-1.8v-4.9c0-1 .8-1.8 1.8-1.8h4.9c1 0 1.8.8 1.8 1.8s-.8 1.8-1.8 1.8h-3.2v3.1c0 1-.8 1.8-1.7 1.8z" fill="#e85e26" transform="translate(2.892 12.662)"/><path d="m5.7 14c-2.5 0-5.7 0-5.7 0v-3.5h8.5c2.4 0 4.8-.7 6.8-2 .8-.6 1.9-.4 2.5.4s.4 1.9-.4 2.5c-2.6 1.7-5.7 2.7-8.9 2.7-.4-.1-1.5-.1-2.8-.1z" fill="#fcfdfd" transform="translate(20.025 9.753)"/><path d="m9.8 11.8c0 .8-.6 1.4-1.4 1.4-.4 0-.8-.2-1-.5l-.9.3c-.1 1-.9 1.7-1.9 1.7-.1 0-.1 0-.2 0l-.4.7c.1.2.2.5.2.8 0 .8-.6 1.4-1.4 1.4s-1.4-.6-1.4-1.4.6-1.4 1.4-1.4l.4-.7c-.3-.4-.5-.8-.5-1.3 0-.3.1-.5.2-.8l-.7-.7c-.2.1-.4.1-.6.1-.9 0-1.6-.7-1.6-1.6s.7-1.6 1.6-1.6 1.6.7 1.6 1.6c0 .2 0 .3-.1.5l.8.7c.2-.1.5-.2.8-.2.6 0 1.2.3 1.6.8l.7-.2c.2-.8 1-1.2 1.7-1 .6.2 1.1.8 1.1 1.4z" fill="#21b3cd" transform="translate(6.435 28.393)"/></svg>