<svg enable-background="new 0 0 60 60" viewBox="0 0 60 60" xmlns="http://www.w3.org/2000/svg"><path d="m23.303 39.775h7.8v7.8h-7.8z" fill="#e85e26"/><path d="m31.611 23.722h7.8v7.8h-7.8z" fill="#21b3cd"/><path d="m14.974 22.679h33v24.3h-33z" fill="#fff"/><path d="m26.1 1.3h6.5v15.9h-23.9l-.4 7.3-8.3-1.1v-14.6h24.8v-6.1z" fill="#edf1f2" transform="translate(14.731 23.173)"/><path d="m24.135 40.802h6.7v5.8h-6.7z" fill="#1cbb98"/><path d="m32.377 24.983h6.7v5.8h-6.7z" fill="#21b3cd"/><path d="m14.974 14.465h33v9.4h-33z" fill="#fff"/><g fill="#dee5e8" transform="translate(13.911 21.117)"><path d="m34 4.3h-32.5c-.8 0-1.5-.7-1.5-1.5s.7-1.5 1.5-1.5h32.5c.8 0 1.5.7 1.5 1.6-.1.8-.7 1.4-1.5 1.4z"/><path d="m34 4.3h-32.5c-.8 0-1.5-.7-1.5-1.5s.7-1.5 1.5-1.5h32.5c.8 0 1.5.7 1.5 1.6-.1.8-.7 1.4-1.5 1.4z" transform="translate(0 8.027)"/><path d="m34 4.3h-32.5c-.8 0-1.5-.6-1.5-1.5s.7-1.5 1.5-1.5h32.5c.8 0 1.5.7 1.5 1.5s-.7 1.5-1.5 1.5z" transform="translate(0 16.054)"/><path d="m1.5 28c-.8 0-1.5-.6-1.5-1.5v-23.7c0-.8.7-1.5 1.5-1.5s1.5.7 1.5 1.5v23.7c0 .9-.7 1.5-1.5 1.5z" transform="translate(8.12)"/><path d="m1.5 28c-.8 0-1.5-.6-1.5-1.5v-23.7c0-.8.7-1.5 1.6-1.4.8 0 1.4.6 1.4 1.4v23.7c0 .9-.7 1.5-1.5 1.5z" transform="translate(16.316)"/><path d="m1.5 28c-.8 0-1.5-.6-1.5-1.5v-23.7c0-.8.7-1.5 1.6-1.4.8 0 1.4.6 1.4 1.4v23.7c0 .9-.7 1.5-1.5 1.5z" transform="translate(24.239)"/></g><g fill="#3b454a"><path d="m32.5 4.3c.4 0 .8.4.8.8v29c0 .4-.4.8-.8.8h-28.7c-.4.1-.8-.3-.8-.7v-29c0-.4.4-.8.8-.8zm0-3h-28.7c-2.1 0-3.8 1.7-3.8 3.8v29c0 2.2 1.7 3.9 3.8 3.9h28.7c2.1 0 3.8-1.7 3.8-3.8v-29c0-2.2-1.7-3.9-3.8-3.9z" transform="translate(13.455 11.25)"/><path d="m1.5 10.2c-.8 0-1.5-.7-1.5-1.5v-5.9c0-.8.7-1.5 1.5-1.5s1.5.7 1.5 1.5v5.8c0 .9-.7 1.6-1.5 1.6z" transform="translate(22.087 8.466)"/><path d="m1.5 10.2c-.8 0-1.5-.7-1.5-1.5v-5.9c0-.8.7-1.5 1.5-1.5s1.5.7 1.5 1.5v5.8c0 .9-.6 1.6-1.5 1.6z" transform="translate(30.113 8.466)"/><path d="m1.5 10.2c-.8 0-1.5-.7-1.5-1.5v-5.9c0-.8.7-1.5 1.5-1.5s1.5.7 1.5 1.5v5.8c0 .9-.7 1.6-1.5 1.6z" transform="translate(38.286 8.466)"/></g><path d="m5.7 8.6h-4.2c-.8 0-1.5-.7-1.5-1.6v-4.2c0-.8.7-1.5 1.5-1.5s1.5.7 1.5 1.5v2.7h2.7c.8 0 1.5.7 1.5 1.6 0 .8-.7 1.4-1.5 1.5z" fill="#e85e26" transform="translate(4.972 22.679)"/><path d="m5.7 8.6h-4.2c-.8 0-1.5-.7-1.5-1.6v-4.2c0-.8.7-1.5 1.5-1.5s1.5.7 1.5 1.5v2.7h2.7c.8 0 1.5.7 1.5 1.5s-.6 1.6-1.5 1.6z" fill="#e85e26" transform="translate(31.218 49.42)"/><g><circle cx="10.712" cy="12.012" fill="#edf1f2" r="9.2"/><path d="m10.7 4.3c4.2 0 7.6 3.4 7.6 7.6s-3.4 7.6-7.6 7.6-7.7-3.3-7.7-7.5 3.4-7.7 7.7-7.7m0-3c-5.9 0-10.7 4.8-10.7 10.7s4.8 10.7 10.7 10.7 10.6-4.8 10.6-10.7c0-5.9-4.7-10.7-10.6-10.7z" fill="#cfd9de"/><g fill="#21b3cd"><path d="m10.5 3s-.2-.5-1.6-.5h-1.3c0-.2-.1-.3-.1-.5 0 0-.2-.7-2.2-.7s-2.2.7-2.2.7c0 .2-.1.3-.1.5h-1.3c-1.4 0-1.5.5-1.5.5-.1.3-.2.7-.2 1v.6c0 .4.2.6.5.6h9.6c.3 0 .5-.2.5-.5v-.7c0-.3 0-.7-.1-1z" transform="translate(5.349 10.093)"/><circle cx="10.654" cy="9.127" r="1.7"/><circle cx="14.261" cy="10.63" r="1.4"/><circle cx="7.077" cy="10.63" r="1.4"/></g></g><g transform="translate(38.656 36.027)"><path d="m9.2 19.6c-5.1 0-9.2-4.1-9.2-9.2s4.1-9.2 9.2-9.2 9.2 4.1 9.2 9.2c-.1 5.1-4.2 9.2-9.2 9.2z" fill="#edf1f2" transform="translate(1.512 1.513)"/><path d="m10.7 4.3c4.2 0 7.6 3.4 7.6 7.6s-3.4 7.6-7.6 7.6c-4.3.1-7.7-3.3-7.7-7.5s3.4-7.7 7.7-7.7zm0-3c-5.9 0-10.7 4.8-10.7 10.7s4.8 10.7 10.7 10.7 10.6-4.8 10.6-10.7c0-5.9-4.7-10.7-10.6-10.7z" fill="#cfd9de"/><path d="m4.2 11.9c-.4 0-.8-.2-1.1-.4l-2.7-2.7c-.6-.6-.6-1.5 0-2.1s1.6-.6 2.2-.1l1.3 1.4 3.8-6c.4-.7 1.4-.9 2.1-.5s.9 1.4.5 2.1v.1l-4.8 7.5c-.2.4-.7.6-1.1.7-.1 0-.2 0-.2 0z" fill="#1cbb98" transform="translate(4.91 5.693)"/></g></svg>