<?xml version="1.0" encoding="utf-8"?>
<!-- Generator: Adobe Illustrator 20.1.0, SVG Export Plug-In . SVG Version: 6.00 Build 0)  -->
<svg version="1.1" id="Layer_1" xmlns="http://www.w3.org/2000/svg" xmlns:xlink="http://www.w3.org/1999/xlink" x="0px" y="0px"
	 viewBox="0 0 50 50" style="enable-background:new 0 0 50 50;" xml:space="preserve">
<style type="text/css">
	.st0{fill:#E95F26;}
</style>
<g>
	<path class="st0" d="M29.7,14.7c0-2.5-2.2-4.5-4.9-4.5c-2.7,0-4.9,2-4.9,4.5v4.5h-3.5v13.3h17.2V19.2h-3.9V14.7z M20.7,14.7
		c0-2.1,1.8-3.8,4.1-3.8c2.3,0,4.1,1.7,4.1,3.8v4.5h-8.2V14.7z M32.8,31.7H17.2v-1.6h15.6V31.7z M32.8,19.9v9.4H17.2v-9.4H32.8z"/>
	<path class="st0" d="M25,27.8c0.9,0,1.6-0.7,1.6-1.6v-2.3c0-0.9-0.7-1.6-1.6-1.6c-0.9,0-1.6,0.7-1.6,1.6v2.3
		C23.4,27.1,24.1,27.8,25,27.8z M24.2,23.9c0-0.4,0.4-0.8,0.8-0.8c0.4,0,0.8,0.4,0.8,0.8v2.3c0,0.4-0.4,0.8-0.8,0.8
		c-0.4,0-0.8-0.3-0.8-0.8V23.9z"/>
	<path class="st0" d="M48.1,1.7H1.9C0.9,1.7,0,2.6,0,3.6v35c0,1,0.9,1.9,1.9,1.9h17.4v6.1h-7.5c-0.4,0-0.8,0.4-0.8,0.8
		c0,0.4,0.4,0.8,0.8,0.8h26.4c0.4,0,0.8-0.4,0.8-0.8c0-0.4-0.4-0.8-0.8-0.8h-7.5v-6.1h17.4c1,0,1.8-0.7,1.9-1.7V3.4
		C49.9,2.5,49.1,1.7,48.1,1.7z M29.1,46.7h-8.2v-6.1h8.2V46.7z M48.4,38.7c0,0.2-0.1,0.3-0.3,0.3H1.9c-0.2,0-0.3-0.1-0.3-0.3v-35
		c0-0.2,0.1-0.3,0.3-0.3h46.2c0.2,0,0.3,0.1,0.3,0.3V38.7z"/>
</g>
</svg>
