<svg enable-background="new 0 0 30 30" viewBox="0 0 30 30" xmlns="http://www.w3.org/2000/svg"><path d="m13.24 20.75c.21.21.5.33.79.33h.12c.34-.04.64-.22.83-.51l6.03-9.45c.33-.53.17-1.22-.35-1.55-.53-.33-1.22-.17-1.55.35l-5.27 8.25-2.33-2.33c-.44-.44-1.15-.44-1.59 0-.01.01-.02.02-.03.03-.42.44-.41 1.14.03 1.56z" fill="#e85e26"/><path d="m15 0c-8.28 0-15 6.72-15 15s6.72 15 15 15 15-6.72 15-15-6.72-15-15-15zm6.02 11.12-6.03 9.45c-.18.29-.49.47-.83.51h-.12c-.3 0-.58-.12-.79-.33l-3.32-3.32c-.44-.42-.45-1.12-.03-1.56l.03-.03c.44-.44 1.15-.44 1.59 0l2.33 2.33 5.27-8.25c.33-.53 1.03-.68 1.55-.35.52.32.68 1.02.35 1.55z" fill="#fff"/></svg>