<?xml version="1.0" encoding="utf-8"?>
<!-- Generator: Adobe Illustrator 20.1.0, SVG Export Plug-In . SVG Version: 6.00 Build 0)  -->
<svg version="1.1" id="Layer_1" xmlns="http://www.w3.org/2000/svg" xmlns:xlink="http://www.w3.org/1999/xlink" x="0px" y="0px"
	 viewBox="0 0 75 75" style="enable-background:new 0 0 75 75;" xml:space="preserve">
<style type="text/css">
	.st0{fill:#E95F26;}
</style>
<g>
	<path class="st0" d="M71.2,7.8H3.8C1.7,7.8,0,9.5,0,11.6v41.5c0,2.1,1.7,3.8,3.8,3.8h22.1v7.9h-5.3c-0.7,0-1.2,0.5-1.2,1.2
		s0.5,1.2,1.2,1.2h33.7c0.7,0,1.2-0.5,1.2-1.2s-0.5-1.2-1.2-1.2H49v-7.9h22.1c2.1,0,3.8-1.7,3.8-3.8V11.6C75,9.5,73.3,7.8,71.2,7.8z
		 M28.3,64.8v-7.9h18.3v7.9H28.3z M72.6,53.1c0,0.8-0.6,1.4-1.4,1.4H3.8c-0.8,0-1.4-0.6-1.4-1.4V11.6c0-0.8,0.6-1.4,1.4-1.4h67.4
		c0.8,0,1.4,0.6,1.4,1.4V53.1z"/>
	<path class="st0" d="M50.7,29.8l-2.1-0.4c-0.2-0.7-0.5-1.4-0.8-2l1.2-1.7c0.5-0.7,0.4-1.7-0.2-2.3L47,21.6
		c-0.3-0.3-0.8-0.5-1.3-0.5c-0.4,0-0.7,0.1-1.1,0.3L43,22.6c-0.7-0.4-1.4-0.6-2.1-0.9l-0.3-2c-0.1-0.8-0.8-1.4-1.7-1.5H36
		c-0.8,0.1-1.5,0.7-1.7,1.5L34,21.8c-0.7,0.2-1.4,0.5-2,0.8l-1.7-1.2c-0.3-0.2-0.7-0.3-1.1-0.3c-0.5,0-0.9,0.2-1.3,0.5l-1.8,1.8
		c-0.6,0.6-0.7,1.6-0.2,2.3l1.2,1.7c-0.3,0.6-0.6,1.3-0.8,2l-2,0.3c-0.9,0.1-1.5,0.9-1.5,1.8v2.6c0,0.9,0.6,1.6,1.5,1.8l2.1,0.4
		c0.2,0.7,0.5,1.4,0.8,2L26,40.1c-0.5,0.7-0.4,1.7,0.2,2.3l1.8,1.8c0.3,0.3,0.8,0.5,1.3,0.5c0.4,0,0.7-0.1,1.1-0.3l1.7-1.2
		c0.6,0.3,1.3,0.6,1.9,0.8l0.3,2.1c0.1,0.9,0.9,1.5,1.8,1.5h2.6c0.9,0,1.6-0.6,1.8-1.5l0.4-2.1c0.7-0.2,1.4-0.5,2-0.8l1.7,1.2
		c0.3,0.2,0.7,0.3,1.1,0.3c0.5,0,0.9-0.2,1.3-0.5l1.8-1.8c0.6-0.6,0.7-1.6,0.2-2.3l-1.2-1.7c0.3-0.6,0.6-1.3,0.8-2l2.1-0.3
		c0.8-0.1,1.4-0.8,1.5-1.7v-2.9C52.1,30.6,51.5,29.9,50.7,29.8z M50.6,34.2L50.6,34.2c0,0.1-0.1,0.1-0.1,0.2l-2.6,0.4
		c-0.3,0.1-0.6,0.3-0.7,0.6c-0.2,0.9-0.6,1.8-1.1,2.6c-0.2,0.3-0.2,0.6,0,0.9l1.5,2.1c0,0.1,0,0.2,0,0.2L45.8,43c0,0-0.1,0-0.1,0
		c0,0-0.1,0-0.1,0l-2.1-1.5c-0.3-0.2-0.6-0.2-0.9,0c-0.8,0.5-1.7,0.8-2.6,1.1c-0.3,0.1-0.6,0.3-0.6,0.7L39,45.8
		c0,0.1-0.1,0.1-0.2,0.1h-2.6c-0.1,0-0.1-0.1-0.2-0.1l-0.4-2.6c-0.1-0.3-0.3-0.6-0.6-0.7c-0.9-0.2-1.7-0.6-2.5-1
		c-0.1-0.1-0.3-0.1-0.4-0.1c-0.2,0-0.3,0-0.5,0.2l-2.2,1.5c0,0-0.1,0-0.1,0c0,0-0.1,0-0.1,0l-1.8-1.8c-0.1-0.1-0.1-0.1,0-0.2
		l1.5-2.1c0.2-0.3,0.2-0.6,0-0.9c-0.5-0.8-0.8-1.7-1.1-2.6c-0.1-0.3-0.3-0.6-0.7-0.6l-2.6-0.4c-0.1,0-0.1-0.1-0.1-0.2v-2.6
		c0-0.1,0.1-0.1,0.1-0.2l2.6-0.4c0.3-0.1,0.6-0.3,0.7-0.6c0.2-0.9,0.6-1.8,1.1-2.6c0.2-0.3,0.1-0.6,0-0.9l-1.5-2.2
		c0-0.1,0-0.2,0-0.2l1.8-1.8c0,0,0.1,0,0.1,0c0,0,0.1,0,0.1,0l2.1,1.5c0.3,0.2,0.6,0.2,0.9,0c0.8-0.5,1.7-0.8,2.6-1.1
		c0.3-0.1,0.6-0.3,0.6-0.7L36,20c0-0.1,0.1-0.1,0.2-0.1h2.6c0.1,0,0.1,0.1,0.2,0.1l0.4,2.6c0.1,0.3,0.3,0.6,0.6,0.7
		c0.9,0.2,1.8,0.6,2.6,1.1c0.3,0.2,0.6,0.2,0.9,0l2.1-1.5c0,0,0.1,0,0.1,0c0,0,0.1,0,0.1,0l1.8,1.8c0.1,0.1,0.1,0.1,0,0.2l-1.5,2.1
		c-0.2,0.3-0.2,0.6,0,0.9c0.5,0.8,0.8,1.7,1.1,2.6c0.1,0.3,0.3,0.6,0.7,0.6l2.6,0.4c0.1,0,0.1,0.1,0.1,0.2V34.2z"/>
	<path class="st0" d="M37.5,26.5c-3.5,0-6.3,2.8-6.3,6.3c0,3.5,2.8,6.3,6.3,6.3c3.5,0,6.3-2.8,6.3-6.3C43.9,29.4,41,26.5,37.5,26.5z
		 M37.5,37.6c-2.6,0-4.7-2.1-4.7-4.7c0-2.6,2.1-4.7,4.7-4.7c2.6,0,4.7,2.1,4.7,4.7C42.2,35.5,40.1,37.6,37.5,37.6z"/>
</g>
</svg>
