<?xml version="1.0" encoding="utf-8"?>
<!-- Generator: Adobe Illustrator 22.1.0, SVG Export Plug-In . SVG Version: 6.00 Build 0)  -->
<svg version="1.1" id="Layer_1" xmlns="http://www.w3.org/2000/svg" xmlns:xlink="http://www.w3.org/1999/xlink" x="0px" y="0px"
	 viewBox="0 0 1103.5 212" style="enable-background:new 0 0 1103.5 212;" xml:space="preserve">
<style type="text/css">
	.st0{display:none;}
	.st1{display:inline;}
	.st2{fill:#333333;}
</style>
<g class="st0">
	<path class="st1" d="M8.3,35.2c0-2.3,0.8-4.3,2.4-5.9s3.5-2.4,5.9-2.4c2.3,0,4.3,0.8,5.9,2.4c1.6,1.6,2.4,3.5,2.4,5.9
		c0,2.3-0.8,4.3-2.4,5.9c-1.6,1.6-3.5,2.4-5.9,2.4c-2.3,0-4.3-0.8-5.9-2.4S8.3,37.5,8.3,35.2z M11,68.7h11v84.5H11V68.7z"/>
	<path class="st1" d="M39.6,92.5c0-1.6-0.1-3.5-0.2-5.8c-0.1-2.3-0.2-4.5-0.3-6.9c-0.1-2.3-0.2-4.5-0.3-6.5s-0.2-3.6-0.2-4.7h11
		c0.1,3.2,0.2,6.2,0.3,9.1s0.2,4.8,0.5,5.7h0.5c2.2-4.6,5.9-8.6,11-12s11.1-5,17.9-5c6.6,0,12,1,16.1,3.1s7.4,4.8,9.8,8.1
		c2.4,3.4,4,7.2,4.9,11.6s1.4,8.9,1.4,13.5V153h-11v-49.8c0-3.4-0.3-6.7-0.9-10c-0.6-3.2-1.7-6.1-3.2-8.7s-3.7-4.6-6.4-6.1
		c-2.7-1.5-6.3-2.3-10.7-2.3c-4,0-7.8,0.7-11.4,2.1s-6.7,3.5-9.3,6.4s-4.7,6.5-6.2,10.8s-2.3,9.4-2.3,15.3V153h-11
		C39.6,153,39.6,92.5,39.6,92.5z"/>
	<path class="st1" d="M132,131.6c2.3,4.5,5.7,8,10.2,10.3c4.5,2.4,9.3,3.6,14.3,3.6c2.3,0,4.6-0.4,7-1.1c2.3-0.7,4.4-1.8,6.2-3.1
		s3.3-3,4.5-4.8c1.2-1.9,1.7-4.1,1.7-6.5c0-3.9-1.3-6.8-3.8-8.8s-5.6-3.5-9.2-4.6s-7.7-2-12.1-2.8c-4.4-0.8-8.4-2-12.1-3.7
		c-3.7-1.6-6.7-3.9-9.2-6.9c-2.5-2.9-3.8-7.1-3.8-12.4c0-4.1,0.9-7.7,2.6-10.8c1.7-3,3.9-5.6,6.7-7.6c2.7-2,5.8-3.5,9.2-4.5
		s6.9-1.5,10.4-1.5c7,0,13,1.3,18,3.8c5.1,2.6,9,6.6,11.8,12.1l-9.9,5.9c-2.1-3.9-4.7-6.9-7.8-8.9s-7.2-3-12.2-3c-2,0-4,0.3-6.1,0.9
		s-4.1,1.5-5.8,2.6s-3.1,2.5-4.3,4.2s-1.7,3.7-1.7,5.9c0,3.8,1.2,6.6,3.8,8.4c2.5,1.8,5.6,3.3,9.2,4.3c3.7,1,7.7,1.9,12.1,2.7
		c4.4,0.7,8.4,1.9,12.1,3.6s6.7,4,9.2,7.1s3.8,7.5,3.8,13.3c0,4.4-0.8,8.2-2.5,11.4c-1.6,3.2-3.9,5.9-6.8,8.1
		c-2.9,2.2-6.1,3.8-9.8,4.9c-3.7,1.1-7.5,1.6-11.5,1.6c-7.3,0-14-1.4-20-4.2s-10.7-7.1-14-13L132,131.6z"/>
	<path class="st1" d="M200.2,35.2c0-2.3,0.8-4.3,2.4-5.9c1.6-1.6,3.5-2.4,5.9-2.4c2.3,0,4.3,0.8,5.9,2.4c1.6,1.6,2.4,3.5,2.4,5.9
		c0,2.3-0.8,4.3-2.4,5.9c-1.6,1.6-3.5,2.4-5.9,2.4c-2.3,0-4.3-0.8-5.9-2.4S200.2,37.5,200.2,35.2z M203,68.7h11v84.5h-11V68.7z"/>
	<path class="st1" d="M321.4,147.7c0,10.5-1.5,19-4.6,25.4c-3.1,6.5-6.9,11.5-11.4,15c-4.6,3.5-9.5,5.9-14.7,7.1
		c-5.2,1.2-10,1.8-14.3,1.8s-8.4-0.4-12.5-1.2s-8-2-11.6-3.5c-3.7-1.5-7-3.4-10-5.6c-3-2.2-5.6-4.7-7.8-7.5l8.6-8.1
		c3.9,5.5,8.8,9.5,14.6,12.1s12.1,3.8,18.7,3.8c5.6,0,10.3-0.7,14.2-2.2c3.8-1.5,7-3.4,9.5-5.8c2.5-2.4,4.5-5,5.9-7.9
		s2.4-5.7,3.1-8.6c0.7-2.9,1.1-5.6,1.2-8.1c0.1-2.6,0.2-4.6,0.2-6.2v-11.7H310c-3.2,5.1-7.5,9.2-12.9,12.1
		c-5.4,2.9-11.8,4.4-19.1,4.4c-6.2,0-12.1-1.1-17.6-3.4c-5.5-2.3-10.3-5.4-14.4-9.3c-4.1-4-7.3-8.6-9.7-13.8s-3.6-10.9-3.6-16.8
		c0-6,1.2-11.6,3.6-16.8c2.4-5.2,5.6-9.8,9.7-13.7c4.1-3.9,8.9-7,14.4-9.3s11.3-3.5,17.6-3.5c7.3,0,13.7,1.5,19.1,4.4
		s9.7,7,12.9,12.1h0.4V68.7h11V147.7z M310.8,109.8c0-4.6-0.9-9-2.7-13.1c-1.8-4.1-4.1-7.6-7.1-10.6s-6.5-5.4-10.6-7.1
		c-4.1-1.8-8.4-2.7-13.1-2.7c-4.6,0-9,0.9-13.1,2.7c-4.1,1.8-7.6,4.1-10.6,7.1s-5.4,6.5-7.1,10.6c-1.8,4.1-2.7,8.4-2.7,13.1
		c0,4.6,0.9,9,2.7,13.1s4.1,7.6,7.1,10.6s6.5,5.4,10.6,7.1c4.1,1.8,8.4,2.7,13.1,2.7c4.6,0,9-0.9,13.1-2.7s7.6-4.1,10.6-7.1
		s5.4-6.5,7.1-10.6C309.9,118.8,310.8,114.5,310.8,109.8z"/>
	<path class="st1" d="M339.7,14.9h11v68.6h0.4c2.2-4.6,5.9-8.6,11-12s11.1-5,17.9-5c6.6,0,12,1,16.1,3.1s7.4,4.8,9.8,8.1
		c2.4,3.4,4,7.2,4.9,11.6s1.4,8.9,1.4,13.5v50.3h-11v-49.8c0-3.4-0.3-6.7-0.9-10c-0.6-3.2-1.7-6.1-3.2-8.7s-3.7-4.6-6.4-6.1
		c-2.7-1.5-6.3-2.3-10.7-2.3c-4,0-7.8,0.7-11.4,2.1s-6.7,3.5-9.3,6.4c-2.6,2.9-4.7,6.5-6.2,10.8s-2.3,9.4-2.3,15.3v42.3h-11
		L339.7,14.9L339.7,14.9z"/>
	<path class="st1" d="M474.2,78.6H450v55.1c0,3.8,1,6.7,3.1,8.8s4.9,3.1,8.6,3.1c2.1,0,4.2-0.3,6.3-0.8c2.1-0.5,4.2-1.2,6.1-2.1
		l0.9,9.9c-2.1,0.7-4.5,1.4-7.1,2c-2.7,0.6-5.1,0.9-7.1,0.9c-3.9,0-7.3-0.6-10.1-1.7c-2.8-1.2-5.1-2.7-6.8-4.7c-1.7-2-3-4.2-3.8-6.9
		c-0.8-2.6-1.2-5.5-1.2-8.5V78.6h-18.3v-9.9H439V44.3h11v24.3h24.2V78.6z"/>
	<path class="st1" d="M589,47.8c-3.8-4.9-8.6-8.7-14.4-11.4c-5.8-2.7-11.8-4-18-4c-7.6,0-14.5,1.4-20.6,4.3
		c-6.1,2.9-11.4,6.7-15.8,11.7s-7.8,10.7-10.2,17.4c-2.4,6.6-3.6,13.8-3.6,21.4c0,7.1,1.1,13.8,3.4,20.1c2.3,6.3,5.6,11.9,9.9,16.7
		c4.3,4.8,9.6,8.6,15.8,11.4c6.2,2.8,13.2,4.2,21.1,4.2c7.7,0,14.5-1.6,20.3-4.8s10.8-7.6,14.8-13.3l15.4,11.6c-1,1.4-2.8,3.4-5.3,6
		s-5.9,5.2-10.1,7.8c-4.2,2.6-9.2,4.9-15.1,6.8c-5.9,2-12.7,2.9-20.4,2.9c-10.6,0-20.2-2-28.8-6.1c-8.5-4.1-15.8-9.4-21.8-16
		c-6-6.6-10.6-14-13.8-22.3c-3.2-8.3-4.8-16.7-4.8-25.2c0-10.4,1.7-20,5.1-28.8s8.2-16.4,14.3-22.8c6.1-6.4,13.5-11.4,22.1-14.9
		c8.6-3.5,18.1-5.3,28.5-5.3c8.9,0,17.6,1.7,26.1,5.1s15.5,8.7,21,15.8L589,47.8z"/>
	<path class="st1" d="M612.7,108.2c0-6.6,1.2-12.7,3.7-18.4s5.9-10.7,10.2-15s9.4-7.7,15.2-10.2s12.1-3.7,18.8-3.7s13,1.2,18.8,3.7
		s10.9,5.9,15.2,10.2c4.3,4.3,7.7,9.3,10.2,15s3.7,11.8,3.7,18.4s-1.2,12.8-3.7,18.5c-2.5,5.8-5.9,10.8-10.2,15s-9.4,7.6-15.2,10.1
		s-12.1,3.7-18.8,3.7s-13-1.2-18.8-3.7s-10.9-5.8-15.2-10.1c-4.3-4.2-7.7-9.2-10.2-15C613.9,120.9,612.7,114.8,612.7,108.2z
		 M630.9,108.2c0,4.6,0.7,8.8,2.1,12.6c1.4,3.9,3.4,7.2,5.9,9.9c2.5,2.7,5.6,4.9,9.3,6.5s7.8,2.4,12.3,2.4c4.6,0,8.7-0.8,12.4-2.4
		c3.7-1.6,6.8-3.7,9.3-6.5c2.5-2.7,4.5-6,5.9-9.9s2.1-8.1,2.1-12.6c0-4.6-0.7-8.8-2.1-12.6c-1.4-3.9-3.4-7.2-5.9-9.9
		c-2.5-2.7-5.6-4.9-9.3-6.5s-7.8-2.4-12.4-2.4c-4.6,0-8.7,0.8-12.3,2.4c-3.7,1.6-6.8,3.7-9.3,6.5c-2.5,2.7-4.5,6-5.9,9.9
		C631.6,99.4,630.9,103.6,630.9,108.2z"/>
	<path class="st1" d="M722.3,63.2h17.1V77h0.4c2.2-4.8,5.9-8.7,11.2-11.7s11.5-4.5,18.4-4.5c4.3,0,8.5,0.7,12.4,2
		c4,1.3,7.5,3.4,10.4,6.2c3,2.8,5.4,6.4,7.1,10.7c1.8,4.4,2.7,9.5,2.7,15.5v58h-17V100c0-4.2-0.6-7.8-1.7-10.7
		c-1.1-3-2.7-5.4-4.6-7.2c-1.9-1.8-4.1-3.2-6.6-4s-5-1.2-7.7-1.2c-3.5,0-6.8,0.6-9.9,1.7s-5.7,2.9-8,5.4s-4.1,5.6-5.3,9.4
		c-1.3,3.8-1.9,8.3-1.9,13.5v46.4h-17.1L722.3,63.2L722.3,63.2z"/>
	<path class="st1" d="M820.4,63.2h17.1V77h0.4c2.2-4.8,5.9-8.7,11.2-11.7s11.5-4.5,18.4-4.5c4.3,0,8.5,0.7,12.4,2
		c4,1.3,7.5,3.4,10.4,6.2c3,2.8,5.4,6.4,7.1,10.7c1.8,4.4,2.7,9.5,2.7,15.5v58H883V100c0-4.2-0.6-7.8-1.7-10.7
		c-1.1-3-2.7-5.4-4.6-7.2c-1.9-1.8-4.1-3.2-6.6-4s-5-1.2-7.7-1.2c-3.5,0-6.8,0.6-9.9,1.7s-5.7,2.9-8,5.4s-4.1,5.6-5.3,9.4
		c-1.3,3.8-1.9,8.3-1.9,13.5v46.4h-17.1V63.2H820.4z"/>
	<path class="st1" d="M931.3,114.5c0,3.9,0.9,7.5,2.6,10.7s4,6,6.7,8.3c2.8,2.3,6,4.1,9.7,5.3c3.7,1.3,7.5,1.9,11.4,1.9
		c5.3,0,9.9-1.2,13.9-3.7c3.9-2.5,7.5-5.7,10.8-9.8l12.9,9.9c-9.5,12.3-22.8,18.4-39.9,18.4c-7.1,0-13.5-1.2-19.3-3.6
		c-5.8-2.4-10.6-5.7-14.6-10c-4-4.2-7.1-9.2-9.2-15c-2.2-5.8-3.2-12-3.2-18.7s1.2-12.9,3.5-18.7c2.3-5.8,5.6-10.8,9.7-15
		c4.1-4.2,9-7.6,14.7-10s11.9-3.6,18.6-3.6c8,0,14.7,1.4,20.2,4.2c5.5,2.8,10,6.4,13.6,10.9c3.5,4.5,6.1,9.6,7.7,15.2
		c1.6,5.6,2.4,11.4,2.4,17.2v6.1L931.3,114.5L931.3,114.5z M985.3,100.8c-0.1-3.8-0.7-7.3-1.8-10.5s-2.7-5.9-4.8-8.3
		c-2.2-2.3-4.8-4.2-8.1-5.5c-3.2-1.3-7-2-11.3-2c-4.2,0-8,0.8-11.5,2.4s-6.4,3.6-8.8,6.2c-2.4,2.5-4.3,5.4-5.6,8.5s-2,6.2-2,9.2
		C931.4,100.8,985.3,100.8,985.3,100.8z"/>
	<path class="st1" d="M1080.9,87.1c-3.2-3.3-6.5-5.8-10-7.5s-7.6-2.6-12.4-2.6c-4.7,0-8.8,0.9-12.3,2.6s-6.4,4.1-8.7,7
		c-2.3,3-4.1,6.4-5.3,10.3c-1.2,3.9-1.8,7.9-1.8,12.1s0.7,8.1,2.1,11.9c1.4,3.7,3.4,7,5.9,9.8c2.5,2.8,5.6,5,9.1,6.6s7.5,2.4,12,2.4
		c4.8,0,8.9-0.9,12.3-2.6s6.6-4.2,9.5-7.5l12.2,12.2c-4.4,4.9-9.6,8.5-15.5,10.6c-5.9,2.2-12.1,3.2-18.7,3.2c-7,0-13.3-1.1-19.1-3.4
		c-5.8-2.3-10.7-5.5-14.9-9.6c-4.2-4.1-7.4-9.1-9.7-14.8c-2.3-5.8-3.4-12.1-3.4-19.1s1.1-13.4,3.4-19.2c2.3-5.8,5.5-10.8,9.6-15
		c4.1-4.2,9.1-7.4,14.8-9.8c5.8-2.3,12.2-3.5,19.3-3.5c6.6,0,12.9,1.2,18.9,3.5c6,2.3,11.2,5.9,15.7,10.7L1080.9,87.1z"/>
	<path class="st1" d="M1161.7,78h-24.5v40.9c0,2.5,0.1,5,0.2,7.5c0.1,2.5,0.6,4.7,1.4,6.6c0.8,2,2.1,3.5,3.8,4.8
		c1.7,1.2,4.2,1.8,7.5,1.8c2,0,4.1-0.2,6.3-0.6c2.2-0.4,4.1-1.1,5.9-2.1v15.6c-2,1.1-4.7,1.9-7.9,2.4c-3.2,0.4-5.7,0.7-7.5,0.7
		c-6.6,0-11.7-0.9-15.3-2.8c-3.6-1.8-6.3-4.2-8-7.1c-1.7-2.9-2.7-6.2-3-9.8s-0.5-7.2-0.5-10.9V78h-19.8V63.2h19.8V37.9h17.1v25.3
		h24.5V78z"/>
</g>
<g>
	<g>
		<path class="st2" d="M32.3,44.5c-0.1-3.9,3-7.1,6.9-7.1c0.1,0,0.1,0,0.2,0c4,0,7.1,3.3,7.1,7.2c0,1.9-0.7,3.6-2,5
			c-2.8,2.7-7.3,2.7-10.1,0C32.9,48.2,32.2,46.4,32.3,44.5z M34.6,73.4h9.5v73h-9.5C34.6,146.4,34.6,73.4,34.6,73.4z"/>
		<path class="st2" d="M71,93.9c0-1.4-0.1-3-0.2-5S70.6,85,70.6,83s-0.1-3.9-0.2-5.6s-0.2-3.1-0.2-4h9.5c0.1,2.7,0.2,5.4,0.2,7.9
			c0,1.6,0.1,3.3,0.4,4.9h0.5c2.1-4.3,5.4-7.9,9.5-10.3c4.6-3,10-4.5,15.5-4.4c5.7,0,10.3,0.9,13.9,2.7c3.4,1.6,6.3,4,8.5,7
			c2.1,3,3.5,6.4,4.3,10c0.8,3.8,1.2,7.8,1.2,11.7v43.5h-9.5v-43c0-2.9-0.3-5.8-0.8-8.6c-0.5-2.6-1.4-5.2-2.8-7.5
			c-1.3-2.2-3.3-4-5.5-5.2c-2.9-1.4-6-2.1-9.2-2c-3.4,0-6.7,0.6-9.9,1.8c-3.1,1.2-5.8,3.1-8.1,5.5c-2.4,2.7-4.2,5.9-5.4,9.3
			c-1.4,4.3-2.1,8.7-2,13.2v36.5H71C71,146.4,71,93.9,71,93.9z"/>
		<path class="st2" d="M159,127.8c1.9,3.8,5,7,8.9,8.9c3.8,2,8,3.1,12.3,3.1c2,0,4.1-0.3,6-1c1.9-0.6,3.7-1.5,5.4-2.7
			c1.5-1.1,2.9-2.6,3.9-4.2c1-1.7,1.5-3.6,1.5-5.6c0-3.4-1.1-5.9-3.2-7.6c-2.4-1.8-5.1-3.1-8-4c-3.4-1-6.9-1.8-10.4-2.4
			c-3.6-0.6-7.1-1.7-10.4-3.2c-3.1-1.4-5.8-3.4-8-5.9s-3.2-6.1-3.2-10.7c-0.1-3.3,0.7-6.5,2.2-9.3c1.4-2.6,3.4-4.8,5.8-6.6
			c2.4-1.8,5.1-3.1,8-3.9s6-1.3,9-1.3c5.4-0.1,10.7,1,15.6,3.3c4.5,2.3,8.1,5.9,10.3,10.4l-8.5,5c-1.5-3.1-3.9-5.7-6.7-7.7
			c-2.7-1.7-6.2-2.6-10.5-2.6c-1.8,0-3.6,0.3-5.3,0.8s-3.4,1.2-4.9,2.2c-1.5,0.9-2.7,2.2-3.7,3.6c-1,1.5-1.5,3.3-1.5,5.1
			c0,3.3,1.1,5.7,3.2,7.3c2.4,1.7,5.1,3,8,3.7c3.4,1,6.9,1.7,10.4,2.3c3.6,0.6,7.1,1.6,10.4,3.1c3.1,1.4,5.9,3.5,8,6.2
			c2.2,2.7,3.2,6.5,3.2,11.5c0.1,3.4-0.6,6.8-2.1,9.9c-1.4,2.7-3.4,5.1-5.8,7c-2.5,1.9-5.4,3.4-8.5,4.3c-3.2,1-6.6,1.4-10,1.4
			c-6,0.1-11.9-1.2-17.3-3.6c-5.1-2.4-9.4-6.3-12.1-11.2L159,127.8z"/>
		<path class="st2" d="M225.4,44.5c0.1-3.9,3.3-6.9,7.2-6.8c3.9,0.1,6.9,3.3,6.8,7.2c-0.1,3.9-3.3,6.9-7.2,6.8
			c-1.8,0-3.6-0.8-4.8-2.1C226.1,48.2,225.3,46.4,225.4,44.5z M227.8,73.4h9.5v73h-9.5V73.4z"/>
		<path class="st2" d="M337.4,141.7c0,9.1-1.3,16.4-4,22c-2.2,5-5.6,9.5-9.9,13c-3.7,3-8.1,5.1-12.7,6.2c-4,1-8.2,1.5-12.3,1.6
			c-3.6,0-7.3-0.3-10.8-1c-3.4-0.7-6.8-1.7-10-3c-3.1-1.3-5.9-2.9-8.6-4.8c-2.5-1.9-4.8-4.1-6.7-6.5l7.4-7
			c3.2,4.6,7.5,8.2,12.6,10.5c5.1,2.2,10.6,3.4,16.1,3.3c4.2,0.1,8.3-0.5,12.2-1.9c3-1.1,5.8-2.8,8.2-5c2.1-1.9,3.8-4.2,5.1-6.8
			c1.2-2.4,2.1-4.9,2.7-7.4c0.5-2.3,0.9-4.6,1-7c0.1-2.2,0.2-4,0.2-5.4v-10.1h-0.3c-2.7,4.4-6.6,8-11.1,10.4
			c-5.1,2.6-10.8,3.9-16.5,3.8c-5.2,0-10.4-1-15.2-2.9c-9.2-3.7-16.7-10.9-20.8-20c-4.1-9.3-4.1-19.8,0-29.1c2-4.5,4.9-8.5,8.4-11.8
			c3.6-3.4,7.8-6.2,12.4-8.1c4.8-2,10-3,15.2-3c5.7-0.1,11.4,1.2,16.5,3.8c4.6,2.4,8.4,6,11.1,10.4h0.3V73.4h9.5L337.4,141.7
			L337.4,141.7z M328.3,109c0-3.9-0.8-7.7-2.3-11.3c-2.9-6.9-8.4-12.4-15.3-15.3c-7.2-3.1-15.4-3.1-22.6,0
			c-6.9,2.9-12.4,8.4-15.3,15.3c-3.1,7.2-3.1,15.4,0,22.6c2.9,6.9,8.4,12.4,15.3,15.3c7.2,3.1,15.4,3.1,22.6,0
			c6.9-2.9,12.4-8.4,15.3-15.3C327.5,116.7,328.3,112.9,328.3,109z"/>
		<path class="st2" d="M360.7,27h9.5v59.2h0.3c2.1-4.3,5.4-7.9,9.5-10.4c4.6-3,10-4.5,15.5-4.4c5.7,0,10.3,0.9,13.9,2.7
			c3.4,1.6,6.3,4,8.5,7c2.1,3,3.5,6.4,4.3,10c0.8,3.8,1.2,7.8,1.2,11.7v43.5h-9.5v-43c0-2.9-0.3-5.8-0.8-8.6
			c-0.5-2.6-1.4-5.2-2.8-7.5c-1.3-2.2-3.3-4-5.5-5.2c-2.9-1.4-6-2.1-9.2-2c-3.4,0-6.7,0.6-9.9,1.8c-3.1,1.2-5.8,3.1-8.1,5.5
			c-2.4,2.7-4.2,5.9-5.4,9.3c-1.4,4.3-2.1,8.7-2,13.2v36.5h-9.5V27z"/>
		<path class="st2" d="M484.3,81.9h-20.9v47.6c0,3.3,0.9,5.8,2.7,7.6c2,1.9,4.7,2.8,7.4,2.7c1.8,0,3.7-0.2,5.5-0.7s3.6-1.1,5.3-1.8
			l0.8,8.5c-2,0.7-4.1,1.3-6.2,1.7c-2,0.5-4.1,0.8-6.2,0.8c-3,0.1-5.9-0.4-8.7-1.5c-2.2-0.9-4.2-2.2-5.8-4c-1.5-1.7-2.6-3.7-3.2-5.9
			c-0.7-2.4-1-4.9-1-7.3V81.9h-15.8v-8.5H454v-21h9.5v21h20.9L484.3,81.9z"/>
	</g>
	<path class="st2" d="M585.9,58.7c-3.2-4.1-7.2-7.3-12-9.5s-9.8-3.3-15-3.3c-6.3,0-12,1.2-17.1,3.6c-5.1,2.4-9.5,5.6-13.1,9.7
		s-6.5,8.9-8.5,14.5c-2,5.5-3,11.5-3,17.8c0,5.9,0.9,11.5,2.8,16.7c1.9,5.3,4.6,9.9,8.2,13.9c3.6,4,8,7.2,13.1,9.5
		c5.2,2.3,11,3.5,17.5,3.5c6.4,0,12.1-1.3,16.9-3.9c4.8-2.6,9-6.3,12.3-11.1l12.8,9.6c-0.8,1.2-2.3,2.8-4.4,5
		c-2.1,2.2-4.9,4.3-8.4,6.5s-7.7,4.1-12.6,5.7c-4.9,1.6-10.6,2.4-17,2.4c-8.8,0-16.8-1.7-23.9-5.1c-7.1-3.4-13.2-7.8-18.2-13.3
		s-8.8-11.7-11.5-18.6c-2.6-6.9-3.9-13.9-3.9-20.9c0-8.6,1.4-16.6,4.3-23.9c2.8-7.3,6.8-13.6,11.9-19c5.1-5.3,11.2-9.5,18.4-12.4
		s15.1-4.4,23.7-4.4c7.4,0,14.6,1.4,21.7,4.3c7.1,2.8,12.9,7.2,17.5,13.1L585.9,58.7z"/>
	<path class="st2" d="M608.1,108.9c0-5.5,1-10.6,3.1-15.3c2.1-4.7,4.9-8.9,8.5-12.5s7.8-6.4,12.6-8.5s10.1-3.1,15.6-3.1
		c5.6,0,10.8,1,15.6,3.1s9.1,4.9,12.6,8.5c3.6,3.6,6.4,7.7,8.5,12.5c2.1,4.7,3.1,9.8,3.1,15.3s-1,10.6-3.1,15.4s-4.9,9-8.5,12.5
		s-7.8,6.3-12.6,8.4c-4.8,2.1-10.1,3.1-15.6,3.1c-5.6,0-10.8-1-15.6-3.1s-9.1-4.8-12.6-8.4c-3.6-3.5-6.4-7.7-8.5-12.5
		C609.2,119.5,608.1,114.4,608.1,108.9z M623.3,108.9c0,3.8,0.6,7.3,1.7,10.5c1.2,3.2,2.8,6,4.9,8.2c2.1,2.3,4.7,4.1,7.7,5.4
		c3.1,1.3,6.5,2,10.3,2s7.2-0.7,10.3-2s5.6-3.1,7.7-5.4c2.1-2.3,3.7-5,4.9-8.2s1.7-6.7,1.7-10.5s-0.6-7.3-1.7-10.5
		c-1.2-3.2-2.8-5.9-4.9-8.2c-2.1-2.3-4.7-4.1-7.7-5.4c-3.1-1.3-6.5-2-10.3-2s-7.2,0.7-10.3,2s-5.6,3.1-7.7,5.4
		c-2.1,2.3-3.7,5-4.9,8.2C623.9,101.6,623.3,105.1,623.3,108.9z"/>
	<path class="st2" d="M699.6,71.5h14.2V83h0.3c1.8-4,4.9-7.2,9.3-9.7c4.4-2.5,9.5-3.7,15.3-3.7c3.6,0,7,0.6,10.3,1.7
		s6.2,2.8,8.7,5.1c2.5,2.3,4.4,5.3,5.9,8.9s2.2,7.9,2.2,12.9v48.2h-14.2v-44.2c0-3.5-0.5-6.4-1.4-8.9s-2.2-4.5-3.8-6
		s-3.4-2.6-5.5-3.3c-2.1-0.7-4.2-1-6.4-1c-2.9,0-5.7,0.5-8.2,1.4s-4.7,2.4-6.6,4.5c-1.9,2.1-3.4,4.7-4.4,7.8
		c-1.1,3.2-1.6,6.9-1.6,11.2v38.5h-14.2L699.6,71.5L699.6,71.5z"/>
	<path class="st2" d="M781.1,71.5h14.2V83h0.3c1.8-4,4.9-7.2,9.3-9.7c4.4-2.5,9.5-3.7,15.3-3.7c3.6,0,7,0.6,10.3,1.7
		s6.2,2.8,8.7,5.1c2.5,2.3,4.4,5.3,5.9,8.9s2.2,7.9,2.2,12.9v48.2h-14.2v-44.2c0-3.5-0.5-6.4-1.4-8.9s-2.2-4.5-3.8-6
		s-3.4-2.6-5.5-3.3c-2.1-0.7-4.2-1-6.4-1c-2.9,0-5.7,0.5-8.2,1.4s-4.7,2.4-6.6,4.5s-3.4,4.7-4.4,7.8c-1.1,3.2-1.6,6.9-1.6,11.2v38.5
		H781V71.5H781.1z"/>
	<path class="st2" d="M875.1,114.1c0,3.3,0.7,6.2,2.1,8.9c1.4,2.7,3.3,5,5.6,6.9s5,3.4,8.1,4.4c3.1,1.1,6.2,1.6,9.5,1.6
		c4.4,0,8.3-1,11.5-3.1c3.3-2.1,6.3-4.8,9-8.1l10.7,8.2c-7.9,10.2-19,15.3-33.2,15.3c-5.9,0-11.2-1-16-3s-8.8-4.8-12.2-8.3
		c-3.3-3.5-5.9-7.7-7.7-12.5s-2.7-10-2.7-15.6s1-10.8,2.9-15.6c1.9-4.8,4.6-9,8.1-12.5c3.4-3.5,7.5-6.3,12.2-8.3s9.9-3,15.5-3
		c6.6,0,12.2,1.2,16.8,3.5s8.3,5.3,11.3,9.1c2.9,3.7,5.1,8,6.4,12.6c1.3,4.7,2,9.5,2,14.3v5.1h-59.9L875.1,114.1L875.1,114.1z
		 M919.9,102.8c-0.1-3.2-0.6-6.1-1.5-8.7s-2.2-4.9-4-6.9c-1.8-1.9-4-3.5-6.7-4.6s-5.8-1.7-9.4-1.7c-3.5,0-6.7,0.7-9.6,2
		c-2.9,1.3-5.3,3-7.3,5.1s-3.6,4.5-4.7,7c-1.1,2.6-1.7,5.1-1.7,7.7L919.9,102.8L919.9,102.8z"/>
	<path class="st2" d="M1002,91.4c-2.6-2.7-5.4-4.8-8.3-6.2c-2.9-1.4-6.3-2.1-10.3-2.1c-3.9,0-7.3,0.7-10.2,2.1s-5.3,3.4-7.3,5.8
		c-2,2.5-3.4,5.3-4.4,8.5s-1.5,6.6-1.5,10s0.6,6.8,1.7,9.9c1.2,3.1,2.8,5.8,4.9,8.1c2.1,2.3,4.6,4.1,7.6,5.5c2.9,1.3,6.3,2,10,2
		c4,0,7.4-0.7,10.3-2.1c2.8-1.4,5.5-3.5,7.9-6.2l10.1,10.1c-3.7,4.1-8,7.1-12.9,8.8c-4.9,1.8-10.1,2.7-15.6,2.7
		c-5.8,0-11.1-0.9-15.9-2.8c-4.8-1.9-8.9-4.6-12.4-8s-6.2-7.5-8.1-12.3c-1.9-4.8-2.8-10.1-2.8-15.9s0.9-11.1,2.8-16
		c1.9-4.8,4.6-9,8-12.5s7.5-6.2,12.3-8.1s10.1-2.9,16-2.9c5.5,0,10.7,1,15.7,2.9c5,2,9.3,4.9,13,8.9L1002,91.4z"/>
	<path class="st2" d="M1070.8,83.8h-20.4v34c0,2.1,0.1,4.2,0.2,6.2c0.1,2.1,0.5,3.9,1.2,5.5s1.7,2.9,3.2,3.9c1.4,1,3.5,1.5,6.2,1.5
		c1.7,0,3.4-0.2,5.2-0.5c1.8-0.3,3.4-0.9,4.9-1.7v13c-1.7,0.9-3.9,1.6-6.6,2s-4.8,0.6-6.2,0.6c-5.5,0-9.7-0.8-12.7-2.3
		s-5.2-3.5-6.6-5.9s-2.3-5.1-2.5-8.1c-0.3-3-0.4-6-0.4-9.1v-39h-16.4V71.5h16.4v-21h14.2v21h20.4L1070.8,83.8L1070.8,83.8z"/>
</g>
</svg>
