<?xml version="1.0" encoding="utf-8"?>
<!-- Generator: Adobe Illustrator 21.0.2, SVG Export Plug-In . SVG Version: 6.00 Build 0)  -->
<svg version="1.1" id="Layer_1" xmlns="http://www.w3.org/2000/svg" xmlns:xlink="http://www.w3.org/1999/xlink" x="0px" y="0px"
	 viewBox="0 0 250 45" style="enable-background:new 0 0 250 45;" xml:space="preserve">
<style type="text/css">
	.st0{display:none;}
	.st1{display:inline;fill:#FFFFFF;}
	.st2{display:inline;enable-background:new    ;}
	.st3{fill:#FFFFFF;}
	.st4{enable-background:new    ;}
	.st5{display:inline;fill:#231F20;}
	.st6{fill:#231F20;}
	.st7{display:inline;}
</style>
<g id="white_Left_Logos">
	<g class="st0">
		<path class="st1" d="M0,12.3h3.9v3.2H4c1-2.2,3.6-3.7,6.7-3.7c4,0,7.4,2.4,7.4,7.8v13.1h-3.9v-12c0-3.8-2.2-5.2-4.6-5.2
			c-3.2,0-5.7,2.1-5.7,6.8v10.5H0V12.3z"/>
		<path class="st1" d="M24.7,23.9c0,3.6,3.3,5.9,6.9,5.9c2.4,0,4.1-1.2,5.6-3.1l2.9,2.2c-2.2,2.8-5.1,4.2-9,4.2
			c-6.5,0-10.5-4.6-10.5-10.7S25,11.7,31.1,11.7c7.2,0,9.9,5.5,9.9,10.7v1.5H24.7z M36.9,20.8c-0.1-3.4-2-5.9-5.9-5.9
			c-3.3,0-6.1,2.6-6.3,5.9H36.9z"/>
		<path class="st1" d="M49.1,21.8l-7.2-9.5h5l4.9,7.2l4.9-7.2h4.7l-6.9,9.5l8.3,10.9h-5l-6-8.6l-6,8.6h-4.8L49.1,21.8z"/>
		<path class="st1" d="M63.7,12.3h3.9v2.9h0.1c1.5-2.2,4.3-3.4,7.1-3.4c6.3,0,10.4,4.7,10.4,10.7s-4.1,10.7-10.4,10.7
			c-2.9,0-5.7-1.3-7.1-3.4h-0.1v10.6h-3.9L63.7,12.3z M67.6,22.5c0,4.1,2.6,7.1,6.7,7.1s6.7-3,6.7-7.1s-2.6-7.1-6.7-7.1
			S67.6,18.3,67.6,22.5L67.6,22.5z"/>
		<path class="st1" d="M97.7,11.7c5.9,0.1,10.7,4.9,10.6,10.8c-0.1,5.9-4.9,10.7-10.8,10.6c-5.9-0.1-10.6-4.8-10.6-10.7
			c0-5.9,4.8-10.7,10.7-10.7C97.6,11.7,97.7,11.7,97.7,11.7z M97.7,29.6c4.1,0,6.7-3,6.7-7.1s-2.6-7.1-6.7-7.1s-6.7,3-6.7,7.1
			S93.6,29.6,97.7,29.6L97.7,29.6z"/>
		<path class="st1" d="M122.1,17.4c-1-1.3-2.5-2-4.2-2c-1.8,0-3.4,0.8-3.4,2.3c0,2.5,3.5,2.8,5.2,3.2c3.4,0.8,5.9,2.1,5.9,5.9
			c0,4.6-4.2,6.4-8.3,6.4c-3.4,0-5.8-0.9-7.9-3.6l2.9-2.4c1.3,1.3,2.7,2.4,4.9,2.4c2,0,4.1-0.8,4.1-2.6c0-2.3-3.2-2.8-4.9-3.2
			c-3.3-0.8-6.2-1.9-6.2-5.8c0-4.3,3.9-6.3,7.7-6.3c2.7,0,5.5,0.9,6.9,3.4L122.1,17.4z"/>
		<path class="st1" d="M131.1,23.9c0,3.6,3.3,5.9,6.9,5.9c2.4,0,4.1-1.2,5.6-3.1l2.9,2.2c-2.2,2.8-5.1,4.2-9,4.2
			c-6.5,0-10.5-4.6-10.5-10.7s4.4-10.7,10.5-10.7c7.2,0,9.9,5.5,9.9,10.7v1.4H131.1z M143.3,20.8c-0.1-3.4-2-5.9-5.9-5.9
			c-3.3,0-6.1,2.6-6.3,5.9H143.3z"/>
		<path class="st1" d="M148.7,5.6c1.7,0,3,1.4,3,3s-1.4,3-3,3c-1.7,0-3-1.4-3-3c0,0,0,0,0,0C145.7,7,147.1,5.6,148.7,5.6z
			 M148.7,11.2c1.4,0,2.6-1.2,2.6-2.6c0-1.4-1.2-2.6-2.6-2.6c-1.4,0-2.6,1.2-2.6,2.6C146.1,10.1,147.3,11.2,148.7,11.2
			C148.7,11.3,148.7,11.3,148.7,11.2L148.7,11.2z M148.1,10.4h-0.4V6.9h1.3c0.8,0,1.1,0.3,1.1,1c0,0.5-0.4,1-0.9,1l1,1.5h-0.5
			l-1.1-1.5H148L148.1,10.4z M148.1,8.5h0.6c0.5,0,1,0,1-0.6c0-0.4-0.4-0.6-0.8-0.6h-0.8L148.1,8.5z"/>
	</g>
	<g class="st0">
		<path class="st1" d="M0,12.1h3.6v3.2h0.1c0.4-1.2,2.9-3.7,6.6-3.7c3,0,5.1,1.3,6.4,3.8c1.3-2.4,3.8-3.8,6.5-3.8
			c6.3,0,7.8,4.5,7.8,9.1v11.9h-3.9V21.2c0-3.1-0.6-6-4.4-6s-5.2,2.5-5.2,6.2v11.2h-3.9V21.9c0-3.9-0.6-6.7-4.3-6.7
			c-2.8,0-5.3,2.1-5.3,6.7v10.6H0V12.1z"/>
		<path class="st1" d="M37.6,23.7c0,3.6,3.3,6,6.9,6c2.4,0,4.1-1.2,5.6-3.1l2.9,2.2C51,31.7,48,33.1,44,33.1
			c-6.5,0-10.6-4.7-10.6-10.8s4.4-10.8,10.6-10.8c7.2,0,10,5.5,10,10.8v1.4L37.6,23.7z M49.9,20.6c-0.1-3.4-2-6-5.9-6
			c-3.4,0-6.1,2.6-6.3,6L49.9,20.6z"/>
		<path class="st1" d="M67.5,15.5H62v9.3c0,2.3,0,4.7,2.9,4.7c1,0,1.9-0.2,2.8-0.6v3.5c-1.1,0.5-2.3,0.7-3.5,0.7c-6,0-6.1-3.7-6.1-7
			V15.5h-4.5v-3.4h4.5V6.3H62v5.8h5.6V15.5z"/>
		<path class="st1" d="M70.5,14.6c2.2-2,5.1-3.1,8.1-3c6.1,0,8.6,3.3,8.6,6.8v10.5c0,1.2,0,2.5,0.2,3.7h-3.5c-0.1-1-0.1-2.1-0.1-3.1
			h-0.1c-1.7,2.6-4.1,3.6-7.2,3.6c-3.8,0-7.1-2.2-7.1-6.1c0-5.3,5.1-7.1,11.3-7.1h2.9V19c0-2.1-1.6-4.3-4.9-4.3
			c-3,0-4.4,1.3-5.8,2.3L70.5,14.6z M81.5,22.7c-3.7,0-8.2,0.6-8.2,3.9c0,2.3,1.7,3.3,4.4,3.3c4.3,0,5.8-3.2,5.8-6v-1.3L81.5,22.7z"
			/>
		<path class="st1" d="M102.2,17.2c-1-1.3-2.6-2.1-4.2-2c-1.8,0-3.4,0.8-3.4,2.3c0,2.5,3.5,2.8,5.2,3.2c3.4,0.8,6,2.1,6,6
			c0,4.6-4.2,6.4-8.3,6.4c-3.4,0-5.9-0.9-7.9-3.6l2.9-2.4c1.3,1.3,2.7,2.4,5,2.4c2,0,4.2-0.8,4.2-2.6c0-2.3-3.2-2.8-4.9-3.2
			c-3.3-0.8-6.3-1.9-6.3-5.8c0-4.3,3.9-6.3,7.8-6.3c2.7,0,5.5,1,7,3.4L102.2,17.2z"/>
		<path class="st1" d="M108.3,12.1h3.9V15h0.1c1.5-2.2,4.4-3.4,7.1-3.4c6.3,0,10.4,4.7,10.4,10.8s-4.1,10.8-10.4,10.8
			c-2.9,0-5.8-1.3-7.1-3.5h-0.1v10.6h-3.9L108.3,12.1z M112.2,22.3c0,4.2,2.6,7.1,6.7,7.1s6.7-3,6.7-7.1s-2.6-7.1-6.8-7.1
			S112.2,18.2,112.2,22.3L112.2,22.3z"/>
		<path class="st1" d="M132.9-0.1h3.9v32.7h-3.9V-0.1z"/>
		<path class="st1" d="M149.6,11.6c6,0.1,10.7,4.9,10.7,10.9c-0.1,6-4.9,10.7-10.9,10.7c-5.9-0.1-10.7-4.9-10.7-10.8
			c0-6,4.8-10.8,10.8-10.8C149.5,11.6,149.5,11.6,149.6,11.6z M149.6,29.5c4.2,0,6.7-3,6.7-7.1s-2.6-7.1-6.7-7.1
			c-4.2,0-6.7,3-6.7,7.1S145.4,29.5,149.6,29.5L149.6,29.5z"/>
		<path class="st1" d="M164.3,1.9c1.6,0,2.9,1.3,2.9,2.9s-1.3,2.9-2.9,2.9c-1.6,0-2.9-1.3-2.9-2.9C161.4,3.2,162.7,1.9,164.3,1.9z
			 M162.3,12.1h3.9v20.5h-3.9V12.1z"/>
		<path class="st1" d="M181.6,15.5H176v9.3c0,2.3,0,4.7,2.9,4.7c1,0,1.9-0.2,2.8-0.6v3.5c-1.1,0.5-2.3,0.7-3.5,0.7
			c-6,0-6.1-3.7-6.1-7V15.5h-4.5v-3.4h4.5V6.3h3.9v5.8h5.6V15.5z"/>
		<path class="st1" d="M182.9,0.1c1.7,0,3,1.4,3,3s-1.4,3-3,3c-1.7,0-3-1.4-3-3v0C179.8,1.5,181.2,0.1,182.9,0.1z M182.9,5.8
			c1.4,0,2.6-1.2,2.6-2.6s-1.2-2.6-2.6-2.6c-1.4,0-2.6,1.2-2.6,2.6c0,0,0,0,0,0C180.3,4.6,181.4,5.8,182.9,5.8L182.9,5.8z
			 M182.2,4.9h-0.4V1.4h1.3c0.8,0,1.1,0.3,1.1,1c0,0.5-0.4,1-0.9,1l1,1.5h-0.5l-1-1.5h-0.6L182.2,4.9z M182.2,3h0.6c0.5,0,1,0,1-0.6
			c0-0.5-0.4-0.6-0.8-0.6h-0.8V3z"/>
	</g>
	<g class="st0">
		<g class="st2">
			<path class="st3" d="M0,5.8c0-0.5,0.2-1,0.5-1.3C0.9,4,1.3,3.9,1.9,3.9c0.5,0,1,0.2,1.3,0.5c0.4,0.4,0.5,0.8,0.5,1.3
				c0,0.5-0.2,1-0.5,1.3C2.8,7.5,2.4,7.6,1.9,7.6s-1-0.2-1.3-0.5C0.2,6.7,0,6.3,0,5.8z M0.6,13.4h2.5v19.2H0.6V13.4z"/>
		</g>
		<g class="st2">
			<path class="st3" d="M7.1,18.8c0-0.4,0-0.8,0-1.3c0-0.5,0-1-0.1-1.6c0-0.5,0-1-0.1-1.5c0-0.5,0-0.8,0-1.1h2.5
				c0,0.7,0,1.4,0.1,2.1c0,0.7,0,1.1,0.1,1.3h0.1c0.5-1,1.3-2,2.5-2.7c1.2-0.8,2.5-1.1,4.1-1.1c1.5,0,2.7,0.2,3.7,0.7
				c0.9,0.5,1.7,1.1,2.2,1.8c0.5,0.8,0.9,1.6,1.1,2.6c0.2,1,0.3,2,0.3,3.1v11.5h-2.5V21.3c0-0.8-0.1-1.5-0.2-2.3
				c-0.1-0.7-0.4-1.4-0.7-2c-0.3-0.6-0.8-1-1.5-1.4c-0.6-0.3-1.4-0.5-2.4-0.5c-0.9,0-1.8,0.2-2.6,0.5c-0.8,0.3-1.5,0.8-2.1,1.5
				c-0.6,0.7-1.1,1.5-1.4,2.5c-0.3,1-0.5,2.1-0.5,3.5v9.6H7.1V18.8z"/>
		</g>
		<g class="st2">
			<path class="st3" d="M28.2,27.7c0.5,1,1.3,1.8,2.3,2.3c1,0.5,2.1,0.8,3.3,0.8c0.5,0,1-0.1,1.6-0.3c0.5-0.2,1-0.4,1.4-0.7
				c0.4-0.3,0.8-0.7,1-1.1c0.3-0.4,0.4-0.9,0.4-1.5c0-0.9-0.3-1.5-0.9-2c-0.6-0.4-1.3-0.8-2.1-1c-0.8-0.3-1.8-0.5-2.8-0.6
				c-1-0.2-1.9-0.5-2.8-0.8c-0.8-0.4-1.5-0.9-2.1-1.6c-0.6-0.7-0.9-1.6-0.9-2.8c0-0.9,0.2-1.8,0.6-2.5c0.4-0.7,0.9-1.3,1.5-1.7
				c0.6-0.5,1.3-0.8,2.1-1s1.6-0.3,2.4-0.3c1.6,0,3,0.3,4.1,0.9c1.2,0.6,2,1.5,2.7,2.8l-2.3,1.3c-0.5-0.9-1.1-1.6-1.8-2
				c-0.7-0.5-1.6-0.7-2.8-0.7c-0.5,0-0.9,0.1-1.4,0.2c-0.5,0.1-0.9,0.3-1.3,0.6c-0.4,0.3-0.7,0.6-1,1c-0.3,0.4-0.4,0.8-0.4,1.3
				c0,0.9,0.3,1.5,0.9,1.9c0.6,0.4,1.3,0.8,2.1,1c0.8,0.2,1.8,0.4,2.8,0.6c1,0.2,1.9,0.4,2.8,0.8c0.8,0.4,1.5,0.9,2.1,1.6
				c0.6,0.7,0.9,1.7,0.9,3c0,1-0.2,1.9-0.6,2.6c-0.4,0.7-0.9,1.3-1.5,1.8c-0.7,0.5-1.4,0.9-2.2,1.1c-0.8,0.3-1.7,0.4-2.6,0.4
				c-1.7,0-3.2-0.3-4.6-1c-1.4-0.6-2.4-1.6-3.2-3L28.2,27.7z"/>
			<path class="st3" d="M43.6,5.8c0-0.5,0.2-1,0.5-1.3c0.4-0.4,0.8-0.5,1.3-0.5c0.5,0,1,0.2,1.3,0.5c0.4,0.4,0.5,0.8,0.5,1.3
				c0,0.5-0.2,1-0.5,1.3c-0.4,0.4-0.8,0.5-1.3,0.5c-0.5,0-1-0.2-1.3-0.5C43.8,6.7,43.6,6.3,43.6,5.8z M44.2,13.4h2.5v19.2h-2.5V13.4
				z"/>
			<path class="st3" d="M71.1,31.4c0,2.4-0.3,4.3-1,5.8c-0.7,1.5-1.6,2.6-2.6,3.4c-1,0.8-2.2,1.3-3.3,1.6c-1.2,0.3-2.3,0.4-3.3,0.4
				c-1,0-1.9-0.1-2.8-0.3c-0.9-0.2-1.8-0.5-2.6-0.8c-0.8-0.3-1.6-0.8-2.3-1.3c-0.7-0.5-1.3-1.1-1.8-1.7l2-1.8c0.9,1.3,2,2.2,3.3,2.8
				c1.3,0.6,2.8,0.9,4.3,0.9c1.3,0,2.3-0.2,3.2-0.5c0.9-0.3,1.6-0.8,2.2-1.3s1-1.1,1.3-1.8c0.3-0.7,0.5-1.3,0.7-2
				c0.2-0.7,0.3-1.3,0.3-1.8c0-0.6,0-1,0-1.4v-2.7h-0.1c-0.7,1.2-1.7,2.1-2.9,2.8c-1.2,0.7-2.7,1-4.3,1c-1.4,0-2.8-0.3-4-0.8
				c-1.3-0.5-2.3-1.2-3.3-2.1c-0.9-0.9-1.7-2-2.2-3.1c-0.5-1.2-0.8-2.5-0.8-3.8c0-1.4,0.3-2.6,0.8-3.8c0.5-1.2,1.3-2.2,2.2-3.1
				c0.9-0.9,2-1.6,3.3-2.1c1.3-0.5,2.6-0.8,4-0.8c1.7,0,3.1,0.3,4.3,1s2.2,1.6,2.9,2.8h0.1v-3.3h2.5L71.1,31.4L71.1,31.4z
				 M68.6,22.8c0-1-0.2-2-0.6-3c-0.4-0.9-0.9-1.7-1.6-2.4c-0.7-0.7-1.5-1.2-2.4-1.6c-0.9-0.4-1.9-0.6-3-0.6c-1,0-2,0.2-3,0.6
				c-0.9,0.4-1.7,0.9-2.4,1.6c-0.7,0.7-1.2,1.5-1.6,2.4c-0.4,0.9-0.6,1.9-0.6,3c0,1,0.2,2,0.6,3c0.4,0.9,0.9,1.7,1.6,2.4
				c0.7,0.7,1.5,1.2,2.4,1.6c0.9,0.4,1.9,0.6,3,0.6c1,0,2-0.2,3-0.6s1.7-0.9,2.4-1.6c0.7-0.7,1.2-1.5,1.6-2.4
				C68.4,24.8,68.6,23.8,68.6,22.8z"/>
			<path class="st3" d="M75.1,1.1h2.5v15.6h0.1c0.5-1,1.3-2,2.5-2.7c1.2-0.8,2.5-1.1,4.1-1.1c1.5,0,2.7,0.2,3.7,0.7
				c0.9,0.5,1.7,1.1,2.2,1.8c0.5,0.8,0.9,1.6,1.1,2.6c0.2,1,0.3,2,0.3,3.1v11.5h-2.5V21.3c0-0.8-0.1-1.5-0.2-2.3
				c-0.1-0.7-0.4-1.4-0.7-2s-0.8-1-1.5-1.4c-0.6-0.3-1.4-0.5-2.4-0.5c-0.9,0-1.8,0.2-2.6,0.5c-0.8,0.3-1.5,0.8-2.1,1.5
				c-0.6,0.7-1.1,1.5-1.4,2.5c-0.3,1-0.5,2.1-0.5,3.5v9.6h-2.5L75.1,1.1L75.1,1.1z"/>
		</g>
		<g class="st2">
			<path class="st3" d="M106.1,15.6h-5.5v12.5c0,0.9,0.2,1.5,0.7,2c0.5,0.5,1.1,0.7,2,0.7c0.5,0,1-0.1,1.4-0.2
				c0.5-0.1,1-0.3,1.4-0.5l0.2,2.3c-0.5,0.2-1,0.3-1.6,0.5c-0.6,0.1-1.2,0.2-1.6,0.2c-0.9,0-1.7-0.1-2.3-0.4
				c-0.6-0.3-1.2-0.6-1.5-1.1c-0.4-0.4-0.7-1-0.9-1.6c-0.2-0.6-0.3-1.3-0.3-1.9V15.6h-4.2v-2.3h4.2V7.9h2.5v5.5h5.5L106.1,15.6
				L106.1,15.6z"/>
		</g>
		<g class="st2">
			<path class="st3" d="M105.8,2h4.8l9,24.9h0.1L129,2h4.6l-12.1,30.6h-3.9L105.8,2z"/>
			<path class="st3" d="M135.2,2h6.2l9.7,23.2h0.2L161,2h6.2v30.6h-4.1V7.5H163l-10.3,25.2h-2.8L139.5,7.5h-0.1v25.2h-4.1L135.2,2
				L135.2,2z"/>
		</g>
	</g>
	<g>
		<g class="st4">
			<path class="st3" d="M0,5.8c0-0.5,0.2-1,0.5-1.3c0.4-0.4,0.8-0.5,1.3-0.5c0.5,0,1,0.2,1.3,0.5c0.4,0.4,0.5,0.8,0.5,1.3
				c0,0.5-0.2,1-0.5,1.3C2.8,7.5,2.4,7.7,1.9,7.7s-1-0.2-1.3-0.5S0,6.4,0,5.8z M0.6,13.4h2.5v19.2H0.6V13.4z"/>
		</g>
		<g class="st4">
			<path class="st3" d="M7.1,18.8c0-0.4,0-0.8,0-1.3C7,17,7,16.5,7,16c0-0.5,0-1-0.1-1.5s0-0.8,0-1.1h2.5c0,0.7,0,1.4,0.1,2.1
				c0,0.7,0,1.1,0.1,1.3h0.1c0.5-1,1.3-2,2.5-2.7s2.5-1.1,4.1-1.1c1.5,0,2.7,0.2,3.7,0.7s1.7,1.1,2.2,1.8c0.5,0.8,0.9,1.6,1.1,2.6
				s0.3,2,0.3,3.1v11.4H21V21.3c0-0.8-0.1-1.5-0.2-2.3c-0.1-0.7-0.4-1.4-0.7-2c-0.3-0.6-0.8-1-1.5-1.4s-1.4-0.5-2.4-0.5
				c-0.9,0-1.8,0.2-2.6,0.5c-0.8,0.3-1.5,0.8-2.1,1.5c-0.6,0.7-1.1,1.5-1.4,2.5c-0.3,1-0.5,2.1-0.5,3.5v9.6H7.1V18.8z"/>
		</g>
		<g class="st4">
			<path class="st3" d="M28.1,27.7c0.5,1,1.3,1.8,2.3,2.3c1,0.5,2.1,0.8,3.2,0.8c0.5,0,1-0.1,1.6-0.2c0.5-0.2,1-0.4,1.4-0.7
				s0.7-0.7,1-1.1c0.3-0.4,0.4-0.9,0.4-1.5c0-0.9-0.3-1.5-0.9-2c-0.6-0.4-1.3-0.8-2.1-1c-0.8-0.2-1.7-0.5-2.7-0.6
				c-1-0.2-1.9-0.5-2.7-0.8c-0.8-0.4-1.5-0.9-2.1-1.6c-0.6-0.7-0.9-1.6-0.9-2.8c0-0.9,0.2-1.7,0.6-2.5c0.4-0.7,0.9-1.3,1.5-1.7
				c0.6-0.5,1.3-0.8,2.1-1c0.8-0.2,1.6-0.3,2.4-0.3c1.6,0,3,0.3,4.1,0.9c1.2,0.6,2,1.5,2.7,2.7l-2.2,1.3c-0.5-0.9-1.1-1.6-1.8-2
				c-0.7-0.5-1.6-0.7-2.8-0.7c-0.5,0-0.9,0.1-1.4,0.2c-0.5,0.1-0.9,0.3-1.3,0.6c-0.4,0.2-0.7,0.6-1,1c-0.3,0.4-0.4,0.8-0.4,1.3
				c0,0.9,0.3,1.5,0.9,1.9c0.6,0.4,1.3,0.7,2.1,1c0.8,0.2,1.7,0.4,2.7,0.6c1,0.2,1.9,0.4,2.7,0.8c0.8,0.4,1.5,0.9,2.1,1.6
				s0.9,1.7,0.9,3c0,1-0.2,1.9-0.6,2.6c-0.4,0.7-0.9,1.3-1.5,1.8c-0.7,0.5-1.4,0.9-2.2,1.1c-0.8,0.2-1.7,0.4-2.6,0.4
				c-1.7,0-3.2-0.3-4.5-1s-2.4-1.6-3.2-3L28.1,27.7z"/>
			<path class="st3" d="M43.5,5.8c0-0.5,0.2-1,0.5-1.3c0.4-0.4,0.8-0.5,1.3-0.5c0.5,0,1,0.2,1.3,0.5c0.4,0.4,0.5,0.8,0.5,1.3
				c0,0.5-0.2,1-0.5,1.3c-0.4,0.4-0.8,0.5-1.3,0.5c-0.5,0-1-0.2-1.3-0.5S43.5,6.4,43.5,5.8z M44.1,13.4h2.5v19.2h-2.5V13.4z"/>
			<path class="st3" d="M70.8,31.4c0,2.4-0.3,4.3-1,5.8c-0.7,1.5-1.6,2.6-2.6,3.4c-1,0.8-2.2,1.3-3.3,1.6c-1.2,0.3-2.3,0.4-3.2,0.4
				c-1,0-1.9-0.1-2.8-0.3c-0.9-0.2-1.8-0.5-2.6-0.8c-0.8-0.3-1.6-0.8-2.3-1.3c-0.7-0.5-1.3-1.1-1.8-1.7l2-1.8c0.9,1.2,2,2.2,3.3,2.7
				s2.7,0.9,4.2,0.9c1.3,0,2.3-0.2,3.2-0.5c0.9-0.3,1.6-0.8,2.2-1.3c0.6-0.5,1-1.1,1.3-1.8c0.3-0.7,0.5-1.3,0.7-2
				c0.2-0.7,0.2-1.3,0.3-1.8c0-0.6,0-1,0-1.4v-2.7h-0.1c-0.7,1.2-1.7,2.1-2.9,2.7c-1.2,0.7-2.7,1-4.3,1c-1.4,0-2.7-0.2-4-0.8
				c-1.2-0.5-2.3-1.2-3.3-2.1c-0.9-0.9-1.7-2-2.2-3.1c-0.5-1.2-0.8-2.5-0.8-3.8c0-1.4,0.3-2.6,0.8-3.8c0.5-1.2,1.3-2.2,2.2-3.1
				c0.9-0.9,2-1.6,3.3-2.1s2.6-0.8,4-0.8c1.7,0,3.1,0.3,4.3,1c1.2,0.7,2.2,1.6,2.9,2.7h0.1v-3.2h2.5L70.8,31.4L70.8,31.4z
				 M68.4,22.8c0-1-0.2-2-0.6-3c-0.4-0.9-0.9-1.7-1.6-2.4c-0.7-0.7-1.5-1.2-2.4-1.6c-0.9-0.4-1.9-0.6-3-0.6c-1,0-2,0.2-3,0.6
				c-0.9,0.4-1.7,0.9-2.4,1.6c-0.7,0.7-1.2,1.5-1.6,2.4c-0.4,0.9-0.6,1.9-0.6,3c0,1,0.2,2,0.6,3c0.4,0.9,0.9,1.7,1.6,2.4
				c0.7,0.7,1.5,1.2,2.4,1.6c0.9,0.4,1.9,0.6,3,0.6c1,0,2-0.2,3-0.6c0.9-0.4,1.7-0.9,2.4-1.6c0.7-0.7,1.2-1.5,1.6-2.4
				C68.2,24.8,68.4,23.8,68.4,22.8z"/>
			<path class="st3" d="M74.9,1.2h2.5v15.6h0.1c0.5-1,1.3-2,2.5-2.7c1.2-0.8,2.5-1.1,4.1-1.1c1.5,0,2.7,0.2,3.7,0.7
				c0.9,0.5,1.7,1.1,2.2,1.8c0.5,0.8,0.9,1.6,1.1,2.6c0.2,1,0.3,2,0.3,3.1v11.4h-2.5V21.3c0-0.8-0.1-1.5-0.2-2.3
				c-0.1-0.7-0.4-1.4-0.7-2c-0.3-0.6-0.8-1-1.5-1.4S85,15.2,84,15.2c-0.9,0-1.8,0.2-2.6,0.5c-0.8,0.3-1.5,0.8-2.1,1.5
				s-1.1,1.5-1.4,2.5s-0.5,2.1-0.5,3.5v9.6h-2.5L74.9,1.2L74.9,1.2z"/>
		</g>
		<g class="st4">
			<path class="st3" d="M105.8,15.7h-5.5v12.5c0,0.9,0.2,1.5,0.7,2c0.5,0.5,1.1,0.7,2,0.7c0.5,0,1-0.1,1.4-0.2
				c0.5-0.1,1-0.3,1.4-0.5l0.2,2.2c-0.5,0.2-1,0.3-1.6,0.5c-0.6,0.1-1.2,0.2-1.6,0.2c-0.9,0-1.7-0.1-2.3-0.4
				c-0.6-0.3-1.2-0.6-1.5-1.1c-0.4-0.4-0.7-1-0.9-1.6c-0.2-0.6-0.3-1.2-0.3-1.9V15.7h-4.2v-2.2h4.2V7.9h2.5v5.5h5.5L105.8,15.7
				L105.8,15.7z"/>
		</g>
		<g class="st4">
			<path class="st3" d="M123.7,33.4c-2.3,0-4.5-0.4-6.4-1.2c-2-0.8-3.6-2-5-3.4c-1.4-1.4-2.5-3.1-3.3-5.1c-0.8-2-1.2-4.1-1.2-6.3
				s0.4-4.4,1.2-6.3c0.8-2,1.9-3.7,3.3-5.1c1.4-1.4,3.1-2.6,5-3.4c2-0.8,4.1-1.2,6.4-1.2s4.5,0.4,6.4,1.2s3.6,2,5,3.4
				s2.5,3.1,3.3,5.1c0.8,2,1.2,4.1,1.2,6.3s-0.4,4.4-1.2,6.3s-1.9,3.7-3.3,5.1c-1.4,1.4-3.1,2.6-5,3.4C128.2,33,126,33.4,123.7,33.4
				z M123.7,29.5c1.7,0,3.3-0.3,4.7-1c1.4-0.6,2.6-1.5,3.6-2.6c1-1.1,1.8-2.4,2.3-3.9c0.5-1.5,0.8-3.1,0.8-4.7s-0.3-3.2-0.8-4.7
				s-1.3-2.8-2.3-3.9c-1-1.1-2.2-2-3.6-2.6c-1.4-0.6-3-1-4.7-1c-1.7,0-3.3,0.3-4.7,1c-1.4,0.7-2.6,1.5-3.6,2.6
				c-1,1.1-1.8,2.4-2.3,3.9c-0.5,1.5-0.8,3.1-0.8,4.7s0.3,3.2,0.8,4.7c0.5,1.5,1.3,2.8,2.3,3.9c1,1.1,2.2,2,3.6,2.6
				C120.3,29.2,121.9,29.5,123.7,29.5z"/>
			<path class="st3" d="M142.8,12.2h3.9v2.9h0.1c0.7-1.1,1.8-2,3.1-2.5c1.3-0.6,2.7-0.9,4-0.9c1.6,0,3,0.3,4.3,0.8
				c1.3,0.5,2.4,1.3,3.3,2.3c0.9,1,1.6,2.1,2.1,3.4c0.5,1.3,0.7,2.7,0.7,4.2c0,1.5-0.2,3-0.7,4.2c-0.5,1.3-1.2,2.5-2.1,3.4
				s-2,1.7-3.3,2.3c-1.3,0.5-2.7,0.8-4.3,0.8c-1.5,0-2.8-0.3-4.1-0.9c-1.3-0.6-2.3-1.5-3-2.5h-0.1v15.1h-3.9L142.8,12.2L142.8,12.2z
				 M153.4,15.3c-1,0-2,0.2-2.8,0.5c-0.8,0.4-1.5,0.8-2.1,1.5c-0.6,0.6-1,1.4-1.3,2.2c-0.3,0.9-0.5,1.8-0.5,2.9c0,1,0.2,2,0.5,2.9
				c0.3,0.9,0.8,1.6,1.3,2.2s1.3,1.1,2.1,1.5s1.8,0.5,2.8,0.5c1,0,2-0.2,2.8-0.5c0.8-0.4,1.5-0.8,2.1-1.5c0.6-0.6,1-1.4,1.3-2.2
				c0.3-0.9,0.5-1.8,0.5-2.9c0-1-0.2-2-0.5-2.9c-0.3-0.9-0.8-1.6-1.3-2.2c-0.6-0.6-1.3-1.1-2.1-1.5
				C155.4,15.5,154.5,15.3,153.4,15.3z"/>
			<path class="st3" d="M178.3,17.3c-0.5-0.6-1-1.1-1.7-1.5c-0.7-0.4-1.5-0.6-2.5-0.6c-0.9,0-1.7,0.2-2.4,0.6c-0.7,0.4-1,1-1,1.7
				c0,0.6,0.2,1.1,0.6,1.5c0.4,0.4,0.8,0.7,1.4,0.9c0.5,0.2,1.1,0.4,1.7,0.5c0.6,0.1,1.1,0.2,1.5,0.3c0.8,0.2,1.6,0.5,2.4,0.7
				c0.7,0.3,1.4,0.7,1.9,1.1c0.5,0.5,1,1,1.2,1.7c0.3,0.7,0.5,1.5,0.5,2.4c0,1.2-0.2,2.1-0.7,3c-0.5,0.8-1.1,1.5-1.9,2
				c-0.8,0.5-1.7,0.9-2.7,1.1s-2,0.3-3,0.3c-1.7,0-3.2-0.2-4.5-0.8c-1.3-0.5-2.4-1.5-3.4-2.8l2.9-2.4c0.6,0.6,1.3,1.2,2.1,1.7
				c0.8,0.5,1.7,0.7,2.8,0.7c0.5,0,1,0,1.5-0.2c0.5-0.1,1-0.2,1.3-0.5c0.4-0.2,0.7-0.5,1-0.8c0.2-0.3,0.4-0.7,0.4-1.1
				c0-0.6-0.2-1-0.5-1.4c-0.4-0.4-0.8-0.7-1.3-0.9c-0.5-0.2-1-0.4-1.6-0.5c-0.6-0.1-1.1-0.2-1.5-0.3c-0.8-0.2-1.6-0.4-2.4-0.7
				s-1.4-0.6-2-1c-0.6-0.4-1-1-1.4-1.6c-0.3-0.7-0.5-1.5-0.5-2.5c0-1.1,0.2-2,0.7-2.8c0.5-0.8,1-1.5,1.8-2c0.7-0.5,1.6-0.9,2.5-1.2
				c0.9-0.2,1.9-0.4,2.8-0.4c1.4,0,2.7,0.2,4,0.8c1.3,0.5,2.3,1.4,3,2.6L178.3,17.3z"/>
		</g>
	</g>
	<g class="st0">
		<path class="st1" d="M1.9,3.9c1,0,1.9,0.8,1.9,1.9S2.9,7.7,1.9,7.7S0,6.8,0,5.8l0,0C0,4.8,0.8,3.9,1.9,3.9z M0.6,13.4h2.5v19.2
			H0.6V13.4z"/>
		<path class="st1" d="M8.3,18.8c0-1.4-0.2-4.4-0.2-5.4h2.5c0,1.4,0.1,3,0.2,3.4h0.1c1-2.1,3.4-3.9,6.6-3.9c6,0,7.3,4.1,7.3,8.3
			v11.4h-2.5V21.3c0-3.1-0.9-6.1-4.8-6.1c-3.7,0-6.6,2.6-6.6,7.8v9.6H8.3V18.8z"/>
		<path class="st1" d="M29.6,27.2c1,2,3.3,3.2,5.6,3.2c2.2,0,4.4-1.3,4.4-3.5c0-5.3-11.4-1.6-11.4-8.9c0-3.7,3.4-5.5,6.6-5.5
			c3.1,0,5.5,1.2,6.8,3.6l-2.2,1.3c-1-1.7-2.3-2.7-4.5-2.7c-1.8,0-4.1,1.1-4.1,3.1c0,5.2,11.4,1.2,11.4,8.9c0,3.9-3.3,5.9-6.9,5.9
			c-3.3,0-6.2-1.2-7.7-3.9L29.6,27.2z"/>
		<path class="st1" d="M47,3.9c1,0,1.9,0.8,1.9,1.9S48,7.7,47,7.7c-1,0-1.9-0.8-1.9-1.9l0,0C45.1,4.8,46,3.9,47,3.9z M45.8,13.4h2.5
			v19.2h-2.5V13.4z"/>
		<path class="st1" d="M72.7,31.3c0,9.5-6.3,11.2-10.2,11.2c-3.9,0-7.6-1.5-9.5-4l2-1.8c1.7,2.4,4.6,3.6,7.6,3.6
			c7.6,0,7.7-6.6,7.7-8.8v-2.7h-0.1c-1.5,2.3-4,3.7-7.3,3.7c-5.6,0-10.3-4.4-10.3-9.8s4.6-9.8,10.3-9.8c3.3,0,5.8,1.5,7.3,3.7h0.1
			v-3.2h2.5L72.7,31.3z M62.7,15.1c-4.2,0-7.6,3.4-7.6,7.6s3.4,7.6,7.6,7.6c4.2,0,7.6-3.4,7.6-7.6c0,0,0,0,0,0
			C70.3,18.5,66.9,15.1,62.7,15.1L62.7,15.1z"/>
		<path class="st1" d="M77,1.2h2.5v15.6h0.1c1-2.1,3.4-3.9,6.6-3.9c6,0,7.3,4.1,7.3,8.3v11.4h-2.5V21.3c0-3.1-0.9-6.1-4.8-6.1
			c-3.7,0-6.6,2.6-6.6,7.8v9.6H77V1.2z"/>
		<path class="st1" d="M107.6,15.2h-5.5v12.5c0,1.7,1,2.7,2.7,2.7c1,0,1.9-0.3,2.8-0.7l0.2,2.2c-1,0.4-2.1,0.6-3.2,0.7
			c-3.6,0-4.9-2.2-4.9-4.9V15.2h-4.2v-2.2h4.2V7.4h2.5v5.5h5.5L107.6,15.2z"/>
		<path class="st1" d="M111.1,3.1h4v29.4h-4V3.1z"/>
		<path class="st1" d="M120.7,3.1h10.3c12.4,0,15.4,9.3,15.4,14.7c0,7.5-5.6,14.7-16.1,14.7h-9.6V3.1z M124.7,28.8h5
			c6.7,0,12.5-3.7,12.5-11c0-3.7-1.9-11-11.5-11h-6L124.7,28.8z"/>
		<path class="st1" d="M150.8,3.1h10.3c7.5,0,9.4,4.5,9.4,8.2c0,3.7-2.8,7.3-7.2,7.8l8.4,13.4h-5l-7.5-13h-4.4v13h-4V3.1z
			 M154.8,16.1h5.2c3.2,0,6.3-0.7,6.3-4.7s-3.1-4.7-6.3-4.7h-5.2V16.1z"/>
	</g>
	<g class="st0">
		<g class="st2">
			<path class="st3" d="M0,5.8c0-0.5,0.2-1,0.5-1.3c0.4-0.4,0.8-0.5,1.3-0.5c0.5,0,1,0.2,1.3,0.5c0.4,0.4,0.5,0.8,0.5,1.3
				c0,0.5-0.2,1-0.5,1.3C2.8,7.5,2.4,7.7,1.9,7.7s-1-0.2-1.3-0.5S0,6.4,0,5.8z M0.6,13.4h2.5v19.2H0.6V13.4z"/>
		</g>
		<g class="st2">
			<path class="st3" d="M7.1,18.8c0-0.4,0-0.8,0-1.3C7,17,7,16.5,7,16c0-0.5,0-1-0.1-1.5s0-0.8,0-1.1h2.5c0,0.7,0,1.4,0.1,2.1
				c0,0.7,0,1.1,0.1,1.3h0.1c0.5-1,1.3-2,2.5-2.7s2.5-1.1,4.1-1.1c1.5,0,2.7,0.2,3.7,0.7s1.7,1.1,2.2,1.8c0.5,0.8,0.9,1.6,1.1,2.6
				s0.3,2,0.3,3.1v11.4H21V21.3c0-0.8-0.1-1.5-0.2-2.3c-0.1-0.7-0.4-1.4-0.7-2c-0.3-0.6-0.8-1-1.5-1.4s-1.4-0.5-2.4-0.5
				c-0.9,0-1.8,0.2-2.6,0.5c-0.8,0.3-1.5,0.8-2.1,1.5c-0.6,0.7-1.1,1.5-1.4,2.5c-0.3,1-0.5,2.1-0.5,3.5v9.6H7.1V18.8z"/>
		</g>
		<g class="st2">
			<path class="st3" d="M28.1,27.7c0.5,1,1.3,1.8,2.3,2.3c1,0.5,2.1,0.8,3.2,0.8c0.5,0,1-0.1,1.6-0.2c0.5-0.2,1-0.4,1.4-0.7
				s0.7-0.7,1-1.1c0.3-0.4,0.4-0.9,0.4-1.5c0-0.9-0.3-1.5-0.9-2c-0.6-0.4-1.3-0.8-2.1-1c-0.8-0.2-1.7-0.5-2.7-0.6
				c-1-0.2-1.9-0.5-2.7-0.8c-0.8-0.4-1.5-0.9-2.1-1.6c-0.6-0.7-0.9-1.6-0.9-2.8c0-0.9,0.2-1.7,0.6-2.5c0.4-0.7,0.9-1.3,1.5-1.7
				c0.6-0.5,1.3-0.8,2.1-1c0.8-0.2,1.6-0.3,2.4-0.3c1.6,0,3,0.3,4.1,0.9c1.2,0.6,2,1.5,2.7,2.7l-2.2,1.3c-0.5-0.9-1.1-1.6-1.8-2
				c-0.7-0.5-1.6-0.7-2.8-0.7c-0.5,0-0.9,0.1-1.4,0.2c-0.5,0.1-0.9,0.3-1.3,0.6c-0.4,0.2-0.7,0.6-1,1c-0.3,0.4-0.4,0.8-0.4,1.3
				c0,0.9,0.3,1.5,0.9,1.9c0.6,0.4,1.3,0.7,2.1,1c0.8,0.2,1.7,0.4,2.7,0.6c1,0.2,1.9,0.4,2.7,0.8c0.8,0.4,1.5,0.9,2.1,1.6
				s0.9,1.7,0.9,3c0,1-0.2,1.9-0.6,2.6c-0.4,0.7-0.9,1.3-1.5,1.8c-0.7,0.5-1.4,0.9-2.2,1.1c-0.8,0.2-1.7,0.4-2.6,0.4
				c-1.7,0-3.2-0.3-4.5-1s-2.4-1.6-3.2-3L28.1,27.7z"/>
			<path class="st3" d="M43.5,5.8c0-0.5,0.2-1,0.5-1.3c0.4-0.4,0.8-0.5,1.3-0.5c0.5,0,1,0.2,1.3,0.5c0.4,0.4,0.5,0.8,0.5,1.3
				c0,0.5-0.2,1-0.5,1.3c-0.4,0.4-0.8,0.5-1.3,0.5c-0.5,0-1-0.2-1.3-0.5S43.5,6.4,43.5,5.8z M44.1,13.4h2.5v19.2h-2.5V13.4z"/>
			<path class="st3" d="M70.8,31.4c0,2.4-0.3,4.3-1,5.8c-0.7,1.5-1.6,2.6-2.6,3.4c-1,0.8-2.2,1.3-3.3,1.6c-1.2,0.3-2.3,0.4-3.2,0.4
				c-1,0-1.9-0.1-2.8-0.3c-0.9-0.2-1.8-0.5-2.6-0.8c-0.8-0.3-1.6-0.8-2.3-1.3c-0.7-0.5-1.3-1.1-1.8-1.7l2-1.8c0.9,1.2,2,2.2,3.3,2.7
				s2.7,0.9,4.2,0.9c1.3,0,2.3-0.2,3.2-0.5c0.9-0.3,1.6-0.8,2.2-1.3c0.6-0.5,1-1.1,1.3-1.8c0.3-0.7,0.5-1.3,0.7-2
				c0.2-0.7,0.2-1.3,0.3-1.8c0-0.6,0-1,0-1.4v-2.7h-0.1c-0.7,1.2-1.7,2.1-2.9,2.7c-1.2,0.7-2.7,1-4.3,1c-1.4,0-2.7-0.2-4-0.8
				c-1.2-0.5-2.3-1.2-3.3-2.1c-0.9-0.9-1.7-2-2.2-3.1c-0.5-1.2-0.8-2.5-0.8-3.8c0-1.4,0.3-2.6,0.8-3.8c0.5-1.2,1.3-2.2,2.2-3.1
				c0.9-0.9,2-1.6,3.3-2.1s2.6-0.8,4-0.8c1.7,0,3.1,0.3,4.3,1c1.2,0.7,2.2,1.6,2.9,2.7h0.1v-3.2h2.5L70.8,31.4L70.8,31.4z
				 M68.4,22.8c0-1-0.2-2-0.6-3c-0.4-0.9-0.9-1.7-1.6-2.4c-0.7-0.7-1.5-1.2-2.4-1.6c-0.9-0.4-1.9-0.6-3-0.6c-1,0-2,0.2-3,0.6
				c-0.9,0.4-1.7,0.9-2.4,1.6c-0.7,0.7-1.2,1.5-1.6,2.4c-0.4,0.9-0.6,1.9-0.6,3c0,1,0.2,2,0.6,3c0.4,0.9,0.9,1.7,1.6,2.4
				c0.7,0.7,1.5,1.2,2.4,1.6c0.9,0.4,1.9,0.6,3,0.6c1,0,2-0.2,3-0.6c0.9-0.4,1.7-0.9,2.4-1.6c0.7-0.7,1.2-1.5,1.6-2.4
				C68.2,24.8,68.4,23.8,68.4,22.8z"/>
			<path class="st3" d="M74.9,1.2h2.5v15.6h0.1c0.5-1,1.3-2,2.5-2.7c1.2-0.8,2.5-1.1,4.1-1.1c1.5,0,2.7,0.2,3.7,0.7
				c0.9,0.5,1.7,1.1,2.2,1.8c0.5,0.8,0.9,1.6,1.1,2.6c0.2,1,0.3,2,0.3,3.1v11.4h-2.5V21.3c0-0.8-0.1-1.5-0.2-2.3
				c-0.1-0.7-0.4-1.4-0.7-2c-0.3-0.6-0.8-1-1.5-1.4S85,15.2,84,15.2c-0.9,0-1.8,0.2-2.6,0.5c-0.8,0.3-1.5,0.8-2.1,1.5
				s-1.1,1.5-1.4,2.5s-0.5,2.1-0.5,3.5v9.6h-2.5L74.9,1.2L74.9,1.2z"/>
		</g>
		<g class="st2">
			<path class="st3" d="M105.8,15.7h-5.5v12.5c0,0.9,0.2,1.5,0.7,2c0.5,0.5,1.1,0.7,2,0.7c0.5,0,1-0.1,1.4-0.2
				c0.5-0.1,1-0.3,1.4-0.5l0.2,2.2c-0.5,0.2-1,0.3-1.6,0.5c-0.6,0.1-1.2,0.2-1.6,0.2c-0.9,0-1.7-0.1-2.3-0.4
				c-0.6-0.3-1.2-0.6-1.5-1.1c-0.4-0.4-0.7-1-0.9-1.6c-0.2-0.6-0.3-1.2-0.3-1.9V15.7h-4.2v-2.2h4.2V7.9h2.5v5.5h5.5L105.8,15.7
				L105.8,15.7z"/>
		</g>
		<g class="st2">
			<path class="st3" d="M121.9,2.1h3.7l13.1,30.5h-4.8l-3-7.6h-14.5l-3,7.5h-4.8L121.9,2.1z M129.3,21.5l-5.7-14h-0.1l-5.8,14H129.3
				z"/>
		</g>
		<g class="st2">
			<path class="st3" d="M140.1,12.2h3.9v2.9h0.1c0.7-1.1,1.8-2,3.1-2.5c1.3-0.6,2.7-0.9,4-0.9c1.6,0,3,0.3,4.3,0.8
				c1.3,0.5,2.4,1.3,3.3,2.3c0.9,1,1.6,2.1,2.1,3.4c0.5,1.3,0.7,2.7,0.7,4.2c0,1.5-0.2,3-0.7,4.2c-0.5,1.3-1.2,2.5-2.1,3.4
				s-2,1.7-3.3,2.3c-1.3,0.5-2.7,0.8-4.3,0.8c-1.5,0-2.8-0.3-4.1-0.9c-1.3-0.6-2.3-1.5-3-2.5H144v15.1h-3.9V12.2z M150.7,15.3
				c-1,0-2,0.2-2.8,0.5c-0.8,0.4-1.5,0.8-2.1,1.5c-0.6,0.6-1,1.4-1.3,2.2c-0.3,0.9-0.5,1.8-0.5,2.9c0,1,0.2,2,0.5,2.9
				c0.3,0.9,0.8,1.6,1.3,2.2c0.6,0.6,1.3,1.1,2.1,1.5s1.8,0.5,2.8,0.5c1,0,2-0.2,2.8-0.5c0.8-0.4,1.5-0.8,2.1-1.5
				c0.6-0.6,1-1.4,1.3-2.2c0.3-0.9,0.5-1.8,0.5-2.9c0-1-0.2-2-0.5-2.9c-0.3-0.9-0.8-1.6-1.3-2.2c-0.6-0.6-1.3-1.1-2.1-1.5
				C152.7,15.5,151.8,15.3,150.7,15.3z"/>
		</g>
		<g class="st2">
			<path class="st3" d="M164.8,12.2h3.9v2.9h0.1c0.7-1.1,1.8-2,3.1-2.5c1.3-0.6,2.7-0.9,4-0.9c1.6,0,3,0.3,4.3,0.8
				c1.3,0.5,2.4,1.3,3.3,2.3c0.9,1,1.6,2.1,2.1,3.4c0.5,1.3,0.7,2.7,0.7,4.2c0,1.5-0.2,3-0.7,4.2c-0.5,1.3-1.2,2.5-2.1,3.4
				s-2,1.7-3.3,2.3c-1.3,0.5-2.7,0.8-4.3,0.8c-1.5,0-2.8-0.3-4.1-0.9c-1.3-0.6-2.3-1.5-3-2.5h-0.1v15.1h-3.9L164.8,12.2L164.8,12.2z
				 M175.4,15.3c-1,0-2,0.2-2.8,0.5c-0.8,0.4-1.5,0.8-2.1,1.5c-0.6,0.6-1,1.4-1.3,2.2c-0.3,0.9-0.5,1.8-0.5,2.9c0,1,0.2,2,0.5,2.9
				c0.3,0.9,0.8,1.6,1.3,2.2c0.6,0.6,1.3,1.1,2.1,1.5c0.8,0.4,1.8,0.5,2.8,0.5c1,0,2-0.2,2.8-0.5c0.8-0.4,1.5-0.8,2.1-1.5
				c0.6-0.6,1-1.4,1.3-2.2c0.3-0.9,0.5-1.8,0.5-2.9c0-1-0.2-2-0.5-2.9c-0.3-0.9-0.8-1.6-1.3-2.2c-0.6-0.6-1.3-1.1-2.1-1.5
				C177.4,15.5,176.4,15.3,175.4,15.3z"/>
		</g>
		<g class="st2">
			<path class="st3" d="M189.8,26.3c0.7,1.1,1.7,2,2.9,2.5c1.2,0.5,2.4,0.8,3.6,0.8c0.7,0,1.4-0.1,2.1-0.3c0.7-0.2,1.4-0.5,2-1
				c0.6-0.4,1.1-1,1.5-1.6c0.4-0.6,0.6-1.4,0.6-2.2c0-1.2-0.4-2.1-1.1-2.7c-0.7-0.6-1.7-1.1-2.8-1.5c-1.1-0.4-2.3-0.8-3.6-1.2
				c-1.3-0.4-2.5-0.9-3.6-1.6c-1.1-0.7-2-1.6-2.8-2.8c-0.7-1.2-1.1-2.7-1.1-4.7c0-0.9,0.2-1.8,0.6-2.8c0.4-1,1-1.9,1.8-2.8
				c0.8-0.8,1.9-1.5,3.2-2.1c1.3-0.6,2.9-0.8,4.7-0.8c1.7,0,3.3,0.2,4.8,0.7c1.5,0.5,2.9,1.4,4,2.8l-3.4,3.1c-0.5-0.8-1.2-1.5-2.2-2
				c-1-0.5-2-0.7-3.2-0.7c-1.2,0-2.1,0.2-2.9,0.5C194,6,193.4,6.3,193,6.8c-0.5,0.5-0.8,1-1,1.5c-0.2,0.5-0.3,1-0.3,1.5
				c0,1.3,0.4,2.3,1.1,3c0.7,0.7,1.7,1.2,2.8,1.7c1.1,0.4,2.3,0.8,3.6,1.2s2.5,0.8,3.6,1.5c1.1,0.6,2,1.5,2.8,2.5s1.1,2.5,1.1,4.3
				c0,1.5-0.3,2.8-0.8,4c-0.6,1.2-1.3,2.2-2.3,3s-2.1,1.4-3.4,1.9c-1.3,0.4-2.7,0.6-4.1,0.6c-2,0-3.8-0.3-5.6-1
				c-1.7-0.7-3.2-1.7-4.2-3.2L189.8,26.3z"/>
			<path class="st3" d="M213.1,23.8c0,0.9,0.2,1.7,0.6,2.4c0.4,0.7,0.9,1.4,1.5,1.9c0.6,0.5,1.4,0.9,2.2,1.2
				c0.8,0.3,1.7,0.4,2.6,0.4c1.2,0,2.2-0.3,3.2-0.8c0.9-0.6,1.7-1.3,2.5-2.2l2.9,2.2c-2.2,2.8-5.2,4.2-9.1,4.2
				c-1.6,0-3.1-0.3-4.4-0.8c-1.3-0.5-2.4-1.3-3.3-2.3c-0.9-1-1.6-2.1-2.1-3.4c-0.5-1.3-0.7-2.7-0.7-4.2s0.3-2.9,0.8-4.2
				c0.5-1.3,1.3-2.5,2.2-3.4c0.9-1,2-1.7,3.3-2.3c1.3-0.5,2.7-0.8,4.2-0.8c1.8,0,3.3,0.3,4.6,1c1.2,0.6,2.3,1.5,3.1,2.5
				c0.8,1,1.4,2.2,1.7,3.5c0.4,1.3,0.5,2.6,0.5,3.9v1.4L213.1,23.8L213.1,23.8z M225.3,20.7c0-0.9-0.2-1.7-0.4-2.4
				c-0.2-0.7-0.6-1.3-1.1-1.9c-0.5-0.5-1.1-1-1.8-1.2c-0.7-0.3-1.6-0.5-2.6-0.5c-1,0-1.8,0.2-2.6,0.5c-0.8,0.4-1.5,0.8-2,1.4
				c-0.5,0.6-1,1.2-1.3,1.9s-0.5,1.4-0.5,2.1L225.3,20.7L225.3,20.7z"/>
			<path class="st3" d="M247,17.6c-0.7-0.7-1.5-1.3-2.3-1.7c-0.8-0.4-1.7-0.6-2.8-0.6c-1.1,0-2,0.2-2.8,0.6c-0.8,0.4-1.5,0.9-2,1.6
				c-0.5,0.7-0.9,1.5-1.2,2.3c-0.3,0.9-0.4,1.8-0.4,2.7s0.2,1.8,0.5,2.7c0.3,0.8,0.8,1.6,1.3,2.2s1.3,1.1,2.1,1.5
				c0.8,0.4,1.7,0.5,2.7,0.5c1.1,0,2-0.2,2.8-0.6c0.8-0.4,1.5-1,2.2-1.7l2.8,2.8c-1,1.1-2.2,1.9-3.5,2.4c-1.3,0.5-2.7,0.7-4.2,0.7
				c-1.6,0-3-0.2-4.3-0.8c-1.3-0.5-2.4-1.2-3.4-2.2c-1-0.9-1.7-2.1-2.2-3.4c-0.5-1.3-0.8-2.7-0.8-4.3c0-1.6,0.2-3,0.8-4.4
				c0.5-1.3,1.2-2.5,2.2-3.4c0.9-1,2.1-1.7,3.4-2.2c1.3-0.5,2.8-0.8,4.4-0.8c1.5,0,2.9,0.3,4.3,0.8c1.4,0.5,2.5,1.3,3.6,2.4
				L247,17.6z"/>
		</g>
	</g>
	<g class="st0">
		<path class="st1" d="M1,15.3c2-2,5-2.9,7.6-2.9c5.7,0,8.1,3.2,8.1,6.6V29c0,1.2,0,2.4,0.2,3.6h-3.3c-0.1-1-0.1-2-0.1-3h-0.1
			C11.8,32.1,9.6,33,6.7,33C3.1,33,0,31,0,27.1c0-5.1,4.8-6.8,10.6-6.8h2.7v-0.8c0-2-1.5-4.2-4.6-4.2c-2.8,0-4.1,1.2-5.5,2.2L1,15.3
			z M11.3,23.1c-3.5,0-7.7,0.6-7.7,3.8c0,2.2,1.6,3.2,4.1,3.2c4.1,0,5.5-3.1,5.5-5.7v-1.3H11.3z"/>
		<path class="st1" d="M19.8,12.8h3.7v2.8h0.1c1.4-2.1,4.1-3.3,6.7-3.3c6,0,9.8,4.5,9.8,10.3c0,5.9-3.9,10.3-9.8,10.3
			c-2.8,0-5.4-1.3-6.7-3.3h-0.1v10.2h-3.7L19.8,12.8z M23.5,22.7c0,4,2.4,6.9,6.3,6.9s6.3-2.9,6.3-6.9s-2.4-6.9-6.3-6.9
			S23.5,18.7,23.5,22.7z"/>
		<path class="st1" d="M42.4,12.8h3.7v2.8h0.1c1.4-2.1,4.1-3.3,6.7-3.3c6,0,9.8,4.5,9.8,10.3c0,5.9-3.9,10.3-9.8,10.3
			c-2.8,0-5.4-1.3-6.7-3.3h-0.1l0,10.2h-3.7V12.8z M46.1,22.7c0,4,2.4,6.9,6.3,6.9s6.3-2.9,6.3-6.9s-2.4-6.9-6.3-6.9
			S46.1,18.7,46.1,22.7z"/>
		<path class="st1" d="M65.6,27.6c1,2,3.3,3.2,5.4,3.2c2.1,0,4.3-1.3,4.3-3.5c0-5.3-11.1-1.6-11.1-8.9c0-3.7,3.3-5.5,6.4-5.5
			c3.1,0,5.4,1.2,6.6,3.6L75,17.8c-0.9-1.7-2.2-2.7-4.4-2.7c-1.7,0-4,1.1-4,3.1c0,5.2,11.1,1.2,11.1,8.9c0,3.9-3.2,5.9-6.8,5.9
			c-3.2,0-6.1-1.2-7.6-3.9L65.6,27.6z"/>
		<path class="st1" d="M80.1,13.3h2.4v3.4h0.1c1.5-2.7,4.7-3.9,7.5-3.9c5.8,0,9.9,4.2,9.9,10.1S95.9,33,90.1,33
			c-2.8,0-6-1.2-7.5-3.9h-0.1v10.7h-2.4L80.1,13.3z M90.1,30.8c4.6,0,7.4-3.5,7.4-7.9s-2.8-7.9-7.4-7.9c-4.2,0-7.7,3.5-7.7,7.9
			C82.4,27.3,85.9,30.8,90.1,30.8C90.1,30.8,90.1,30.8,90.1,30.8L90.1,30.8z"/>
		<path class="st1" d="M104.8,3.9c1,0,1.8,0.8,1.8,1.9c0,1-0.8,1.9-1.8,1.9c-1,0-1.8-0.8-1.8-1.9c0,0,0,0,0,0
			C103,4.7,103.8,3.9,104.8,3.9C104.8,3.9,104.8,3.9,104.8,3.9z M103.6,13.3h2.4v19.2h-2.4V13.3z"/>
		<path class="st1" d="M127.2,29.2L127.2,29.2c-1.6,2.7-4.8,3.9-7.6,3.9c-5.8,0-9.9-4.2-9.9-10.1s4.1-10.1,9.9-10.1
			c2.8,0,6,1.2,7.5,3.9h0.1V1.1h2.4v31.4h-2.4V29.2z M119.6,15.1c-4.6,0-7.4,3.5-7.4,7.9s2.8,7.9,7.4,7.9c4.2,0,7.7-3.5,7.7-7.9
			C127.3,18.6,123.8,15.1,119.6,15.1C119.6,15.1,119.6,15.1,119.6,15.1z"/>
		<path class="st1" d="M149.9,28.9c-1.9,2.9-4.8,4.1-8.1,4.1c-5.7,0-9.5-4.2-9.5-10.1c0-5.7,3.9-10.1,9.4-10.1c5.8,0,8.8,4.5,8.8,9
			v1.7h-15.8c0,2.1,1.4,7.2,7.1,7.2c2.5,0,5.1-1.3,6.3-3.4L149.9,28.9z M148.1,21.3c0-3.4-2.9-6.2-6.5-6.2c-5.4,0-6.8,5.2-6.8,6.2
			L148.1,21.3z"/>
		<path class="st1" d="M153.7,18.8c0-1.4-0.2-4.4-0.2-5.4h2.4c0,1.4,0.1,3,0.2,3.4c1.2-2.2,3.2-3.9,6-3.9c0.5,0,1,0.1,1.4,0.2
			l-0.3,2.5c-0.3-0.1-0.6-0.2-0.9-0.2c-4.2,0-6.1,3-6.1,6.7v10.5h-2.4L153.7,18.8z"/>
	</g>
</g>
<g id="Black_Left_Logos" class="st0">
	<g>
		<path class="st5" d="M0,12.3h3.9v3.2H4c1-2.2,3.6-3.7,6.7-3.7c4,0,7.4,2.4,7.4,7.8v13.1h-3.9v-12c0-3.8-2.2-5.2-4.6-5.2
			c-3.2,0-5.7,2.1-5.7,6.8v10.5H0V12.3z"/>
		<path class="st5" d="M24.7,23.9c0,3.6,3.3,5.9,6.9,5.9c2.4,0,4.1-1.2,5.6-3.1l2.9,2.2c-2.2,2.8-5.1,4.2-9,4.2
			c-6.5,0-10.5-4.6-10.5-10.7S25,11.7,31.1,11.7c7.2,0,9.9,5.5,9.9,10.7v1.5H24.7z M36.9,20.8c-0.1-3.4-2-5.9-5.9-5.9
			c-3.3,0-6.1,2.6-6.3,5.9H36.9z"/>
		<path class="st5" d="M49.1,21.8l-7.2-9.5h5l4.9,7.2l4.9-7.2h4.7l-6.9,9.5l8.3,10.9h-5l-6-8.6l-6,8.6h-4.8L49.1,21.8z"/>
		<path class="st5" d="M63.7,12.3h3.9v2.9h0.1c1.5-2.2,4.3-3.4,7.1-3.4c6.3,0,10.4,4.7,10.4,10.7s-4.1,10.7-10.4,10.7
			c-2.9,0-5.7-1.3-7.1-3.4h-0.1v10.6h-3.9L63.7,12.3z M67.6,22.5c0,4.1,2.6,7.1,6.7,7.1s6.7-3,6.7-7.1s-2.6-7.1-6.7-7.1
			S67.6,18.3,67.6,22.5L67.6,22.5z"/>
		<path class="st5" d="M97.7,11.7c5.9,0.1,10.7,4.9,10.6,10.8c-0.1,5.9-4.9,10.7-10.8,10.6c-5.9-0.1-10.6-4.8-10.6-10.7
			c0-5.9,4.8-10.7,10.7-10.7C97.6,11.7,97.7,11.7,97.7,11.7z M97.7,29.6c4.1,0,6.7-3,6.7-7.1s-2.6-7.1-6.7-7.1s-6.7,3-6.7,7.1
			S93.6,29.6,97.7,29.6L97.7,29.6z"/>
		<path class="st5" d="M122.1,17.4c-1-1.3-2.5-2-4.2-2c-1.8,0-3.4,0.8-3.4,2.3c0,2.5,3.5,2.8,5.2,3.2c3.4,0.8,5.9,2.1,5.9,5.9
			c0,4.6-4.2,6.4-8.3,6.4c-3.4,0-5.8-0.9-7.9-3.6l2.9-2.4c1.3,1.3,2.7,2.4,4.9,2.4c2,0,4.1-0.8,4.1-2.6c0-2.3-3.2-2.8-4.9-3.2
			c-3.3-0.8-6.2-1.9-6.2-5.8c0-4.3,3.9-6.3,7.7-6.3c2.7,0,5.5,0.9,6.9,3.4L122.1,17.4z"/>
		<path class="st5" d="M131.1,23.9c0,3.6,3.3,5.9,6.9,5.9c2.4,0,4.1-1.2,5.6-3.1l2.9,2.2c-2.2,2.8-5.1,4.2-9,4.2
			c-6.5,0-10.5-4.6-10.5-10.7s4.4-10.7,10.5-10.7c7.2,0,9.9,5.5,9.9,10.7v1.4H131.1z M143.3,20.8c-0.1-3.4-2-5.9-5.9-5.9
			c-3.3,0-6.1,2.6-6.3,5.9H143.3z"/>
		<path class="st5" d="M148.7,5.6c1.7,0,3,1.4,3,3s-1.4,3-3,3c-1.7,0-3-1.4-3-3c0,0,0,0,0,0C145.7,7,147.1,5.6,148.7,5.6z
			 M148.7,11.2c1.4,0,2.6-1.2,2.6-2.6c0-1.4-1.2-2.6-2.6-2.6c-1.4,0-2.6,1.2-2.6,2.6C146.1,10.1,147.3,11.2,148.7,11.2
			C148.7,11.3,148.7,11.3,148.7,11.2L148.7,11.2z M148.1,10.4h-0.4V6.9h1.3c0.8,0,1.1,0.3,1.1,1c0,0.5-0.4,1-0.9,1l1,1.5h-0.5
			l-1.1-1.5H148L148.1,10.4z M148.1,8.5h0.6c0.5,0,1,0,1-0.6c0-0.4-0.4-0.6-0.8-0.6h-0.8L148.1,8.5z"/>
	</g>
	<g>
		<path class="st5" d="M0,12.1h3.6v3.2h0.1c0.4-1.2,2.9-3.7,6.6-3.7c3,0,5.1,1.3,6.4,3.8c1.3-2.4,3.8-3.8,6.5-3.8
			c6.3,0,7.8,4.5,7.8,9.1v11.9h-3.9V21.2c0-3.1-0.6-6-4.4-6s-5.2,2.5-5.2,6.2v11.2h-3.9V21.9c0-3.9-0.6-6.7-4.3-6.7
			c-2.8,0-5.3,2.1-5.3,6.7v10.6H0V12.1z"/>
		<path class="st5" d="M37.6,23.7c0,3.6,3.3,6,6.9,6c2.4,0,4.1-1.2,5.6-3.1l2.9,2.2C51,31.7,48,33.1,44,33.1
			c-6.5,0-10.6-4.7-10.6-10.8s4.4-10.8,10.6-10.8c7.2,0,10,5.5,10,10.8v1.4L37.6,23.7z M49.9,20.6c-0.1-3.4-2-6-5.9-6
			c-3.4,0-6.1,2.6-6.3,6L49.9,20.6z"/>
		<path class="st5" d="M67.5,15.5H62v9.3c0,2.3,0,4.7,2.9,4.7c1,0,1.9-0.2,2.8-0.6v3.5c-1.1,0.5-2.3,0.7-3.5,0.7c-6,0-6.1-3.7-6.1-7
			V15.5h-4.5v-3.4h4.5V6.3H62v5.8h5.6V15.5z"/>
		<path class="st5" d="M70.5,14.6c2.2-2,5.1-3.1,8.1-3c6.1,0,8.6,3.3,8.6,6.8v10.5c0,1.2,0,2.5,0.2,3.7h-3.5c-0.1-1-0.1-2.1-0.1-3.1
			h-0.1c-1.7,2.6-4.1,3.6-7.2,3.6c-3.8,0-7.1-2.2-7.1-6.1c0-5.3,5.1-7.1,11.3-7.1h2.9V19c0-2.1-1.6-4.3-4.9-4.3
			c-3,0-4.4,1.3-5.8,2.3L70.5,14.6z M81.5,22.7c-3.7,0-8.2,0.6-8.2,3.9c0,2.3,1.7,3.3,4.4,3.3c4.3,0,5.8-3.2,5.8-6v-1.3L81.5,22.7z"
			/>
		<path class="st5" d="M102.2,17.2c-1-1.3-2.6-2.1-4.2-2c-1.8,0-3.4,0.8-3.4,2.3c0,2.5,3.5,2.8,5.2,3.2c3.4,0.8,6,2.1,6,6
			c0,4.6-4.2,6.4-8.3,6.4c-3.4,0-5.9-0.9-7.9-3.6l2.9-2.4c1.3,1.3,2.7,2.4,5,2.4c2,0,4.2-0.8,4.2-2.6c0-2.3-3.2-2.8-4.9-3.2
			c-3.3-0.8-6.3-1.9-6.3-5.8c0-4.3,3.9-6.3,7.8-6.3c2.7,0,5.5,1,7,3.4L102.2,17.2z"/>
		<path class="st5" d="M108.3,12.1h3.9V15h0.1c1.5-2.2,4.4-3.4,7.1-3.4c6.3,0,10.4,4.7,10.4,10.8s-4.1,10.8-10.4,10.8
			c-2.9,0-5.8-1.3-7.1-3.5h-0.1v10.6h-3.9L108.3,12.1z M112.2,22.3c0,4.2,2.6,7.1,6.7,7.1s6.7-3,6.7-7.1s-2.6-7.1-6.8-7.1
			S112.2,18.2,112.2,22.3L112.2,22.3z"/>
		<path class="st5" d="M132.9-0.1h3.9v32.7h-3.9V-0.1z"/>
		<path class="st5" d="M149.6,11.6c6,0.1,10.7,4.9,10.7,10.9c-0.1,6-4.9,10.7-10.9,10.7c-5.9-0.1-10.7-4.9-10.7-10.8
			c0-6,4.8-10.8,10.8-10.8C149.5,11.6,149.5,11.6,149.6,11.6z M149.6,29.5c4.2,0,6.7-3,6.7-7.1s-2.6-7.1-6.7-7.1
			c-4.2,0-6.7,3-6.7,7.1S145.4,29.5,149.6,29.5L149.6,29.5z"/>
		<path class="st5" d="M164.3,1.9c1.6,0,2.9,1.3,2.9,2.9s-1.3,2.9-2.9,2.9c-1.6,0-2.9-1.3-2.9-2.9C161.4,3.2,162.7,1.9,164.3,1.9z
			 M162.3,12.1h3.9v20.5h-3.9V12.1z"/>
		<path class="st5" d="M181.6,15.5H176v9.3c0,2.3,0,4.7,2.9,4.7c1,0,1.9-0.2,2.8-0.6v3.5c-1.1,0.5-2.3,0.7-3.5,0.7
			c-6,0-6.1-3.7-6.1-7V15.5h-4.5v-3.4h4.5V6.3h3.9v5.8h5.6V15.5z"/>
		<path class="st5" d="M182.9,0.1c1.7,0,3,1.4,3,3s-1.4,3-3,3c-1.7,0-3-1.4-3-3v0C179.8,1.5,181.2,0.1,182.9,0.1z M182.9,5.8
			c1.4,0,2.6-1.2,2.6-2.6s-1.2-2.6-2.6-2.6c-1.4,0-2.6,1.2-2.6,2.6c0,0,0,0,0,0C180.3,4.6,181.4,5.8,182.9,5.8L182.9,5.8z
			 M182.2,4.9h-0.4V1.4h1.3c0.8,0,1.1,0.3,1.1,1c0,0.5-0.4,1-0.9,1l1,1.5h-0.5l-1-1.5h-0.6L182.2,4.9z M182.2,3h0.6c0.5,0,1,0,1-0.6
			c0-0.5-0.4-0.6-0.8-0.6h-0.8V3z"/>
	</g>
	<g>
		<g class="st2">
			<path d="M0,5.8c0-0.5,0.2-1,0.5-1.3C0.9,4,1.3,3.9,1.9,3.9c0.5,0,1,0.2,1.3,0.5c0.4,0.4,0.5,0.8,0.5,1.3c0,0.5-0.2,1-0.5,1.3
				C2.8,7.5,2.4,7.6,1.9,7.6s-1-0.2-1.3-0.5C0.2,6.7,0,6.3,0,5.8z M0.6,13.4h2.5v19.2H0.6V13.4z"/>
		</g>
		<g class="st2">
			<path d="M7.1,18.8c0-0.4,0-0.8,0-1.3c0-0.5,0-1-0.1-1.6c0-0.5,0-1-0.1-1.5c0-0.5,0-0.8,0-1.1h2.5c0,0.7,0,1.4,0.1,2.1
				c0,0.7,0,1.1,0.1,1.3h0.1c0.5-1,1.3-2,2.5-2.7c1.2-0.8,2.5-1.1,4.1-1.1c1.5,0,2.7,0.2,3.7,0.7c0.9,0.5,1.7,1.1,2.2,1.8
				c0.5,0.8,0.9,1.6,1.1,2.6c0.2,1,0.3,2,0.3,3.1v11.5h-2.5V21.3c0-0.8-0.1-1.5-0.2-2.3c-0.1-0.7-0.4-1.4-0.7-2
				c-0.3-0.6-0.8-1-1.5-1.4c-0.6-0.3-1.4-0.5-2.4-0.5c-0.9,0-1.8,0.2-2.6,0.5c-0.8,0.3-1.5,0.8-2.1,1.5c-0.6,0.7-1.1,1.5-1.4,2.5
				c-0.3,1-0.5,2.1-0.5,3.5v9.6H7.1V18.8z"/>
		</g>
		<g class="st2">
			<path d="M28.2,27.7c0.5,1,1.3,1.8,2.3,2.3c1,0.5,2.1,0.8,3.3,0.8c0.5,0,1-0.1,1.6-0.3c0.5-0.2,1-0.4,1.4-0.7
				c0.4-0.3,0.8-0.7,1-1.1c0.3-0.4,0.4-0.9,0.4-1.5c0-0.9-0.3-1.5-0.9-2c-0.6-0.4-1.3-0.8-2.1-1c-0.8-0.3-1.8-0.5-2.8-0.6
				c-1-0.2-1.9-0.5-2.8-0.8c-0.8-0.4-1.5-0.9-2.1-1.6c-0.6-0.7-0.9-1.6-0.9-2.8c0-0.9,0.2-1.8,0.6-2.5c0.4-0.7,0.9-1.3,1.5-1.7
				c0.6-0.5,1.3-0.8,2.1-1s1.6-0.3,2.4-0.3c1.6,0,3,0.3,4.1,0.9c1.2,0.6,2,1.5,2.7,2.8l-2.3,1.3c-0.5-0.9-1.1-1.6-1.8-2
				c-0.7-0.5-1.6-0.7-2.8-0.7c-0.5,0-0.9,0.1-1.4,0.2c-0.5,0.1-0.9,0.3-1.3,0.6c-0.4,0.3-0.7,0.6-1,1c-0.3,0.4-0.4,0.8-0.4,1.3
				c0,0.9,0.3,1.5,0.9,1.9c0.6,0.4,1.3,0.8,2.1,1c0.8,0.2,1.8,0.4,2.8,0.6c1,0.2,1.9,0.4,2.8,0.8c0.8,0.4,1.5,0.9,2.1,1.6
				c0.6,0.7,0.9,1.7,0.9,3c0,1-0.2,1.9-0.6,2.6c-0.4,0.7-0.9,1.3-1.5,1.8c-0.7,0.5-1.4,0.9-2.2,1.1c-0.8,0.3-1.7,0.4-2.6,0.4
				c-1.7,0-3.2-0.3-4.6-1c-1.4-0.6-2.4-1.6-3.2-3L28.2,27.7z"/>
			<path d="M43.6,5.8c0-0.5,0.2-1,0.5-1.3c0.4-0.4,0.8-0.5,1.3-0.5c0.5,0,1,0.2,1.3,0.5c0.4,0.4,0.5,0.8,0.5,1.3
				c0,0.5-0.2,1-0.5,1.3c-0.4,0.4-0.8,0.5-1.3,0.5c-0.5,0-1-0.2-1.3-0.5C43.8,6.7,43.6,6.3,43.6,5.8z M44.2,13.4h2.5v19.2h-2.5V13.4
				z"/>
			<path d="M71.1,31.4c0,2.4-0.3,4.3-1,5.8c-0.7,1.5-1.6,2.6-2.6,3.4c-1,0.8-2.2,1.3-3.3,1.6c-1.2,0.3-2.3,0.4-3.3,0.4
				c-1,0-1.9-0.1-2.8-0.3c-0.9-0.2-1.8-0.5-2.6-0.8c-0.8-0.3-1.6-0.8-2.3-1.3c-0.7-0.5-1.3-1.1-1.8-1.7l2-1.8c0.9,1.3,2,2.2,3.3,2.8
				c1.3,0.6,2.8,0.9,4.3,0.9c1.3,0,2.3-0.2,3.2-0.5c0.9-0.3,1.6-0.8,2.2-1.3s1-1.1,1.3-1.8c0.3-0.7,0.5-1.3,0.7-2
				c0.2-0.7,0.3-1.3,0.3-1.8c0-0.6,0-1,0-1.4v-2.7h-0.1c-0.7,1.2-1.7,2.1-2.9,2.8c-1.2,0.7-2.7,1-4.3,1c-1.4,0-2.8-0.3-4-0.8
				c-1.3-0.5-2.3-1.2-3.3-2.1c-0.9-0.9-1.7-2-2.2-3.1c-0.5-1.2-0.8-2.5-0.8-3.8c0-1.4,0.3-2.6,0.8-3.8c0.5-1.2,1.3-2.2,2.2-3.1
				c0.9-0.9,2-1.6,3.3-2.1c1.3-0.5,2.6-0.8,4-0.8c1.7,0,3.1,0.3,4.3,1s2.2,1.6,2.9,2.8h0.1v-3.3h2.5L71.1,31.4L71.1,31.4z
				 M68.6,22.8c0-1-0.2-2-0.6-3c-0.4-0.9-0.9-1.7-1.6-2.4c-0.7-0.7-1.5-1.2-2.4-1.6c-0.9-0.4-1.9-0.6-3-0.6c-1,0-2,0.2-3,0.6
				c-0.9,0.4-1.7,0.9-2.4,1.6c-0.7,0.7-1.2,1.5-1.6,2.4c-0.4,0.9-0.6,1.9-0.6,3c0,1,0.2,2,0.6,3c0.4,0.9,0.9,1.7,1.6,2.4
				c0.7,0.7,1.5,1.2,2.4,1.6c0.9,0.4,1.9,0.6,3,0.6c1,0,2-0.2,3-0.6s1.7-0.9,2.4-1.6c0.7-0.7,1.2-1.5,1.6-2.4
				C68.4,24.8,68.6,23.8,68.6,22.8z"/>
			<path d="M75.1,1.1h2.5v15.6h0.1c0.5-1,1.3-2,2.5-2.7c1.2-0.8,2.5-1.1,4.1-1.1c1.5,0,2.7,0.2,3.7,0.7c0.9,0.5,1.7,1.1,2.2,1.8
				c0.5,0.8,0.9,1.6,1.1,2.6c0.2,1,0.3,2,0.3,3.1v11.5h-2.5V21.3c0-0.8-0.1-1.5-0.2-2.3c-0.1-0.7-0.4-1.4-0.7-2s-0.8-1-1.5-1.4
				c-0.6-0.3-1.4-0.5-2.4-0.5c-0.9,0-1.8,0.2-2.6,0.5c-0.8,0.3-1.5,0.8-2.1,1.5c-0.6,0.7-1.1,1.5-1.4,2.5c-0.3,1-0.5,2.1-0.5,3.5
				v9.6h-2.5L75.1,1.1L75.1,1.1z"/>
		</g>
		<g class="st2">
			<path d="M106.1,15.6h-5.5v12.5c0,0.9,0.2,1.5,0.7,2c0.5,0.5,1.1,0.7,2,0.7c0.5,0,1-0.1,1.4-0.2c0.5-0.1,1-0.3,1.4-0.5l0.2,2.3
				c-0.5,0.2-1,0.3-1.6,0.5c-0.6,0.1-1.2,0.2-1.6,0.2c-0.9,0-1.7-0.1-2.3-0.4c-0.6-0.3-1.2-0.6-1.5-1.1c-0.4-0.4-0.7-1-0.9-1.6
				c-0.2-0.6-0.3-1.3-0.3-1.9V15.6h-4.2v-2.3h4.2V7.9h2.5v5.5h5.5L106.1,15.6L106.1,15.6z"/>
		</g>
		<g class="st2">
			<path d="M105.8,2h4.8l9,24.9h0.1L129,2h4.6l-12.1,30.6h-3.9L105.8,2z"/>
			<path d="M135.2,2h6.2l9.7,23.2h0.2L161,2h6.2v30.6h-4.1V7.5H163l-10.3,25.2h-2.8L139.5,7.5h-0.1v25.2h-4.1L135.2,2L135.2,2z"/>
		</g>
	</g>
	<g>
		<g class="st2">
			<path class="st6" d="M0,5.8c0-0.5,0.2-1,0.5-1.3c0.4-0.4,0.8-0.5,1.3-0.5c0.5,0,1,0.2,1.3,0.5c0.4,0.4,0.5,0.8,0.5,1.3
				c0,0.5-0.2,1-0.5,1.3C2.8,7.5,2.4,7.7,1.9,7.7s-1-0.2-1.3-0.5S0,6.4,0,5.8z M0.6,13.4h2.5v19.2H0.6V13.4z"/>
		</g>
		<g class="st2">
			<path class="st6" d="M7.1,18.8c0-0.4,0-0.8,0-1.3C7,17,7,16.5,7,16c0-0.5,0-1-0.1-1.5s0-0.8,0-1.1h2.5c0,0.7,0,1.4,0.1,2.1
				c0,0.7,0,1.1,0.1,1.3h0.1c0.5-1,1.3-2,2.5-2.7s2.5-1.1,4.1-1.1c1.5,0,2.7,0.2,3.7,0.7s1.7,1.1,2.2,1.8c0.5,0.8,0.9,1.6,1.1,2.6
				s0.3,2,0.3,3.1v11.4H21V21.3c0-0.8-0.1-1.5-0.2-2.3c-0.1-0.7-0.4-1.4-0.7-2c-0.3-0.6-0.8-1-1.5-1.4s-1.4-0.5-2.4-0.5
				c-0.9,0-1.8,0.2-2.6,0.5c-0.8,0.3-1.5,0.8-2.1,1.5c-0.6,0.7-1.1,1.5-1.4,2.5c-0.3,1-0.5,2.1-0.5,3.5v9.6H7.1V18.8z"/>
		</g>
		<g class="st2">
			<path class="st6" d="M28.1,27.7c0.5,1,1.3,1.8,2.3,2.3c1,0.5,2.1,0.8,3.2,0.8c0.5,0,1-0.1,1.6-0.2c0.5-0.2,1-0.4,1.4-0.7
				s0.7-0.7,1-1.1c0.3-0.4,0.4-0.9,0.4-1.5c0-0.9-0.3-1.5-0.9-2c-0.6-0.4-1.3-0.8-2.1-1c-0.8-0.2-1.7-0.5-2.7-0.6
				c-1-0.2-1.9-0.5-2.7-0.8c-0.8-0.4-1.5-0.9-2.1-1.6c-0.6-0.7-0.9-1.6-0.9-2.8c0-0.9,0.2-1.7,0.6-2.5c0.4-0.7,0.9-1.3,1.5-1.7
				c0.6-0.5,1.3-0.8,2.1-1c0.8-0.2,1.6-0.3,2.4-0.3c1.6,0,3,0.3,4.1,0.9c1.2,0.6,2,1.5,2.7,2.7l-2.2,1.3c-0.5-0.9-1.1-1.6-1.8-2
				c-0.7-0.5-1.6-0.7-2.8-0.7c-0.5,0-0.9,0.1-1.4,0.2c-0.5,0.1-0.9,0.3-1.3,0.6c-0.4,0.2-0.7,0.6-1,1c-0.3,0.4-0.4,0.8-0.4,1.3
				c0,0.9,0.3,1.5,0.9,1.9c0.6,0.4,1.3,0.7,2.1,1c0.8,0.2,1.7,0.4,2.7,0.6c1,0.2,1.9,0.4,2.7,0.8c0.8,0.4,1.5,0.9,2.1,1.6
				s0.9,1.7,0.9,3c0,1-0.2,1.9-0.6,2.6c-0.4,0.7-0.9,1.3-1.5,1.8c-0.7,0.5-1.4,0.9-2.2,1.1c-0.8,0.2-1.7,0.4-2.6,0.4
				c-1.7,0-3.2-0.3-4.5-1s-2.4-1.6-3.2-3L28.1,27.7z"/>
			<path class="st6" d="M43.5,5.8c0-0.5,0.2-1,0.5-1.3c0.4-0.4,0.8-0.5,1.3-0.5c0.5,0,1,0.2,1.3,0.5c0.4,0.4,0.5,0.8,0.5,1.3
				c0,0.5-0.2,1-0.5,1.3c-0.4,0.4-0.8,0.5-1.3,0.5c-0.5,0-1-0.2-1.3-0.5S43.5,6.4,43.5,5.8z M44.1,13.4h2.5v19.2h-2.5V13.4z"/>
			<path class="st6" d="M70.8,31.4c0,2.4-0.3,4.3-1,5.8c-0.7,1.5-1.6,2.6-2.6,3.4c-1,0.8-2.2,1.3-3.3,1.6c-1.2,0.3-2.3,0.4-3.2,0.4
				c-1,0-1.9-0.1-2.8-0.3c-0.9-0.2-1.8-0.5-2.6-0.8c-0.8-0.3-1.6-0.8-2.3-1.3c-0.7-0.5-1.3-1.1-1.8-1.7l2-1.8c0.9,1.2,2,2.2,3.3,2.7
				s2.7,0.9,4.2,0.9c1.3,0,2.3-0.2,3.2-0.5c0.9-0.3,1.6-0.8,2.2-1.3c0.6-0.5,1-1.1,1.3-1.8c0.3-0.7,0.5-1.3,0.7-2
				c0.2-0.7,0.2-1.3,0.3-1.8c0-0.6,0-1,0-1.4v-2.7h-0.1c-0.7,1.2-1.7,2.1-2.9,2.7c-1.2,0.7-2.7,1-4.3,1c-1.4,0-2.7-0.2-4-0.8
				c-1.2-0.5-2.3-1.2-3.3-2.1c-0.9-0.9-1.7-2-2.2-3.1c-0.5-1.2-0.8-2.5-0.8-3.8c0-1.4,0.3-2.6,0.8-3.8c0.5-1.2,1.3-2.2,2.2-3.1
				c0.9-0.9,2-1.6,3.3-2.1s2.6-0.8,4-0.8c1.7,0,3.1,0.3,4.3,1c1.2,0.7,2.2,1.6,2.9,2.7h0.1v-3.2h2.5L70.8,31.4L70.8,31.4z
				 M68.4,22.8c0-1-0.2-2-0.6-3c-0.4-0.9-0.9-1.7-1.6-2.4c-0.7-0.7-1.5-1.2-2.4-1.6c-0.9-0.4-1.9-0.6-3-0.6c-1,0-2,0.2-3,0.6
				c-0.9,0.4-1.7,0.9-2.4,1.6c-0.7,0.7-1.2,1.5-1.6,2.4c-0.4,0.9-0.6,1.9-0.6,3c0,1,0.2,2,0.6,3c0.4,0.9,0.9,1.7,1.6,2.4
				c0.7,0.7,1.5,1.2,2.4,1.6c0.9,0.4,1.9,0.6,3,0.6c1,0,2-0.2,3-0.6c0.9-0.4,1.7-0.9,2.4-1.6c0.7-0.7,1.2-1.5,1.6-2.4
				C68.2,24.8,68.4,23.8,68.4,22.8z"/>
			<path class="st6" d="M74.9,1.2h2.5v15.6h0.1c0.5-1,1.3-2,2.5-2.7c1.2-0.8,2.5-1.1,4.1-1.1c1.5,0,2.7,0.2,3.7,0.7
				c0.9,0.5,1.7,1.1,2.2,1.8c0.5,0.8,0.9,1.6,1.1,2.6c0.2,1,0.3,2,0.3,3.1v11.4h-2.5V21.3c0-0.8-0.1-1.5-0.2-2.3
				c-0.1-0.7-0.4-1.4-0.7-2c-0.3-0.6-0.8-1-1.5-1.4S85,15.2,84,15.2c-0.9,0-1.8,0.2-2.6,0.5c-0.8,0.3-1.5,0.8-2.1,1.5
				s-1.1,1.5-1.4,2.5s-0.5,2.1-0.5,3.5v9.6h-2.5L74.9,1.2L74.9,1.2z"/>
		</g>
		<g class="st2">
			<path class="st6" d="M105.8,15.7h-5.5v12.5c0,0.9,0.2,1.5,0.7,2c0.5,0.5,1.1,0.7,2,0.7c0.5,0,1-0.1,1.4-0.2
				c0.5-0.1,1-0.3,1.4-0.5l0.2,2.2c-0.5,0.2-1,0.3-1.6,0.5c-0.6,0.1-1.2,0.2-1.6,0.2c-0.9,0-1.7-0.1-2.3-0.4
				c-0.6-0.3-1.2-0.6-1.5-1.1c-0.4-0.4-0.7-1-0.9-1.6c-0.2-0.6-0.3-1.2-0.3-1.9V15.7h-4.2v-2.2h4.2V7.9h2.5v5.5h5.5L105.8,15.7
				L105.8,15.7z"/>
		</g>
		<g class="st2">
			<path class="st6" d="M123.7,33.4c-2.3,0-4.5-0.4-6.4-1.2c-2-0.8-3.6-2-5-3.4c-1.4-1.4-2.5-3.1-3.3-5.1c-0.8-2-1.2-4.1-1.2-6.3
				s0.4-4.4,1.2-6.3c0.8-2,1.9-3.7,3.3-5.1c1.4-1.4,3.1-2.6,5-3.4c2-0.8,4.1-1.2,6.4-1.2s4.5,0.4,6.4,1.2s3.6,2,5,3.4
				s2.5,3.1,3.3,5.1c0.8,2,1.2,4.1,1.2,6.3s-0.4,4.4-1.2,6.3s-1.9,3.7-3.3,5.1c-1.4,1.4-3.1,2.6-5,3.4C128.2,33,126,33.4,123.7,33.4
				z M123.7,29.5c1.7,0,3.3-0.3,4.7-1c1.4-0.6,2.6-1.5,3.6-2.6c1-1.1,1.8-2.4,2.3-3.9c0.5-1.5,0.8-3.1,0.8-4.7s-0.3-3.2-0.8-4.7
				s-1.3-2.8-2.3-3.9c-1-1.1-2.2-2-3.6-2.6c-1.4-0.6-3-1-4.7-1c-1.7,0-3.3,0.3-4.7,1c-1.4,0.7-2.6,1.5-3.6,2.6
				c-1,1.1-1.8,2.4-2.3,3.9c-0.5,1.5-0.8,3.1-0.8,4.7s0.3,3.2,0.8,4.7c0.5,1.5,1.3,2.8,2.3,3.9c1,1.1,2.2,2,3.6,2.6
				C120.3,29.2,121.9,29.5,123.7,29.5z"/>
			<path class="st6" d="M142.8,12.2h3.9v2.9h0.1c0.7-1.1,1.8-2,3.1-2.5c1.3-0.6,2.7-0.9,4-0.9c1.6,0,3,0.3,4.3,0.8
				c1.3,0.5,2.4,1.3,3.3,2.3c0.9,1,1.6,2.1,2.1,3.4c0.5,1.3,0.7,2.7,0.7,4.2c0,1.5-0.2,3-0.7,4.2c-0.5,1.3-1.2,2.5-2.1,3.4
				s-2,1.7-3.3,2.3c-1.3,0.5-2.7,0.8-4.3,0.8c-1.5,0-2.8-0.3-4.1-0.9c-1.3-0.6-2.3-1.5-3-2.5h-0.1v15.1h-3.9L142.8,12.2L142.8,12.2z
				 M153.4,15.3c-1,0-2,0.2-2.8,0.5c-0.8,0.4-1.5,0.8-2.1,1.5c-0.6,0.6-1,1.4-1.3,2.2c-0.3,0.9-0.5,1.8-0.5,2.9c0,1,0.2,2,0.5,2.9
				c0.3,0.9,0.8,1.6,1.3,2.2s1.3,1.1,2.1,1.5s1.8,0.5,2.8,0.5c1,0,2-0.2,2.8-0.5c0.8-0.4,1.5-0.8,2.1-1.5c0.6-0.6,1-1.4,1.3-2.2
				c0.3-0.9,0.5-1.8,0.5-2.9c0-1-0.2-2-0.5-2.9c-0.3-0.9-0.8-1.6-1.3-2.2c-0.6-0.6-1.3-1.1-2.1-1.5
				C155.4,15.5,154.5,15.3,153.4,15.3z"/>
			<path class="st6" d="M178.3,17.3c-0.5-0.6-1-1.1-1.7-1.5c-0.7-0.4-1.5-0.6-2.5-0.6c-0.9,0-1.7,0.2-2.4,0.6c-0.7,0.4-1,1-1,1.7
				c0,0.6,0.2,1.1,0.6,1.5c0.4,0.4,0.8,0.7,1.4,0.9c0.5,0.2,1.1,0.4,1.7,0.5c0.6,0.1,1.1,0.2,1.5,0.3c0.8,0.2,1.6,0.5,2.4,0.7
				c0.7,0.3,1.4,0.7,1.9,1.1c0.5,0.5,1,1,1.2,1.7c0.3,0.7,0.5,1.5,0.5,2.4c0,1.2-0.2,2.1-0.7,3c-0.5,0.8-1.1,1.5-1.9,2
				c-0.8,0.5-1.7,0.9-2.7,1.1s-2,0.3-3,0.3c-1.7,0-3.2-0.2-4.5-0.8c-1.3-0.5-2.4-1.5-3.4-2.8l2.9-2.4c0.6,0.6,1.3,1.2,2.1,1.7
				c0.8,0.5,1.7,0.7,2.8,0.7c0.5,0,1,0,1.5-0.2c0.5-0.1,1-0.2,1.3-0.5c0.4-0.2,0.7-0.5,1-0.8c0.2-0.3,0.4-0.7,0.4-1.1
				c0-0.6-0.2-1-0.5-1.4c-0.4-0.4-0.8-0.7-1.3-0.9c-0.5-0.2-1-0.4-1.6-0.5c-0.6-0.1-1.1-0.2-1.5-0.3c-0.8-0.2-1.6-0.4-2.4-0.7
				s-1.4-0.6-2-1c-0.6-0.4-1-1-1.4-1.6c-0.3-0.7-0.5-1.5-0.5-2.5c0-1.1,0.2-2,0.7-2.8c0.5-0.8,1-1.5,1.8-2c0.7-0.5,1.6-0.9,2.5-1.2
				c0.9-0.2,1.9-0.4,2.8-0.4c1.4,0,2.7,0.2,4,0.8c1.3,0.5,2.3,1.4,3,2.6L178.3,17.3z"/>
		</g>
	</g>
	<g>
		<path class="st5" d="M1.9,3.9c1,0,1.9,0.8,1.9,1.9S2.9,7.7,1.9,7.7S0,6.8,0,5.8l0,0C0,4.8,0.8,3.9,1.9,3.9z M0.6,13.4h2.5v19.2
			H0.6V13.4z"/>
		<path class="st5" d="M8.3,18.8c0-1.4-0.2-4.4-0.2-5.4h2.5c0,1.4,0.1,3,0.2,3.4h0.1c1-2.1,3.4-3.9,6.6-3.9c6,0,7.3,4.1,7.3,8.3
			v11.4h-2.5V21.3c0-3.1-0.9-6.1-4.8-6.1c-3.7,0-6.6,2.6-6.6,7.8v9.6H8.3V18.8z"/>
		<path class="st5" d="M29.6,27.2c1,2,3.3,3.2,5.6,3.2c2.2,0,4.4-1.3,4.4-3.5c0-5.3-11.4-1.6-11.4-8.9c0-3.7,3.4-5.5,6.6-5.5
			c3.1,0,5.5,1.2,6.8,3.6l-2.2,1.3c-1-1.7-2.3-2.7-4.5-2.7c-1.8,0-4.1,1.1-4.1,3.1c0,5.2,11.4,1.2,11.4,8.9c0,3.9-3.3,5.9-6.9,5.9
			c-3.3,0-6.2-1.2-7.7-3.9L29.6,27.2z"/>
		<path class="st5" d="M47,3.9c1,0,1.9,0.8,1.9,1.9S48,7.7,47,7.7c-1,0-1.9-0.8-1.9-1.9l0,0C45.1,4.8,46,3.9,47,3.9z M45.8,13.4h2.5
			v19.2h-2.5V13.4z"/>
		<path class="st5" d="M72.7,31.3c0,9.5-6.3,11.2-10.2,11.2c-3.9,0-7.6-1.5-9.5-4l2-1.8c1.7,2.4,4.6,3.6,7.6,3.6
			c7.6,0,7.7-6.6,7.7-8.8v-2.7h-0.1c-1.5,2.3-4,3.7-7.3,3.7c-5.6,0-10.3-4.4-10.3-9.8s4.6-9.8,10.3-9.8c3.3,0,5.8,1.5,7.3,3.7h0.1
			v-3.2h2.5L72.7,31.3z M62.7,15.1c-4.2,0-7.6,3.4-7.6,7.6s3.4,7.6,7.6,7.6c4.2,0,7.6-3.4,7.6-7.6c0,0,0,0,0,0
			C70.3,18.5,66.9,15.1,62.7,15.1L62.7,15.1z"/>
		<path class="st5" d="M77,1.2h2.5v15.6h0.1c1-2.1,3.4-3.9,6.6-3.9c6,0,7.3,4.1,7.3,8.3v11.4h-2.5V21.3c0-3.1-0.9-6.1-4.8-6.1
			c-3.7,0-6.6,2.6-6.6,7.8v9.6H77V1.2z"/>
		<path class="st5" d="M107.6,15.2h-5.5v12.5c0,1.7,1,2.7,2.7,2.7c1,0,1.9-0.3,2.8-0.7l0.2,2.2c-1,0.4-2.1,0.6-3.2,0.7
			c-3.6,0-4.9-2.2-4.9-4.9V15.2h-4.2v-2.2h4.2V7.4h2.5v5.5h5.5L107.6,15.2z"/>
		<path class="st5" d="M111.1,3.1h4v29.4h-4V3.1z"/>
		<path class="st5" d="M120.7,3.1h10.3c12.4,0,15.4,9.3,15.4,14.7c0,7.5-5.6,14.7-16.1,14.7h-9.6V3.1z M124.7,28.8h5
			c6.7,0,12.5-3.7,12.5-11c0-3.7-1.9-11-11.5-11h-6L124.7,28.8z"/>
		<path class="st5" d="M150.8,3.1h10.3c7.5,0,9.4,4.5,9.4,8.2c0,3.7-2.8,7.3-7.2,7.8l8.4,13.4h-5l-7.5-13h-4.4v13h-4V3.1z
			 M154.8,16.1h5.2c3.2,0,6.3-0.7,6.3-4.7s-3.1-4.7-6.3-4.7h-5.2V16.1z"/>
	</g>
	<g>
		<g class="st2">
			<path d="M0,5.8c0-0.5,0.2-1,0.5-1.3c0.4-0.4,0.8-0.5,1.3-0.5c0.5,0,1,0.2,1.3,0.5c0.4,0.4,0.5,0.8,0.5,1.3c0,0.5-0.2,1-0.5,1.3
				C2.8,7.5,2.4,7.7,1.9,7.7s-1-0.2-1.3-0.5S0,6.4,0,5.8z M0.6,13.4h2.5v19.2H0.6V13.4z"/>
		</g>
		<g class="st2">
			<path d="M7.1,18.8c0-0.4,0-0.8,0-1.3C7,17,7,16.5,7,16c0-0.5,0-1-0.1-1.5s0-0.8,0-1.1h2.5c0,0.7,0,1.4,0.1,2.1
				c0,0.7,0,1.1,0.1,1.3h0.1c0.5-1,1.3-2,2.5-2.7s2.5-1.1,4.1-1.1c1.5,0,2.7,0.2,3.7,0.7s1.7,1.1,2.2,1.8c0.5,0.8,0.9,1.6,1.1,2.6
				s0.3,2,0.3,3.1v11.4H21V21.3c0-0.8-0.1-1.5-0.2-2.3c-0.1-0.7-0.4-1.4-0.7-2c-0.3-0.6-0.8-1-1.5-1.4s-1.4-0.5-2.4-0.5
				c-0.9,0-1.8,0.2-2.6,0.5c-0.8,0.3-1.5,0.8-2.1,1.5c-0.6,0.7-1.1,1.5-1.4,2.5c-0.3,1-0.5,2.1-0.5,3.5v9.6H7.1V18.8z"/>
		</g>
		<g class="st2">
			<path d="M28.1,27.7c0.5,1,1.3,1.8,2.3,2.3c1,0.5,2.1,0.8,3.2,0.8c0.5,0,1-0.1,1.6-0.2c0.5-0.2,1-0.4,1.4-0.7s0.7-0.7,1-1.1
				c0.3-0.4,0.4-0.9,0.4-1.5c0-0.9-0.3-1.5-0.9-2c-0.6-0.4-1.3-0.8-2.1-1c-0.8-0.2-1.7-0.5-2.7-0.6c-1-0.2-1.9-0.5-2.7-0.8
				c-0.8-0.4-1.5-0.9-2.1-1.6c-0.6-0.7-0.9-1.6-0.9-2.8c0-0.9,0.2-1.7,0.6-2.5c0.4-0.7,0.9-1.3,1.5-1.7c0.6-0.5,1.3-0.8,2.1-1
				c0.8-0.2,1.6-0.3,2.4-0.3c1.6,0,3,0.3,4.1,0.9c1.2,0.6,2,1.5,2.7,2.7l-2.2,1.3c-0.5-0.9-1.1-1.6-1.8-2c-0.7-0.5-1.6-0.7-2.8-0.7
				c-0.5,0-0.9,0.1-1.4,0.2c-0.5,0.1-0.9,0.3-1.3,0.6c-0.4,0.2-0.7,0.6-1,1c-0.3,0.4-0.4,0.8-0.4,1.3c0,0.9,0.3,1.5,0.9,1.9
				c0.6,0.4,1.3,0.7,2.1,1c0.8,0.2,1.7,0.4,2.7,0.6c1,0.2,1.9,0.4,2.7,0.8c0.8,0.4,1.5,0.9,2.1,1.6s0.9,1.7,0.9,3
				c0,1-0.2,1.9-0.6,2.6c-0.4,0.7-0.9,1.3-1.5,1.8c-0.7,0.5-1.4,0.9-2.2,1.1c-0.8,0.2-1.7,0.4-2.6,0.4c-1.7,0-3.2-0.3-4.5-1
				s-2.4-1.6-3.2-3L28.1,27.7z"/>
			<path d="M43.5,5.8c0-0.5,0.2-1,0.5-1.3c0.4-0.4,0.8-0.5,1.3-0.5c0.5,0,1,0.2,1.3,0.5c0.4,0.4,0.5,0.8,0.5,1.3
				c0,0.5-0.2,1-0.5,1.3c-0.4,0.4-0.8,0.5-1.3,0.5c-0.5,0-1-0.2-1.3-0.5S43.5,6.4,43.5,5.8z M44.1,13.4h2.5v19.2h-2.5V13.4z"/>
			<path d="M70.8,31.4c0,2.4-0.3,4.3-1,5.8c-0.7,1.5-1.6,2.6-2.6,3.4c-1,0.8-2.2,1.3-3.3,1.6c-1.2,0.3-2.3,0.4-3.2,0.4
				c-1,0-1.9-0.1-2.8-0.3c-0.9-0.2-1.8-0.5-2.6-0.8c-0.8-0.3-1.6-0.8-2.3-1.3c-0.7-0.5-1.3-1.1-1.8-1.7l2-1.8c0.9,1.2,2,2.2,3.3,2.7
				s2.7,0.9,4.2,0.9c1.3,0,2.3-0.2,3.2-0.5c0.9-0.3,1.6-0.8,2.2-1.3c0.6-0.5,1-1.1,1.3-1.8c0.3-0.7,0.5-1.3,0.7-2
				c0.2-0.7,0.2-1.3,0.3-1.8c0-0.6,0-1,0-1.4v-2.7h-0.1c-0.7,1.2-1.7,2.1-2.9,2.7c-1.2,0.7-2.7,1-4.3,1c-1.4,0-2.7-0.2-4-0.8
				c-1.2-0.5-2.3-1.2-3.3-2.1c-0.9-0.9-1.7-2-2.2-3.1c-0.5-1.2-0.8-2.5-0.8-3.8c0-1.4,0.3-2.6,0.8-3.8c0.5-1.2,1.3-2.2,2.2-3.1
				c0.9-0.9,2-1.6,3.3-2.1s2.6-0.8,4-0.8c1.7,0,3.1,0.3,4.3,1c1.2,0.7,2.2,1.6,2.9,2.7h0.1v-3.2h2.5L70.8,31.4L70.8,31.4z
				 M68.4,22.8c0-1-0.2-2-0.6-3c-0.4-0.9-0.9-1.7-1.6-2.4c-0.7-0.7-1.5-1.2-2.4-1.6c-0.9-0.4-1.9-0.6-3-0.6c-1,0-2,0.2-3,0.6
				c-0.9,0.4-1.7,0.9-2.4,1.6c-0.7,0.7-1.2,1.5-1.6,2.4c-0.4,0.9-0.6,1.9-0.6,3c0,1,0.2,2,0.6,3c0.4,0.9,0.9,1.7,1.6,2.4
				c0.7,0.7,1.5,1.2,2.4,1.6c0.9,0.4,1.9,0.6,3,0.6c1,0,2-0.2,3-0.6c0.9-0.4,1.7-0.9,2.4-1.6c0.7-0.7,1.2-1.5,1.6-2.4
				C68.2,24.8,68.4,23.8,68.4,22.8z"/>
			<path d="M74.9,1.2h2.5v15.6h0.1c0.5-1,1.3-2,2.5-2.7c1.2-0.8,2.5-1.1,4.1-1.1c1.5,0,2.7,0.2,3.7,0.7c0.9,0.5,1.7,1.1,2.2,1.8
				c0.5,0.8,0.9,1.6,1.1,2.6c0.2,1,0.3,2,0.3,3.1v11.4h-2.5V21.3c0-0.8-0.1-1.5-0.2-2.3c-0.1-0.7-0.4-1.4-0.7-2
				c-0.3-0.6-0.8-1-1.5-1.4S85,15.2,84,15.2c-0.9,0-1.8,0.2-2.6,0.5c-0.8,0.3-1.5,0.8-2.1,1.5s-1.1,1.5-1.4,2.5s-0.5,2.1-0.5,3.5
				v9.6h-2.5L74.9,1.2L74.9,1.2z"/>
		</g>
		<g class="st2">
			<path d="M105.8,15.7h-5.5v12.5c0,0.9,0.2,1.5,0.7,2c0.5,0.5,1.1,0.7,2,0.7c0.5,0,1-0.1,1.4-0.2c0.5-0.1,1-0.3,1.4-0.5l0.2,2.2
				c-0.5,0.2-1,0.3-1.6,0.5c-0.6,0.1-1.2,0.2-1.6,0.2c-0.9,0-1.7-0.1-2.3-0.4c-0.6-0.3-1.2-0.6-1.5-1.1c-0.4-0.4-0.7-1-0.9-1.6
				c-0.2-0.6-0.3-1.2-0.3-1.9V15.7h-4.2v-2.2h4.2V7.9h2.5v5.5h5.5L105.8,15.7L105.8,15.7z"/>
		</g>
		<g class="st2">
			<path d="M121.9,2.1h3.7l13.1,30.5h-4.8l-3-7.6h-14.5l-3,7.5h-4.8L121.9,2.1z M129.3,21.5l-5.7-14h-0.1l-5.8,14H129.3z"/>
		</g>
		<g class="st2">
			<path d="M140.1,12.2h3.9v2.9h0.1c0.7-1.1,1.8-2,3.1-2.5c1.3-0.6,2.7-0.9,4-0.9c1.6,0,3,0.3,4.3,0.8c1.3,0.5,2.4,1.3,3.3,2.3
				c0.9,1,1.6,2.1,2.1,3.4c0.5,1.3,0.7,2.7,0.7,4.2c0,1.5-0.2,3-0.7,4.2c-0.5,1.3-1.2,2.5-2.1,3.4s-2,1.7-3.3,2.3
				c-1.3,0.5-2.7,0.8-4.3,0.8c-1.5,0-2.8-0.3-4.1-0.9c-1.3-0.6-2.3-1.5-3-2.5H144v15.1h-3.9V12.2z M150.7,15.3c-1,0-2,0.2-2.8,0.5
				c-0.8,0.4-1.5,0.8-2.1,1.5c-0.6,0.6-1,1.4-1.3,2.2c-0.3,0.9-0.5,1.8-0.5,2.9c0,1,0.2,2,0.5,2.9c0.3,0.9,0.8,1.6,1.3,2.2
				c0.6,0.6,1.3,1.1,2.1,1.5s1.8,0.5,2.8,0.5c1,0,2-0.2,2.8-0.5c0.8-0.4,1.5-0.8,2.1-1.5c0.6-0.6,1-1.4,1.3-2.2
				c0.3-0.9,0.5-1.8,0.5-2.9c0-1-0.2-2-0.5-2.9c-0.3-0.9-0.8-1.6-1.3-2.2c-0.6-0.6-1.3-1.1-2.1-1.5
				C152.7,15.5,151.8,15.3,150.7,15.3z"/>
		</g>
		<g class="st2">
			<path d="M164.8,12.2h3.9v2.9h0.1c0.7-1.1,1.8-2,3.1-2.5c1.3-0.6,2.7-0.9,4-0.9c1.6,0,3,0.3,4.3,0.8c1.3,0.5,2.4,1.3,3.3,2.3
				c0.9,1,1.6,2.1,2.1,3.4c0.5,1.3,0.7,2.7,0.7,4.2c0,1.5-0.2,3-0.7,4.2c-0.5,1.3-1.2,2.5-2.1,3.4s-2,1.7-3.3,2.3
				c-1.3,0.5-2.7,0.8-4.3,0.8c-1.5,0-2.8-0.3-4.1-0.9c-1.3-0.6-2.3-1.5-3-2.5h-0.1v15.1h-3.9L164.8,12.2L164.8,12.2z M175.4,15.3
				c-1,0-2,0.2-2.8,0.5c-0.8,0.4-1.5,0.8-2.1,1.5c-0.6,0.6-1,1.4-1.3,2.2c-0.3,0.9-0.5,1.8-0.5,2.9c0,1,0.2,2,0.5,2.9
				c0.3,0.9,0.8,1.6,1.3,2.2c0.6,0.6,1.3,1.1,2.1,1.5c0.8,0.4,1.8,0.5,2.8,0.5c1,0,2-0.2,2.8-0.5c0.8-0.4,1.5-0.8,2.1-1.5
				c0.6-0.6,1-1.4,1.3-2.2c0.3-0.9,0.5-1.8,0.5-2.9c0-1-0.2-2-0.5-2.9c-0.3-0.9-0.8-1.6-1.3-2.2c-0.6-0.6-1.3-1.1-2.1-1.5
				C177.4,15.5,176.4,15.3,175.4,15.3z"/>
		</g>
		<g class="st2">
			<path d="M189.8,26.3c0.7,1.1,1.7,2,2.9,2.5c1.2,0.5,2.4,0.8,3.6,0.8c0.7,0,1.4-0.1,2.1-0.3c0.7-0.2,1.4-0.5,2-1
				c0.6-0.4,1.1-1,1.5-1.6c0.4-0.6,0.6-1.4,0.6-2.2c0-1.2-0.4-2.1-1.1-2.7c-0.7-0.6-1.7-1.1-2.8-1.5c-1.1-0.4-2.3-0.8-3.6-1.2
				c-1.3-0.4-2.5-0.9-3.6-1.6c-1.1-0.7-2-1.6-2.8-2.8c-0.7-1.2-1.1-2.7-1.1-4.7c0-0.9,0.2-1.8,0.6-2.8c0.4-1,1-1.9,1.8-2.8
				c0.8-0.8,1.9-1.5,3.2-2.1c1.3-0.6,2.9-0.8,4.7-0.8c1.7,0,3.3,0.2,4.8,0.7c1.5,0.5,2.9,1.4,4,2.8l-3.4,3.1c-0.5-0.8-1.2-1.5-2.2-2
				c-1-0.5-2-0.7-3.2-0.7c-1.2,0-2.1,0.2-2.9,0.5C194,6,193.4,6.3,193,6.8c-0.5,0.5-0.8,1-1,1.5c-0.2,0.5-0.3,1-0.3,1.5
				c0,1.3,0.4,2.3,1.1,3c0.7,0.7,1.7,1.2,2.8,1.7c1.1,0.4,2.3,0.8,3.6,1.2s2.5,0.8,3.6,1.5c1.1,0.6,2,1.5,2.8,2.5s1.1,2.5,1.1,4.3
				c0,1.5-0.3,2.8-0.8,4c-0.6,1.2-1.3,2.2-2.3,3s-2.1,1.4-3.4,1.9c-1.3,0.4-2.7,0.6-4.1,0.6c-2,0-3.8-0.3-5.6-1
				c-1.7-0.7-3.2-1.7-4.2-3.2L189.8,26.3z"/>
			<path d="M213.1,23.8c0,0.9,0.2,1.7,0.6,2.4c0.4,0.7,0.9,1.4,1.5,1.9c0.6,0.5,1.4,0.9,2.2,1.2c0.8,0.3,1.7,0.4,2.6,0.4
				c1.2,0,2.2-0.3,3.2-0.8c0.9-0.6,1.7-1.3,2.5-2.2l2.9,2.2c-2.2,2.8-5.2,4.2-9.1,4.2c-1.6,0-3.1-0.3-4.4-0.8
				c-1.3-0.5-2.4-1.3-3.3-2.3c-0.9-1-1.6-2.1-2.1-3.4c-0.5-1.3-0.7-2.7-0.7-4.2s0.3-2.9,0.8-4.2c0.5-1.3,1.3-2.5,2.2-3.4
				c0.9-1,2-1.7,3.3-2.3c1.3-0.5,2.7-0.8,4.2-0.8c1.8,0,3.3,0.3,4.6,1c1.2,0.6,2.3,1.5,3.1,2.5c0.8,1,1.4,2.2,1.7,3.5
				c0.4,1.3,0.5,2.6,0.5,3.9v1.4L213.1,23.8L213.1,23.8z M225.3,20.7c0-0.9-0.2-1.7-0.4-2.4c-0.2-0.7-0.6-1.3-1.1-1.9
				c-0.5-0.5-1.1-1-1.8-1.2c-0.7-0.3-1.6-0.5-2.6-0.5c-1,0-1.8,0.2-2.6,0.5c-0.8,0.4-1.5,0.8-2,1.4c-0.5,0.6-1,1.2-1.3,1.9
				s-0.5,1.4-0.5,2.1L225.3,20.7L225.3,20.7z"/>
			<path d="M247,17.6c-0.7-0.7-1.5-1.3-2.3-1.7c-0.8-0.4-1.7-0.6-2.8-0.6c-1.1,0-2,0.2-2.8,0.6c-0.8,0.4-1.5,0.9-2,1.6
				c-0.5,0.7-0.9,1.5-1.2,2.3c-0.3,0.9-0.4,1.8-0.4,2.7s0.2,1.8,0.5,2.7c0.3,0.8,0.8,1.6,1.3,2.2s1.3,1.1,2.1,1.5
				c0.8,0.4,1.7,0.5,2.7,0.5c1.1,0,2-0.2,2.8-0.6c0.8-0.4,1.5-1,2.2-1.7l2.8,2.8c-1,1.1-2.2,1.9-3.5,2.4c-1.3,0.5-2.7,0.7-4.2,0.7
				c-1.6,0-3-0.2-4.3-0.8c-1.3-0.5-2.4-1.2-3.4-2.2c-1-0.9-1.7-2.1-2.2-3.4c-0.5-1.3-0.8-2.7-0.8-4.3c0-1.6,0.2-3,0.8-4.4
				c0.5-1.3,1.2-2.5,2.2-3.4c0.9-1,2.1-1.7,3.4-2.2c1.3-0.5,2.8-0.8,4.4-0.8c1.5,0,2.9,0.3,4.3,0.8c1.4,0.5,2.5,1.3,3.6,2.4
				L247,17.6z"/>
		</g>
	</g>
	<g>
		<path class="st5" d="M1,15.3c2-2,5-2.9,7.6-2.9c5.7,0,8.1,3.2,8.1,6.6V29c0,1.2,0,2.4,0.2,3.6h-3.3c-0.1-1-0.1-2-0.1-3h-0.1
			C11.8,32.1,9.6,33,6.7,33C3.1,33,0,31,0,27.1c0-5.1,4.8-6.8,10.6-6.8h2.7v-0.8c0-2-1.5-4.2-4.6-4.2c-2.8,0-4.1,1.2-5.5,2.2L1,15.3
			z M11.3,23.1c-3.5,0-7.7,0.6-7.7,3.8c0,2.2,1.6,3.2,4.1,3.2c4.1,0,5.5-3.1,5.5-5.7v-1.3H11.3z"/>
		<path class="st5" d="M19.8,12.8h3.7v2.8h0.1c1.4-2.1,4.1-3.3,6.7-3.3c6,0,9.8,4.5,9.8,10.3c0,5.9-3.9,10.3-9.8,10.3
			c-2.8,0-5.4-1.3-6.7-3.3h-0.1v10.2h-3.7L19.8,12.8z M23.5,22.7c0,4,2.4,6.9,6.3,6.9s6.3-2.9,6.3-6.9s-2.4-6.9-6.3-6.9
			S23.5,18.7,23.5,22.7z"/>
		<path class="st5" d="M42.4,12.8h3.7v2.8h0.1c1.4-2.1,4.1-3.3,6.7-3.3c6,0,9.8,4.5,9.8,10.3c0,5.9-3.9,10.3-9.8,10.3
			c-2.8,0-5.4-1.3-6.7-3.3h-0.1l0,10.2h-3.7V12.8z M46.1,22.7c0,4,2.4,6.9,6.3,6.9s6.3-2.9,6.3-6.9s-2.4-6.9-6.3-6.9
			S46.1,18.7,46.1,22.7z"/>
		<path class="st5" d="M65.6,27.6c1,2,3.3,3.2,5.4,3.2c2.1,0,4.3-1.3,4.3-3.5c0-5.3-11.1-1.6-11.1-8.9c0-3.7,3.3-5.5,6.4-5.5
			c3.1,0,5.4,1.2,6.6,3.6L75,17.8c-0.9-1.7-2.2-2.7-4.4-2.7c-1.7,0-4,1.1-4,3.1c0,5.2,11.1,1.2,11.1,8.9c0,3.9-3.2,5.9-6.8,5.9
			c-3.2,0-6.1-1.2-7.6-3.9L65.6,27.6z"/>
		<path class="st5" d="M80.1,13.3h2.4v3.4h0.1c1.5-2.7,4.7-3.9,7.5-3.9c5.8,0,9.9,4.2,9.9,10.1S95.9,33,90.1,33
			c-2.8,0-6-1.2-7.5-3.9h-0.1v10.7h-2.4L80.1,13.3z M90.1,30.8c4.6,0,7.4-3.5,7.4-7.9s-2.8-7.9-7.4-7.9c-4.2,0-7.7,3.5-7.7,7.9
			C82.4,27.3,85.9,30.8,90.1,30.8C90.1,30.8,90.1,30.8,90.1,30.8L90.1,30.8z"/>
		<path class="st5" d="M104.8,3.9c1,0,1.8,0.8,1.8,1.9c0,1-0.8,1.9-1.8,1.9c-1,0-1.8-0.8-1.8-1.9c0,0,0,0,0,0
			C103,4.7,103.8,3.9,104.8,3.9C104.8,3.9,104.8,3.9,104.8,3.9z M103.6,13.3h2.4v19.2h-2.4V13.3z"/>
		<path class="st5" d="M127.2,29.2L127.2,29.2c-1.6,2.7-4.8,3.9-7.6,3.9c-5.8,0-9.9-4.2-9.9-10.1s4.1-10.1,9.9-10.1
			c2.8,0,6,1.2,7.5,3.9h0.1V1.1h2.4v31.4h-2.4V29.2z M119.6,15.1c-4.6,0-7.4,3.5-7.4,7.9s2.8,7.9,7.4,7.9c4.2,0,7.7-3.5,7.7-7.9
			C127.3,18.6,123.8,15.1,119.6,15.1C119.6,15.1,119.6,15.1,119.6,15.1z"/>
		<path class="st5" d="M149.9,28.9c-1.9,2.9-4.8,4.1-8.1,4.1c-5.7,0-9.5-4.2-9.5-10.1c0-5.7,3.9-10.1,9.4-10.1c5.8,0,8.8,4.5,8.8,9
			v1.7h-15.8c0,2.1,1.4,7.2,7.1,7.2c2.5,0,5.1-1.3,6.3-3.4L149.9,28.9z M148.1,21.3c0-3.4-2.9-6.2-6.5-6.2c-5.4,0-6.8,5.2-6.8,6.2
			L148.1,21.3z"/>
		<path class="st5" d="M153.7,18.8c0-1.4-0.2-4.4-0.2-5.4h2.4c0,1.4,0.1,3,0.2,3.4c1.2-2.2,3.2-3.9,6-3.9c0.5,0,1,0.1,1.4,0.2
			l-0.3,2.5c-0.3-0.1-0.6-0.2-0.9-0.2c-4.2,0-6.1,3-6.1,6.7v10.5h-2.4L153.7,18.8z"/>
	</g>
</g>
<g id="Black_Centered_Logos" class="st0">
	<g class="st7">
		<path class="st6" d="M49.1,12.3H53v3.2h0.1c1-2.2,3.6-3.7,6.7-3.7c4,0,7.4,2.4,7.4,7.8v13.1h-3.9v-12c0-3.8-2.2-5.2-4.6-5.2
			c-3.2,0-5.7,2.1-5.7,6.8v10.5h-3.9V12.3z"/>
		<path class="st6" d="M73.8,23.9c0,3.6,3.3,5.9,6.9,5.9c2.4,0,4.1-1.2,5.6-3.1l2.9,2.2c-2.2,2.8-5.1,4.2-9,4.2
			c-6.5,0-10.5-4.6-10.5-10.7s4.4-10.7,10.5-10.7c7.2,0,9.9,5.5,9.9,10.7v1.5H73.8z M86,20.8c-0.1-3.4-2-5.9-5.9-5.9
			c-3.3,0-6.1,2.6-6.3,5.9H86z"/>
		<path class="st6" d="M98.3,21.8L91,12.3h5l4.9,7.2l4.9-7.2h4.7l-6.9,9.5l8.3,10.9h-5l-6-8.6l-6,8.6H90L98.3,21.8z"/>
		<path class="st6" d="M112.8,12.3h3.9v2.9h0.1c1.5-2.2,4.3-3.4,7.1-3.4c6.3,0,10.4,4.7,10.4,10.7s-4.1,10.7-10.4,10.7
			c-2.9,0-5.7-1.3-7.1-3.4h-0.1v10.6h-3.9L112.8,12.3z M116.7,22.5c0,4.1,2.6,7.1,6.7,7.1s6.7-3,6.7-7.1s-2.6-7.1-6.7-7.1
			S116.7,18.3,116.7,22.5L116.7,22.5z"/>
		<path class="st6" d="M146.8,11.7c5.9,0.1,10.7,4.9,10.6,10.8c-0.1,5.9-4.9,10.7-10.8,10.6c-5.9-0.1-10.6-4.8-10.6-10.7
			c0-5.9,4.8-10.7,10.7-10.7C146.8,11.7,146.8,11.7,146.8,11.7z M146.8,29.6c4.1,0,6.7-3,6.7-7.1s-2.6-7.1-6.7-7.1
			c-4.1,0-6.7,3-6.7,7.1S142.7,29.6,146.8,29.6L146.8,29.6z"/>
		<path class="st6" d="M171.2,17.4c-1-1.3-2.5-2-4.2-2c-1.8,0-3.4,0.8-3.4,2.3c0,2.5,3.5,2.8,5.2,3.2c3.4,0.8,5.9,2.1,5.9,5.9
			c0,4.6-4.2,6.4-8.3,6.4c-3.4,0-5.8-0.9-7.9-3.6l2.9-2.4c1.3,1.3,2.7,2.4,4.9,2.4c2,0,4.1-0.8,4.1-2.6c0-2.3-3.2-2.8-4.9-3.2
			c-3.3-0.8-6.2-1.9-6.2-5.8c0-4.3,3.9-6.3,7.7-6.3c2.7,0,5.5,0.9,6.9,3.4L171.2,17.4z"/>
		<path class="st6" d="M180.3,23.9c0,3.6,3.3,5.9,6.9,5.9c2.4,0,4.1-1.2,5.6-3.1l2.9,2.2c-2.2,2.8-5.1,4.2-9,4.2
			c-6.5,0-10.5-4.6-10.5-10.7s4.4-10.7,10.5-10.7c7.2,0,9.9,5.5,9.9,10.7v1.4H180.3z M192.5,20.8c-0.1-3.4-2-5.9-5.9-5.9
			c-3.3,0-6.1,2.6-6.3,5.9H192.5z"/>
		<path class="st6" d="M197.9,5.6c1.7,0,3,1.4,3,3s-1.4,3-3,3c-1.7,0-3-1.4-3-3c0,0,0,0,0,0C194.8,7,196.2,5.6,197.9,5.6z
			 M197.9,11.2c1.4,0,2.6-1.2,2.6-2.6c0-1.4-1.2-2.6-2.6-2.6c-1.4,0-2.6,1.2-2.6,2.6C195.2,10.1,196.4,11.2,197.9,11.2
			C197.8,11.3,197.8,11.3,197.9,11.2L197.9,11.2z M197.2,10.4h-0.4V6.9h1.3c0.8,0,1.1,0.3,1.1,1c0,0.5-0.4,1-0.9,1l1,1.5h-0.5
			l-1.1-1.5h-0.6L197.2,10.4z M197.2,8.5h0.6c0.5,0,1,0,1-0.6c0-0.4-0.4-0.6-0.8-0.6h-0.8V8.5z"/>
	</g>
	<g class="st7">
		<path class="st6" d="M32,12.1h3.6v3.2h0.1c0.4-1.2,2.9-3.7,6.6-3.7c3,0,5.1,1.3,6.4,3.8c1.3-2.4,3.8-3.8,6.5-3.8
			c6.3,0,7.8,4.5,7.8,9.1v11.9h-3.9V21.2c0-3.1-0.6-6-4.4-6s-5.2,2.5-5.2,6.2v11.2h-3.9V21.9c0-3.9-0.6-6.7-4.3-6.7
			c-2.8,0-5.3,2.1-5.3,6.7v10.6H32V12.1z"/>
		<path class="st6" d="M69.7,23.7c0,3.6,3.3,6,6.9,6c2.4,0,4.1-1.2,5.6-3.1l2.9,2.2c-2.2,2.8-5.1,4.2-9.1,4.2
			c-6.5,0-10.6-4.7-10.6-10.8S70,11.5,76.1,11.5c7.2,0,10,5.5,10,10.8v1.4L69.7,23.7z M82,20.6c-0.1-3.4-2-6-5.9-6
			c-3.4,0-6.1,2.6-6.3,6L82,20.6z"/>
		<path class="st6" d="M99.6,15.5H94v9.3c0,2.3,0,4.7,2.9,4.7c1,0,1.9-0.2,2.8-0.6v3.5c-1.1,0.5-2.3,0.7-3.5,0.7c-6,0-6.1-3.7-6.1-7
			V15.5h-4.5v-3.4h4.5V6.3H94v5.8h5.6V15.5z"/>
		<path class="st6" d="M102.5,14.6c2.2-2,5.1-3.1,8.1-3c6.1,0,8.6,3.3,8.6,6.8v10.5c0,1.2,0,2.5,0.2,3.7H116c-0.1-1-0.1-2.1-0.1-3.1
			h-0.1c-1.7,2.6-4.1,3.6-7.2,3.6c-3.8,0-7.1-2.2-7.1-6.1c0-5.3,5.1-7.1,11.3-7.1h2.9V19c0-2.1-1.6-4.3-4.9-4.3
			c-3,0-4.4,1.3-5.8,2.3L102.5,14.6z M113.6,22.7c-3.7,0-8.2,0.6-8.2,3.9c0,2.3,1.7,3.3,4.4,3.3c4.3,0,5.8-3.2,5.8-6v-1.3
			L113.6,22.7z"/>
		<path class="st6" d="M134.3,17.2c-1-1.3-2.6-2.1-4.2-2c-1.8,0-3.4,0.8-3.4,2.3c0,2.5,3.5,2.8,5.2,3.2c3.4,0.8,6,2.1,6,6
			c0,4.6-4.2,6.4-8.3,6.4c-3.4,0-5.9-0.9-7.9-3.6l2.9-2.4c1.3,1.3,2.7,2.4,5,2.4c2,0,4.2-0.8,4.2-2.6c0-2.3-3.2-2.8-4.9-3.2
			c-3.3-0.8-6.3-1.9-6.3-5.8c0-4.3,3.9-6.3,7.8-6.3c2.7,0,5.5,1,7,3.4L134.3,17.2z"/>
		<path class="st6" d="M140.4,12.1h3.9V15h0.1c1.5-2.2,4.4-3.4,7.1-3.4c6.3,0,10.4,4.7,10.4,10.8s-4.1,10.8-10.4,10.8
			c-2.9,0-5.8-1.3-7.1-3.5h-0.1v10.6h-3.9L140.4,12.1z M144.3,22.3c0,4.2,2.6,7.1,6.7,7.1c4.2,0,6.7-3,6.7-7.1s-2.6-7.1-6.8-7.1
			C146.9,15.2,144.3,18.2,144.3,22.3L144.3,22.3z"/>
		<path class="st6" d="M165-0.1h3.9v32.7H165V-0.1z"/>
		<path class="st6" d="M181.6,11.6c6,0.1,10.7,4.9,10.7,10.9c-0.1,6-4.9,10.7-10.9,10.7c-5.9-0.1-10.7-4.9-10.7-10.8
			c0-6,4.8-10.8,10.8-10.8C181.5,11.6,181.6,11.6,181.6,11.6z M181.6,29.5c4.2,0,6.7-3,6.7-7.1s-2.6-7.1-6.7-7.1
			c-4.2,0-6.7,3-6.7,7.1S177.5,29.5,181.6,29.5L181.6,29.5z"/>
		<path class="st6" d="M196.3,1.9c1.6,0,2.9,1.3,2.9,2.9s-1.3,2.9-2.9,2.9c-1.6,0-2.9-1.3-2.9-2.9C193.5,3.2,194.7,1.9,196.3,1.9z
			 M194.4,12.1h3.9v20.5h-3.9V12.1z"/>
		<path class="st6" d="M213.7,15.5h-5.6v9.3c0,2.3,0,4.7,2.9,4.7c1,0,1.9-0.2,2.8-0.6v3.5c-1.1,0.5-2.3,0.7-3.5,0.7
			c-6,0-6.1-3.7-6.1-7V15.5h-4.5v-3.4h4.5V6.3h3.9v5.8h5.6V15.5z"/>
		<path class="st6" d="M214.9,0.1c1.7,0,3,1.4,3,3s-1.4,3-3,3c-1.7,0-3-1.4-3-3v0C211.9,1.5,213.2,0.1,214.9,0.1z M214.9,5.8
			c1.4,0,2.6-1.2,2.6-2.6s-1.2-2.6-2.6-2.6c-1.4,0-2.6,1.2-2.6,2.6c0,0,0,0,0,0C212.3,4.6,213.5,5.8,214.9,5.8L214.9,5.8z
			 M214.3,4.9h-0.4V1.4h1.3c0.8,0,1.1,0.3,1.1,1c0,0.5-0.4,1-0.9,1l1,1.5h-0.5l-1-1.5h-0.6L214.3,4.9z M214.3,3h0.6c0.5,0,1,0,1-0.6
			c0-0.5-0.4-0.6-0.8-0.6h-0.8V3z"/>
	</g>
	<g class="st7">
		<g class="st4">
			<path d="M41.4,5.8c0-0.5,0.2-1,0.5-1.3c0.4-0.4,0.8-0.5,1.3-0.5c0.5,0,1,0.2,1.3,0.5c0.4,0.4,0.5,0.8,0.5,1.3
				c0,0.5-0.2,1-0.5,1.3c-0.4,0.4-0.8,0.5-1.3,0.5s-1-0.2-1.3-0.5C41.6,6.7,41.4,6.3,41.4,5.8z M42,13.4h2.5v19.2H42V13.4z"/>
		</g>
		<g class="st4">
			<path d="M48.5,18.8c0-0.4,0-0.8,0-1.3s0-1-0.1-1.6c0-0.5,0-1-0.1-1.5c0-0.5,0-0.8,0-1.1h2.5c0,0.7,0,1.4,0.1,2.1s0,1.1,0.1,1.3
				h0.1c0.5-1,1.3-2,2.5-2.7c1.2-0.8,2.5-1.1,4.1-1.1c1.5,0,2.7,0.2,3.7,0.7c0.9,0.5,1.7,1.1,2.2,1.8c0.5,0.8,0.9,1.6,1.1,2.6
				c0.2,1,0.3,2,0.3,3.1v11.5h-2.5V21.3c0-0.8-0.1-1.5-0.2-2.3c-0.1-0.7-0.4-1.4-0.7-2s-0.8-1-1.5-1.4c-0.6-0.3-1.4-0.5-2.4-0.5
				c-0.9,0-1.8,0.2-2.6,0.5c-0.8,0.3-1.5,0.8-2.1,1.5c-0.6,0.7-1.1,1.5-1.4,2.5c-0.3,1-0.5,2.1-0.5,3.5v9.6h-2.5V18.8z"/>
		</g>
		<g class="st4">
			<path d="M69.6,27.7c0.5,1,1.3,1.8,2.3,2.3c1,0.5,2.1,0.8,3.3,0.8c0.5,0,1-0.1,1.6-0.3c0.5-0.2,1-0.4,1.4-0.7
				c0.4-0.3,0.8-0.7,1-1.1c0.3-0.4,0.4-0.9,0.4-1.5c0-0.9-0.3-1.5-0.9-2c-0.6-0.4-1.3-0.8-2.1-1c-0.8-0.3-1.8-0.5-2.8-0.6
				c-1-0.2-1.9-0.5-2.8-0.8c-0.8-0.4-1.5-0.9-2.1-1.6c-0.6-0.7-0.9-1.6-0.9-2.8c0-0.9,0.2-1.8,0.6-2.5c0.4-0.7,0.9-1.3,1.5-1.7
				c0.6-0.5,1.3-0.8,2.1-1s1.6-0.3,2.4-0.3c1.6,0,3,0.3,4.1,0.9c1.2,0.6,2,1.5,2.7,2.8l-2.3,1.3c-0.5-0.9-1.1-1.6-1.8-2
				c-0.7-0.5-1.6-0.7-2.8-0.7c-0.5,0-0.9,0.1-1.4,0.2c-0.5,0.1-0.9,0.3-1.3,0.6c-0.4,0.3-0.7,0.6-1,1c-0.3,0.4-0.4,0.8-0.4,1.3
				c0,0.9,0.3,1.5,0.9,1.9c0.6,0.4,1.3,0.8,2.1,1c0.8,0.2,1.8,0.4,2.8,0.6c1,0.2,1.9,0.4,2.8,0.8s1.5,0.9,2.1,1.6
				c0.6,0.7,0.9,1.7,0.9,3c0,1-0.2,1.9-0.6,2.6c-0.4,0.7-0.9,1.3-1.5,1.8c-0.7,0.5-1.4,0.9-2.2,1.1s-1.7,0.4-2.6,0.4
				c-1.7,0-3.2-0.3-4.6-1s-2.4-1.6-3.2-3L69.6,27.7z"/>
			<path d="M85,5.8c0-0.5,0.2-1,0.5-1.3c0.4-0.4,0.8-0.5,1.3-0.5c0.5,0,1,0.2,1.3,0.5c0.4,0.4,0.5,0.8,0.5,1.3c0,0.5-0.2,1-0.5,1.3
				c-0.4,0.4-0.8,0.5-1.3,0.5c-0.5,0-1-0.2-1.3-0.5C85.2,6.7,85,6.3,85,5.8z M85.6,13.4h2.5v19.2h-2.5V13.4z"/>
			<path d="M112.5,31.4c0,2.4-0.3,4.3-1,5.8c-0.7,1.5-1.6,2.6-2.6,3.4c-1,0.8-2.2,1.3-3.3,1.6c-1.2,0.3-2.3,0.4-3.3,0.4
				s-1.9-0.1-2.8-0.3s-1.8-0.5-2.6-0.8c-0.8-0.3-1.6-0.8-2.3-1.3c-0.7-0.5-1.3-1.1-1.8-1.7l2-1.8c0.9,1.3,2,2.2,3.3,2.8
				c1.3,0.6,2.8,0.9,4.3,0.9c1.3,0,2.3-0.2,3.2-0.5c0.9-0.3,1.6-0.8,2.2-1.3c0.6-0.5,1-1.1,1.3-1.8c0.3-0.7,0.5-1.3,0.7-2
				c0.2-0.7,0.3-1.3,0.3-1.8c0-0.6,0-1,0-1.4v-2.7h-0.1c-0.7,1.2-1.7,2.1-2.9,2.8c-1.2,0.7-2.7,1-4.3,1c-1.4,0-2.8-0.3-4-0.8
				c-1.3-0.5-2.3-1.2-3.3-2.1c-0.9-0.9-1.7-2-2.2-3.1s-0.8-2.5-0.8-3.8c0-1.4,0.3-2.6,0.8-3.8c0.5-1.2,1.3-2.2,2.2-3.1
				c0.9-0.9,2-1.6,3.3-2.1s2.6-0.8,4-0.8c1.7,0,3.1,0.3,4.3,1c1.2,0.7,2.2,1.6,2.9,2.8h0.1v-3.3h2.5L112.5,31.4L112.5,31.4z
				 M110,22.8c0-1-0.2-2-0.6-3c-0.4-0.9-0.9-1.7-1.6-2.4c-0.7-0.7-1.5-1.2-2.4-1.6c-0.9-0.4-1.9-0.6-3-0.6c-1,0-2,0.2-3,0.6
				c-0.9,0.4-1.7,0.9-2.4,1.6c-0.7,0.7-1.2,1.5-1.6,2.4c-0.4,0.9-0.6,1.9-0.6,3c0,1,0.2,2,0.6,3c0.4,0.9,0.9,1.7,1.6,2.4
				c0.7,0.7,1.5,1.2,2.4,1.6c0.9,0.4,1.9,0.6,3,0.6c1,0,2-0.2,3-0.6s1.7-0.9,2.4-1.6c0.7-0.7,1.2-1.5,1.6-2.4
				C109.8,24.8,110,23.8,110,22.8z"/>
			<path d="M116.5,1.1h2.5v15.6h0.1c0.5-1,1.3-2,2.5-2.7c1.2-0.8,2.5-1.1,4.1-1.1c1.5,0,2.7,0.2,3.7,0.7c0.9,0.5,1.7,1.1,2.2,1.8
				c0.5,0.8,0.9,1.6,1.1,2.6c0.2,1,0.3,2,0.3,3.1v11.5h-2.5V21.3c0-0.8-0.1-1.5-0.2-2.3c-0.1-0.7-0.4-1.4-0.7-2s-0.8-1-1.5-1.4
				c-0.6-0.3-1.4-0.5-2.4-0.5c-0.9,0-1.8,0.2-2.6,0.5c-0.8,0.3-1.5,0.8-2.1,1.5c-0.6,0.7-1.1,1.5-1.4,2.5c-0.3,1-0.5,2.1-0.5,3.5
				v9.6h-2.5L116.5,1.1L116.5,1.1z"/>
		</g>
		<g class="st4">
			<path d="M147.5,15.6H142v12.5c0,0.9,0.2,1.5,0.7,2s1.1,0.7,2,0.7c0.5,0,1-0.1,1.4-0.2c0.5-0.1,1-0.3,1.4-0.5l0.2,2.3
				c-0.5,0.2-1,0.3-1.6,0.5c-0.6,0.1-1.2,0.2-1.6,0.2c-0.9,0-1.7-0.1-2.3-0.4c-0.6-0.3-1.2-0.6-1.5-1.1c-0.4-0.4-0.7-1-0.9-1.6
				c-0.2-0.6-0.3-1.3-0.3-1.9V15.6h-4.2v-2.3h4.2V7.9h2.5v5.5h5.5L147.5,15.6L147.5,15.6z"/>
		</g>
		<g class="st4">
			<path d="M147.2,2h4.8l9,24.9h0.1L170.4,2h4.6l-12.1,30.6H159L147.2,2z"/>
			<path d="M176.6,2h6.2l9.7,23.2h0.2L202.4,2h6.2v30.6h-4.1V7.5h-0.1L194,32.7h-2.8L180.9,7.5h-0.1v25.2h-4.1L176.6,2L176.6,2z"/>
		</g>
	</g>
	<g class="st7">
		<g class="st4">
			<path class="st6" d="M34,5.8c0-0.5,0.2-1,0.5-1.3c0.4-0.4,0.8-0.5,1.3-0.5c0.5,0,1,0.2,1.3,0.5c0.4,0.4,0.5,0.8,0.5,1.3
				c0,0.5-0.2,1-0.5,1.3c-0.4,0.4-0.8,0.5-1.3,0.5c-0.5,0-1-0.2-1.3-0.5C34.2,6.8,34,6.4,34,5.8z M34.7,13.4h2.5v19.2h-2.5V13.4z"/>
		</g>
		<g class="st4">
			<path class="st6" d="M41.1,18.8c0-0.4,0-0.8,0-1.3s0-1-0.1-1.6c0-0.5,0-1-0.1-1.5s0-0.8,0-1.1h2.5c0,0.7,0,1.4,0.1,2.1
				c0,0.7,0,1.1,0.1,1.3h0.1c0.5-1,1.3-2,2.5-2.7c1.2-0.8,2.5-1.1,4.1-1.1c1.5,0,2.7,0.2,3.7,0.7s1.7,1.1,2.2,1.8
				c0.5,0.8,0.9,1.6,1.1,2.6s0.3,2,0.3,3.1v11.4h-2.5V21.3c0-0.8-0.1-1.5-0.2-2.3c-0.1-0.7-0.4-1.4-0.7-2c-0.3-0.6-0.8-1-1.5-1.4
				s-1.4-0.5-2.4-0.5c-0.9,0-1.8,0.2-2.6,0.5c-0.8,0.3-1.5,0.8-2.1,1.5c-0.6,0.7-1.1,1.5-1.4,2.5s-0.5,2.1-0.5,3.5v9.6h-2.5V18.8z"
				/>
		</g>
		<g class="st4">
			<path class="st6" d="M62.1,27.7c0.5,1,1.3,1.8,2.3,2.3c1,0.5,2.1,0.8,3.2,0.8c0.5,0,1-0.1,1.6-0.2c0.5-0.2,1-0.4,1.4-0.7
				s0.7-0.7,1-1.1c0.3-0.4,0.4-0.9,0.4-1.5c0-0.9-0.3-1.5-0.9-2c-0.6-0.4-1.3-0.8-2.1-1c-0.8-0.2-1.7-0.5-2.7-0.6
				c-1-0.2-1.9-0.5-2.7-0.8c-0.8-0.4-1.5-0.9-2.1-1.6c-0.6-0.7-0.9-1.6-0.9-2.8c0-0.9,0.2-1.7,0.6-2.5c0.4-0.7,0.9-1.3,1.5-1.7
				c0.6-0.5,1.3-0.8,2.1-1c0.8-0.2,1.6-0.3,2.4-0.3c1.6,0,3,0.3,4.1,0.9c1.2,0.6,2,1.5,2.7,2.7l-2.2,1.3c-0.5-0.9-1.1-1.6-1.8-2
				c-0.7-0.5-1.6-0.7-2.8-0.7c-0.5,0-0.9,0.1-1.4,0.2c-0.5,0.1-0.9,0.3-1.3,0.6c-0.4,0.2-0.7,0.6-1,1c-0.3,0.4-0.4,0.8-0.4,1.3
				c0,0.9,0.3,1.5,0.9,1.9c0.6,0.4,1.3,0.7,2.1,1c0.8,0.2,1.7,0.4,2.7,0.6c1,0.2,1.9,0.4,2.7,0.8c0.8,0.4,1.5,0.9,2.1,1.6
				c0.6,0.7,0.9,1.7,0.9,3c0,1-0.2,1.9-0.6,2.6c-0.4,0.7-0.9,1.3-1.5,1.8c-0.7,0.5-1.4,0.9-2.2,1.1c-0.8,0.2-1.7,0.4-2.6,0.4
				c-1.7,0-3.2-0.3-4.5-1c-1.4-0.6-2.4-1.6-3.2-3L62.1,27.7z"/>
			<path class="st6" d="M77.5,5.8c0-0.5,0.2-1,0.5-1.3c0.4-0.4,0.8-0.5,1.3-0.5c0.5,0,1,0.2,1.3,0.5c0.4,0.4,0.5,0.8,0.5,1.3
				c0,0.5-0.2,1-0.5,1.3c-0.4,0.4-0.8,0.5-1.3,0.5c-0.5,0-1-0.2-1.3-0.5C77.7,6.8,77.5,6.4,77.5,5.8z M78.1,13.4h2.5v19.2h-2.5V13.4
				z"/>
			<path class="st6" d="M104.9,31.4c0,2.4-0.3,4.3-1,5.8c-0.7,1.5-1.6,2.6-2.6,3.4c-1,0.8-2.2,1.3-3.3,1.6c-1.2,0.3-2.3,0.4-3.2,0.4
				c-1,0-1.9-0.1-2.8-0.3c-0.9-0.2-1.8-0.5-2.6-0.8c-0.8-0.3-1.6-0.8-2.3-1.3c-0.7-0.5-1.3-1.1-1.8-1.7l2-1.8c0.9,1.2,2,2.2,3.3,2.7
				s2.7,0.9,4.2,0.9c1.3,0,2.3-0.2,3.2-0.5c0.9-0.3,1.6-0.8,2.2-1.3c0.6-0.5,1-1.1,1.3-1.8s0.5-1.3,0.7-2c0.2-0.7,0.2-1.3,0.3-1.8
				c0-0.6,0-1,0-1.4v-2.7h-0.1c-0.7,1.2-1.7,2.1-2.9,2.7c-1.2,0.7-2.7,1-4.3,1c-1.4,0-2.7-0.2-4-0.8c-1.2-0.5-2.3-1.2-3.3-2.1
				c-0.9-0.9-1.7-2-2.2-3.1c-0.5-1.2-0.8-2.5-0.8-3.8c0-1.4,0.3-2.6,0.8-3.8c0.5-1.2,1.3-2.2,2.2-3.1c0.9-0.9,2-1.6,3.3-2.1
				c1.2-0.5,2.6-0.8,4-0.8c1.7,0,3.1,0.3,4.3,1c1.2,0.7,2.2,1.6,2.9,2.7h0.1v-3.2h2.5L104.9,31.4L104.9,31.4z M102.5,22.8
				c0-1-0.2-2-0.6-3c-0.4-0.9-0.9-1.7-1.6-2.4c-0.7-0.7-1.5-1.2-2.4-1.6c-0.9-0.4-1.9-0.6-3-0.6c-1,0-2,0.2-3,0.6
				c-0.9,0.4-1.7,0.9-2.4,1.6c-0.7,0.7-1.2,1.5-1.6,2.4c-0.4,0.9-0.6,1.9-0.6,3c0,1,0.2,2,0.6,3c0.4,0.9,0.9,1.7,1.6,2.4
				c0.7,0.7,1.5,1.2,2.4,1.6c0.9,0.4,1.9,0.6,3,0.6c1,0,2-0.2,3-0.6c0.9-0.4,1.7-0.9,2.4-1.6c0.7-0.7,1.2-1.5,1.6-2.4
				C102.3,24.8,102.5,23.8,102.5,22.8z"/>
			<path class="st6" d="M108.9,1.2h2.5v15.6h0.1c0.5-1,1.3-2,2.5-2.7c1.2-0.8,2.5-1.1,4.1-1.1c1.5,0,2.7,0.2,3.7,0.7
				s1.7,1.1,2.2,1.8c0.5,0.8,0.9,1.6,1.1,2.6s0.3,2,0.3,3.1v11.4h-2.5V21.3c0-0.8-0.1-1.5-0.2-2.3c-0.1-0.7-0.4-1.4-0.7-2
				c-0.3-0.6-0.8-1-1.5-1.4c-0.6-0.3-1.4-0.5-2.4-0.5c-0.9,0-1.8,0.2-2.6,0.5c-0.8,0.3-1.5,0.8-2.1,1.5c-0.6,0.7-1.1,1.5-1.4,2.5
				s-0.5,2.1-0.5,3.5v9.6h-2.5L108.9,1.2L108.9,1.2z"/>
		</g>
		<g class="st4">
			<path class="st6" d="M139.8,15.7h-5.5v12.5c0,0.9,0.2,1.5,0.7,2c0.5,0.5,1.1,0.7,2,0.7c0.5,0,1-0.1,1.4-0.2s1-0.3,1.4-0.5
				l0.2,2.2c-0.5,0.2-1,0.3-1.6,0.5c-0.6,0.1-1.2,0.2-1.6,0.2c-0.9,0-1.7-0.1-2.3-0.4c-0.6-0.3-1.2-0.6-1.5-1.1
				c-0.4-0.4-0.7-1-0.9-1.6c-0.2-0.6-0.3-1.2-0.3-1.9V15.7h-4.2v-2.2h4.2V7.9h2.5v5.5h5.5L139.8,15.7L139.8,15.7z"/>
		</g>
		<g class="st4">
			<path class="st6" d="M157.7,33.4c-2.3,0-4.5-0.4-6.4-1.2c-2-0.8-3.6-2-5-3.4c-1.4-1.4-2.5-3.1-3.3-5.1c-0.8-2-1.2-4.1-1.2-6.3
				s0.4-4.4,1.2-6.3c0.8-2,1.9-3.7,3.3-5.1c1.4-1.4,3.1-2.6,5-3.4c2-0.8,4.1-1.2,6.4-1.2c2.3,0,4.5,0.4,6.4,1.2c2,0.8,3.6,2,5,3.4
				c1.4,1.4,2.5,3.1,3.3,5.1c0.8,2,1.2,4.1,1.2,6.3s-0.4,4.4-1.2,6.3s-1.9,3.7-3.3,5.1c-1.4,1.4-3.1,2.6-5,3.4
				C162.2,33,160.1,33.4,157.7,33.4z M157.7,29.5c1.7,0,3.3-0.3,4.7-1c1.4-0.6,2.6-1.5,3.6-2.6c1-1.1,1.8-2.4,2.3-3.9
				c0.5-1.5,0.8-3.1,0.8-4.7s-0.3-3.2-0.8-4.7c-0.5-1.5-1.3-2.8-2.3-3.9c-1-1.1-2.2-2-3.6-2.6c-1.4-0.6-3-1-4.7-1s-3.3,0.3-4.7,1
				c-1.4,0.7-2.6,1.5-3.6,2.6c-1,1.1-1.8,2.4-2.3,3.9c-0.5,1.5-0.8,3.1-0.8,4.7s0.3,3.2,0.8,4.7c0.5,1.5,1.3,2.8,2.3,3.9
				c1,1.1,2.2,2,3.6,2.6S156,29.5,157.7,29.5z"/>
			<path class="st6" d="M176.9,12.2h3.9v2.9h0.1c0.7-1.1,1.8-2,3.1-2.5c1.3-0.6,2.7-0.9,4-0.9c1.6,0,3,0.3,4.3,0.8
				c1.3,0.5,2.4,1.3,3.3,2.3c0.9,1,1.6,2.1,2.1,3.4c0.5,1.3,0.7,2.7,0.7,4.2c0,1.5-0.2,3-0.7,4.2c-0.5,1.3-1.2,2.5-2.1,3.4
				c-0.9,1-2,1.7-3.3,2.3c-1.3,0.5-2.7,0.8-4.3,0.8c-1.5,0-2.8-0.3-4.1-0.9c-1.3-0.6-2.3-1.5-3-2.5h-0.1v15.1h-3.9L176.9,12.2
				L176.9,12.2z M187.5,15.3c-1,0-2,0.2-2.8,0.5c-0.8,0.4-1.5,0.8-2.1,1.5c-0.6,0.6-1,1.4-1.3,2.2c-0.3,0.9-0.5,1.8-0.5,2.9
				c0,1,0.2,2,0.5,2.9c0.3,0.9,0.8,1.6,1.3,2.2c0.6,0.6,1.3,1.1,2.1,1.5s1.8,0.5,2.8,0.5c1,0,2-0.2,2.8-0.5c0.8-0.4,1.5-0.8,2.1-1.5
				c0.6-0.6,1-1.4,1.3-2.2c0.3-0.9,0.5-1.8,0.5-2.9c0-1-0.2-2-0.5-2.9c-0.3-0.9-0.8-1.6-1.3-2.2c-0.6-0.6-1.3-1.1-2.1-1.5
				C189.5,15.5,188.5,15.3,187.5,15.3z"/>
			<path class="st6" d="M212.4,17.3c-0.5-0.6-1-1.1-1.7-1.5c-0.7-0.4-1.5-0.6-2.5-0.6c-0.9,0-1.7,0.2-2.4,0.6c-0.7,0.4-1,1-1,1.7
				c0,0.6,0.2,1.1,0.6,1.5c0.4,0.4,0.8,0.7,1.4,0.9c0.5,0.2,1.1,0.4,1.7,0.5c0.6,0.1,1.1,0.2,1.5,0.3c0.8,0.2,1.6,0.5,2.4,0.7
				c0.7,0.3,1.4,0.7,1.9,1.1c0.5,0.5,1,1,1.2,1.7c0.3,0.7,0.5,1.5,0.5,2.4c0,1.2-0.2,2.1-0.7,3c-0.5,0.8-1.1,1.5-1.9,2
				c-0.8,0.5-1.7,0.9-2.7,1.1s-2,0.3-3,0.3c-1.7,0-3.2-0.2-4.5-0.8c-1.3-0.5-2.4-1.5-3.4-2.8l2.9-2.4c0.6,0.6,1.3,1.2,2.1,1.7
				c0.8,0.5,1.7,0.7,2.8,0.7c0.5,0,1,0,1.5-0.2c0.5-0.1,1-0.2,1.3-0.5c0.4-0.2,0.7-0.5,1-0.8c0.2-0.3,0.4-0.7,0.4-1.1
				c0-0.6-0.2-1-0.5-1.4c-0.4-0.4-0.8-0.7-1.3-0.9c-0.5-0.2-1-0.4-1.6-0.5c-0.6-0.1-1.1-0.2-1.5-0.3c-0.8-0.2-1.6-0.4-2.4-0.7
				c-0.7-0.2-1.4-0.6-2-1c-0.6-0.4-1-1-1.4-1.6c-0.3-0.7-0.5-1.5-0.5-2.5c0-1.1,0.2-2,0.7-2.8c0.5-0.8,1-1.5,1.8-2
				c0.7-0.5,1.6-0.9,2.5-1.2c0.9-0.2,1.9-0.4,2.8-0.4c1.4,0,2.7,0.2,4,0.8c1.3,0.5,2.3,1.4,3,2.6L212.4,17.3z"/>
		</g>
	</g>
	<g class="st7">
		<path class="st6" d="M41,3.9c1,0,1.9,0.8,1.9,1.9S42.1,7.7,41,7.7c-1,0-1.9-0.8-1.9-1.9l0,0C39.2,4.8,40,3.9,41,3.9z M39.8,13.4
			h2.5v19.2h-2.5V13.4z"/>
		<path class="st6" d="M47.5,18.8c0-1.4-0.2-4.4-0.2-5.4h2.5c0,1.4,0.1,3,0.2,3.4H50c1-2.1,3.4-3.9,6.6-3.9c6,0,7.3,4.1,7.3,8.3
			v11.4h-2.5V21.3c0-3.1-0.9-6.1-4.8-6.1c-3.7,0-6.6,2.6-6.6,7.8v9.6h-2.5V18.8z"/>
		<path class="st6" d="M68.7,27.2c1,2,3.3,3.2,5.6,3.2c2.2,0,4.4-1.3,4.4-3.5c0-5.3-11.4-1.6-11.4-8.9c0-3.7,3.4-5.5,6.6-5.5
			c3.1,0,5.5,1.2,6.8,3.6l-2.2,1.3c-1-1.7-2.3-2.7-4.5-2.7c-1.8,0-4.1,1.1-4.1,3.1c0,5.2,11.4,1.2,11.4,8.9c0,3.9-3.3,5.9-6.9,5.9
			c-3.3,0-6.2-1.2-7.7-3.9L68.7,27.2z"/>
		<path class="st6" d="M86.2,3.9c1,0,1.9,0.8,1.9,1.9s-0.8,1.9-1.9,1.9c-1,0-1.9-0.8-1.9-1.9l0,0C84.3,4.8,85.1,3.9,86.2,3.9z
			 M84.9,13.4h2.5v19.2h-2.5V13.4z"/>
		<path class="st6" d="M111.9,31.3c0,9.5-6.3,11.2-10.2,11.2c-3.9,0-7.6-1.5-9.5-4l2-1.8c1.7,2.4,4.6,3.6,7.6,3.6
			c7.6,0,7.7-6.6,7.7-8.8v-2.7h-0.1c-1.5,2.3-4,3.7-7.3,3.7c-5.6,0-10.3-4.4-10.3-9.8s4.6-9.8,10.3-9.8c3.3,0,5.8,1.5,7.3,3.7h0.1
			v-3.2h2.5L111.9,31.3z M101.9,15.1c-4.2,0-7.6,3.4-7.6,7.6s3.4,7.6,7.6,7.6c4.2,0,7.6-3.4,7.6-7.6c0,0,0,0,0,0
			C109.5,18.5,106.1,15.1,101.9,15.1L101.9,15.1z"/>
		<path class="st6" d="M116.1,1.2h2.5v15.6h0.1c1-2.1,3.4-3.9,6.6-3.9c6,0,7.3,4.1,7.3,8.3v11.4h-2.5V21.3c0-3.1-0.9-6.1-4.8-6.1
			c-3.7,0-6.6,2.6-6.6,7.8v9.6h-2.5V1.2z"/>
		<path class="st6" d="M146.7,15.2h-5.5v12.5c0,1.7,1,2.7,2.7,2.7c1,0,1.9-0.3,2.8-0.7l0.2,2.2c-1,0.4-2.1,0.6-3.2,0.7
			c-3.6,0-4.9-2.2-4.9-4.9V15.2h-4.2v-2.2h4.2V7.4h2.5v5.5h5.5L146.7,15.2z"/>
		<path class="st6" d="M150.3,3.1h4v29.4h-4V3.1z"/>
		<path class="st6" d="M159.8,3.1h10.3c12.4,0,15.4,9.3,15.4,14.7c0,7.5-5.6,14.7-16.1,14.7h-9.6V3.1z M163.8,28.8h5
			c6.7,0,12.5-3.7,12.5-11c0-3.7-1.9-11-11.5-11h-6L163.8,28.8z"/>
		<path class="st6" d="M190,3.1h10.3c7.5,0,9.4,4.5,9.4,8.2c0,3.7-2.8,7.3-7.2,7.8l8.4,13.4h-5l-7.5-13H194v13h-4V3.1z M193.9,16.1
			h5.2c3.2,0,6.3-0.7,6.3-4.7s-3.1-4.7-6.3-4.7h-5.2V16.1z"/>
	</g>
	<g class="st7">
		<g class="st4">
			<path d="M0,5.8c0-0.5,0.2-1,0.5-1.3c0.4-0.4,0.8-0.5,1.3-0.5c0.5,0,1,0.2,1.3,0.5c0.4,0.4,0.5,0.8,0.5,1.3c0,0.5-0.2,1-0.5,1.3
				C2.8,7.5,2.4,7.7,1.9,7.7s-1-0.2-1.3-0.5S0,6.4,0,5.8z M0.6,13.4h2.5v19.2H0.6V13.4z"/>
		</g>
		<g class="st4">
			<path d="M7.1,18.8c0-0.4,0-0.8,0-1.3C7,17,7,16.5,7,16c0-0.5,0-1-0.1-1.5s0-0.8,0-1.1h2.5c0,0.7,0,1.4,0.1,2.1
				c0,0.7,0,1.1,0.1,1.3h0.1c0.5-1,1.3-2,2.5-2.7s2.5-1.1,4.1-1.1c1.5,0,2.7,0.2,3.7,0.7s1.7,1.1,2.2,1.8c0.5,0.8,0.9,1.6,1.1,2.6
				s0.3,2,0.3,3.1v11.4H21V21.3c0-0.8-0.1-1.5-0.2-2.3c-0.1-0.7-0.4-1.4-0.7-2c-0.3-0.6-0.8-1-1.5-1.4s-1.4-0.5-2.4-0.5
				c-0.9,0-1.8,0.2-2.6,0.5c-0.8,0.3-1.5,0.8-2.1,1.5c-0.6,0.7-1.1,1.5-1.4,2.5c-0.3,1-0.5,2.1-0.5,3.5v9.6H7.1V18.8z"/>
		</g>
		<g class="st4">
			<path d="M28.1,27.7c0.5,1,1.3,1.8,2.3,2.3c1,0.5,2.1,0.8,3.2,0.8c0.5,0,1-0.1,1.6-0.2c0.5-0.2,1-0.4,1.4-0.7s0.7-0.7,1-1.1
				c0.3-0.4,0.4-0.9,0.4-1.5c0-0.9-0.3-1.5-0.9-2c-0.6-0.4-1.3-0.8-2.1-1c-0.8-0.2-1.7-0.5-2.7-0.6c-1-0.2-1.9-0.5-2.7-0.8
				c-0.8-0.4-1.5-0.9-2.1-1.6c-0.6-0.7-0.9-1.6-0.9-2.8c0-0.9,0.2-1.7,0.6-2.5c0.4-0.7,0.9-1.3,1.5-1.7c0.6-0.5,1.3-0.8,2.1-1
				c0.8-0.2,1.6-0.3,2.4-0.3c1.6,0,3,0.3,4.1,0.9c1.2,0.6,2,1.5,2.7,2.7l-2.2,1.3c-0.5-0.9-1.1-1.6-1.8-2c-0.7-0.5-1.6-0.7-2.8-0.7
				c-0.5,0-0.9,0.1-1.4,0.2c-0.5,0.1-0.9,0.3-1.3,0.6c-0.4,0.2-0.7,0.6-1,1c-0.3,0.4-0.4,0.8-0.4,1.3c0,0.9,0.3,1.5,0.9,1.9
				c0.6,0.4,1.3,0.7,2.1,1c0.8,0.2,1.7,0.4,2.7,0.6c1,0.2,1.9,0.4,2.7,0.8c0.8,0.4,1.5,0.9,2.1,1.6s0.9,1.7,0.9,3
				c0,1-0.2,1.9-0.6,2.6c-0.4,0.7-0.9,1.3-1.5,1.8c-0.7,0.5-1.4,0.9-2.2,1.1c-0.8,0.2-1.7,0.4-2.6,0.4c-1.7,0-3.2-0.3-4.5-1
				s-2.4-1.6-3.2-3L28.1,27.7z"/>
			<path d="M43.5,5.8c0-0.5,0.2-1,0.5-1.3c0.4-0.4,0.8-0.5,1.3-0.5c0.5,0,1,0.2,1.3,0.5c0.4,0.4,0.5,0.8,0.5,1.3
				c0,0.5-0.2,1-0.5,1.3c-0.4,0.4-0.8,0.5-1.3,0.5c-0.5,0-1-0.2-1.3-0.5S43.5,6.4,43.5,5.8z M44.1,13.4h2.5v19.2h-2.5V13.4z"/>
			<path d="M70.8,31.4c0,2.4-0.3,4.3-1,5.8c-0.7,1.5-1.6,2.6-2.6,3.4c-1,0.8-2.2,1.3-3.3,1.6c-1.2,0.3-2.3,0.4-3.2,0.4
				c-1,0-1.9-0.1-2.8-0.3c-0.9-0.2-1.8-0.5-2.6-0.8c-0.8-0.3-1.6-0.8-2.3-1.3c-0.7-0.5-1.3-1.1-1.8-1.7l2-1.8c0.9,1.2,2,2.2,3.3,2.7
				s2.7,0.9,4.2,0.9c1.3,0,2.3-0.2,3.2-0.5c0.9-0.3,1.6-0.8,2.2-1.3c0.6-0.5,1-1.1,1.3-1.8c0.3-0.7,0.5-1.3,0.7-2
				c0.2-0.7,0.2-1.3,0.3-1.8c0-0.6,0-1,0-1.4v-2.7h-0.1c-0.7,1.2-1.7,2.1-2.9,2.7c-1.2,0.7-2.7,1-4.3,1c-1.4,0-2.7-0.2-4-0.8
				c-1.2-0.5-2.3-1.2-3.3-2.1c-0.9-0.9-1.7-2-2.2-3.1c-0.5-1.2-0.8-2.5-0.8-3.8c0-1.4,0.3-2.6,0.8-3.8c0.5-1.2,1.3-2.2,2.2-3.1
				c0.9-0.9,2-1.6,3.3-2.1s2.6-0.8,4-0.8c1.7,0,3.1,0.3,4.3,1c1.2,0.7,2.2,1.6,2.9,2.7h0.1v-3.2h2.5L70.8,31.4L70.8,31.4z
				 M68.4,22.8c0-1-0.2-2-0.6-3c-0.4-0.9-0.9-1.7-1.6-2.4c-0.7-0.7-1.5-1.2-2.4-1.6c-0.9-0.4-1.9-0.6-3-0.6c-1,0-2,0.2-3,0.6
				c-0.9,0.4-1.7,0.9-2.4,1.6c-0.7,0.7-1.2,1.5-1.6,2.4c-0.4,0.9-0.6,1.9-0.6,3c0,1,0.2,2,0.6,3c0.4,0.9,0.9,1.7,1.6,2.4
				c0.7,0.7,1.5,1.2,2.4,1.6c0.9,0.4,1.9,0.6,3,0.6c1,0,2-0.2,3-0.6c0.9-0.4,1.7-0.9,2.4-1.6c0.7-0.7,1.2-1.5,1.6-2.4
				C68.2,24.8,68.4,23.8,68.4,22.8z"/>
			<path d="M74.9,1.2h2.5v15.6h0.1c0.5-1,1.3-2,2.5-2.7c1.2-0.8,2.5-1.1,4.1-1.1c1.5,0,2.7,0.2,3.7,0.7c0.9,0.5,1.7,1.1,2.2,1.8
				c0.5,0.8,0.9,1.6,1.1,2.6c0.2,1,0.3,2,0.3,3.1v11.4h-2.5V21.3c0-0.8-0.1-1.5-0.2-2.3c-0.1-0.7-0.4-1.4-0.7-2
				c-0.3-0.6-0.8-1-1.5-1.4S85,15.2,84,15.2c-0.9,0-1.8,0.2-2.6,0.5c-0.8,0.3-1.5,0.8-2.1,1.5s-1.1,1.5-1.4,2.5s-0.5,2.1-0.5,3.5
				v9.6h-2.5L74.9,1.2L74.9,1.2z"/>
		</g>
		<g class="st4">
			<path d="M105.8,15.7h-5.5v12.5c0,0.9,0.2,1.5,0.7,2c0.5,0.5,1.1,0.7,2,0.7c0.5,0,1-0.1,1.4-0.2c0.5-0.1,1-0.3,1.4-0.5l0.2,2.2
				c-0.5,0.2-1,0.3-1.6,0.5c-0.6,0.1-1.2,0.2-1.6,0.2c-0.9,0-1.7-0.1-2.3-0.4c-0.6-0.3-1.2-0.6-1.5-1.1c-0.4-0.4-0.7-1-0.9-1.6
				c-0.2-0.6-0.3-1.2-0.3-1.9V15.7h-4.2v-2.2h4.2V7.9h2.5v5.5h5.5L105.8,15.7L105.8,15.7z"/>
		</g>
		<g class="st4">
			<path d="M121.9,2.1h3.7l13.1,30.5h-4.8l-3-7.6h-14.5l-3,7.5h-4.8L121.9,2.1z M129.3,21.5l-5.7-14h-0.1l-5.8,14H129.3z"/>
		</g>
		<g class="st4">
			<path d="M140.1,12.2h3.9v2.9h0.1c0.7-1.1,1.8-2,3.1-2.5c1.3-0.6,2.7-0.9,4-0.9c1.6,0,3,0.3,4.3,0.8c1.3,0.5,2.4,1.3,3.3,2.3
				c0.9,1,1.6,2.1,2.1,3.4c0.5,1.3,0.7,2.7,0.7,4.2c0,1.5-0.2,3-0.7,4.2c-0.5,1.3-1.2,2.5-2.1,3.4s-2,1.7-3.3,2.3
				c-1.3,0.5-2.7,0.8-4.3,0.8c-1.5,0-2.8-0.3-4.1-0.9c-1.3-0.6-2.3-1.5-3-2.5H144v15.1h-3.9V12.2z M150.7,15.3c-1,0-2,0.2-2.8,0.5
				c-0.8,0.4-1.5,0.8-2.1,1.5c-0.6,0.6-1,1.4-1.3,2.2c-0.3,0.9-0.5,1.8-0.5,2.9c0,1,0.2,2,0.5,2.9c0.3,0.9,0.8,1.6,1.3,2.2
				c0.6,0.6,1.3,1.1,2.1,1.5s1.8,0.5,2.8,0.5c1,0,2-0.2,2.8-0.5c0.8-0.4,1.5-0.8,2.1-1.5c0.6-0.6,1-1.4,1.3-2.2
				c0.3-0.9,0.5-1.8,0.5-2.9c0-1-0.2-2-0.5-2.9c-0.3-0.9-0.8-1.6-1.3-2.2c-0.6-0.6-1.3-1.1-2.1-1.5
				C152.7,15.5,151.8,15.3,150.7,15.3z"/>
		</g>
		<g class="st4">
			<path d="M164.8,12.2h3.9v2.9h0.1c0.7-1.1,1.8-2,3.1-2.5c1.3-0.6,2.7-0.9,4-0.9c1.6,0,3,0.3,4.3,0.8c1.3,0.5,2.4,1.3,3.3,2.3
				c0.9,1,1.6,2.1,2.1,3.4c0.5,1.3,0.7,2.7,0.7,4.2c0,1.5-0.2,3-0.7,4.2c-0.5,1.3-1.2,2.5-2.1,3.4s-2,1.7-3.3,2.3
				c-1.3,0.5-2.7,0.8-4.3,0.8c-1.5,0-2.8-0.3-4.1-0.9c-1.3-0.6-2.3-1.5-3-2.5h-0.1v15.1h-3.9L164.8,12.2L164.8,12.2z M175.4,15.3
				c-1,0-2,0.2-2.8,0.5c-0.8,0.4-1.5,0.8-2.1,1.5c-0.6,0.6-1,1.4-1.3,2.2c-0.3,0.9-0.5,1.8-0.5,2.9c0,1,0.2,2,0.5,2.9
				c0.3,0.9,0.8,1.6,1.3,2.2c0.6,0.6,1.3,1.1,2.1,1.5c0.8,0.4,1.8,0.5,2.8,0.5c1,0,2-0.2,2.8-0.5c0.8-0.4,1.5-0.8,2.1-1.5
				c0.6-0.6,1-1.4,1.3-2.2c0.3-0.9,0.5-1.8,0.5-2.9c0-1-0.2-2-0.5-2.9c-0.3-0.9-0.8-1.6-1.3-2.2c-0.6-0.6-1.3-1.1-2.1-1.5
				C177.4,15.5,176.4,15.3,175.4,15.3z"/>
		</g>
		<g class="st4">
			<path d="M189.8,26.3c0.7,1.1,1.7,2,2.9,2.5c1.2,0.5,2.4,0.8,3.6,0.8c0.7,0,1.4-0.1,2.1-0.3c0.7-0.2,1.4-0.5,2-1
				c0.6-0.4,1.1-1,1.5-1.6c0.4-0.6,0.6-1.4,0.6-2.2c0-1.2-0.4-2.1-1.1-2.7c-0.7-0.6-1.7-1.1-2.8-1.5c-1.1-0.4-2.3-0.8-3.6-1.2
				c-1.3-0.4-2.5-0.9-3.6-1.6c-1.1-0.7-2-1.6-2.8-2.8c-0.7-1.2-1.1-2.7-1.1-4.7c0-0.9,0.2-1.8,0.6-2.8c0.4-1,1-1.9,1.8-2.8
				c0.8-0.8,1.9-1.5,3.2-2.1c1.3-0.6,2.9-0.8,4.7-0.8c1.7,0,3.3,0.2,4.8,0.7c1.5,0.5,2.9,1.4,4,2.8l-3.4,3.1c-0.5-0.8-1.2-1.5-2.2-2
				c-1-0.5-2-0.7-3.2-0.7c-1.2,0-2.1,0.2-2.9,0.5C194,6,193.4,6.3,193,6.8c-0.5,0.5-0.8,1-1,1.5c-0.2,0.5-0.3,1-0.3,1.5
				c0,1.3,0.4,2.3,1.1,3c0.7,0.7,1.7,1.2,2.8,1.7c1.1,0.4,2.3,0.8,3.6,1.2s2.5,0.8,3.6,1.5c1.1,0.6,2,1.5,2.8,2.5s1.1,2.5,1.1,4.3
				c0,1.5-0.3,2.8-0.8,4c-0.6,1.2-1.3,2.2-2.3,3s-2.1,1.4-3.4,1.9c-1.3,0.4-2.7,0.6-4.1,0.6c-2,0-3.8-0.3-5.6-1
				c-1.7-0.7-3.2-1.7-4.2-3.2L189.8,26.3z"/>
			<path d="M213.1,23.8c0,0.9,0.2,1.7,0.6,2.4c0.4,0.7,0.9,1.4,1.5,1.9c0.6,0.5,1.4,0.9,2.2,1.2c0.8,0.3,1.7,0.4,2.6,0.4
				c1.2,0,2.2-0.3,3.2-0.8c0.9-0.6,1.7-1.3,2.5-2.2l2.9,2.2c-2.2,2.8-5.2,4.2-9.1,4.2c-1.6,0-3.1-0.3-4.4-0.8
				c-1.3-0.5-2.4-1.3-3.3-2.3c-0.9-1-1.6-2.1-2.1-3.4c-0.5-1.3-0.7-2.7-0.7-4.2s0.3-2.9,0.8-4.2c0.5-1.3,1.3-2.5,2.2-3.4
				c0.9-1,2-1.7,3.3-2.3c1.3-0.5,2.7-0.8,4.2-0.8c1.8,0,3.3,0.3,4.6,1c1.2,0.6,2.3,1.5,3.1,2.5c0.8,1,1.4,2.2,1.7,3.5
				c0.4,1.3,0.5,2.6,0.5,3.9v1.4L213.1,23.8L213.1,23.8z M225.3,20.7c0-0.9-0.2-1.7-0.4-2.4c-0.2-0.7-0.6-1.3-1.1-1.9
				c-0.5-0.5-1.1-1-1.8-1.2c-0.7-0.3-1.6-0.5-2.6-0.5c-1,0-1.8,0.2-2.6,0.5c-0.8,0.4-1.5,0.8-2,1.4c-0.5,0.6-1,1.2-1.3,1.9
				s-0.5,1.4-0.5,2.1L225.3,20.7L225.3,20.7z"/>
			<path d="M247,17.6c-0.7-0.7-1.5-1.3-2.3-1.7c-0.8-0.4-1.7-0.6-2.8-0.6c-1.1,0-2,0.2-2.8,0.6c-0.8,0.4-1.5,0.9-2,1.6
				c-0.5,0.7-0.9,1.5-1.2,2.3c-0.3,0.9-0.4,1.8-0.4,2.7s0.2,1.8,0.5,2.7c0.3,0.8,0.8,1.6,1.3,2.2s1.3,1.1,2.1,1.5
				c0.8,0.4,1.7,0.5,2.7,0.5c1.1,0,2-0.2,2.8-0.6c0.8-0.4,1.5-1,2.2-1.7l2.8,2.8c-1,1.1-2.2,1.9-3.5,2.4c-1.3,0.5-2.7,0.7-4.2,0.7
				c-1.6,0-3-0.2-4.3-0.8c-1.3-0.5-2.4-1.2-3.4-2.2c-1-0.9-1.7-2.1-2.2-3.4c-0.5-1.3-0.8-2.7-0.8-4.3c0-1.6,0.2-3,0.8-4.4
				c0.5-1.3,1.2-2.5,2.2-3.4c0.9-1,2.1-1.7,3.4-2.2c1.3-0.5,2.8-0.8,4.4-0.8c1.5,0,2.9,0.3,4.3,0.8c1.4,0.5,2.5,1.3,3.6,2.4
				L247,17.6z"/>
		</g>
	</g>
	<g class="st7">
		<path class="st6" d="M44.2,15.3c2-2,5-2.9,7.6-2.9c5.7,0,8.1,3.2,8.1,6.6V29c0,1.2,0,2.4,0.2,3.6h-3.3c-0.1-1-0.1-2-0.1-3h-0.1
			C55,32.1,52.8,33,49.9,33c-3.6,0-6.7-2.1-6.7-5.9c0-5.1,4.8-6.8,10.6-6.8h2.7v-0.8c0-2-1.5-4.2-4.6-4.2c-2.8,0-4.1,1.2-5.5,2.2
			L44.2,15.3z M54.6,23.1c-3.5,0-7.7,0.6-7.7,3.8c0,2.2,1.6,3.2,4.1,3.2c4.1,0,5.5-3.1,5.5-5.7v-1.3H54.6z"/>
		<path class="st6" d="M63,12.8h3.7v2.8h0.1c1.4-2.1,4.1-3.3,6.7-3.3c6,0,9.8,4.5,9.8,10.3c0,5.9-3.9,10.3-9.8,10.3
			c-2.8,0-5.4-1.3-6.7-3.3h-0.1v10.2H63L63,12.8z M66.7,22.7c0,4,2.4,6.9,6.3,6.9s6.3-2.9,6.3-6.9s-2.4-6.9-6.3-6.9
			S66.7,18.7,66.7,22.7z"/>
		<path class="st6" d="M85.7,12.8h3.7v2.8h0.1c1.4-2.1,4.1-3.3,6.7-3.3c6,0,9.8,4.5,9.8,10.3c0,5.9-3.9,10.3-9.8,10.3
			c-2.8,0-5.4-1.3-6.7-3.3h-0.1l0,10.2h-3.7V12.8z M89.3,22.7c0,4,2.4,6.9,6.3,6.9s6.3-2.9,6.3-6.9s-2.4-6.9-6.3-6.9
			S89.3,18.7,89.3,22.7z"/>
		<path class="st6" d="M108.8,27.6c1,2,3.3,3.2,5.4,3.2c2.1,0,4.3-1.3,4.3-3.5c0-5.3-11.1-1.6-11.1-8.9c0-3.7,3.3-5.5,6.4-5.5
			c3.1,0,5.4,1.2,6.6,3.6l-2.2,1.3c-0.9-1.7-2.2-2.7-4.4-2.7c-1.7,0-4,1.1-4,3.1c0,5.2,11.1,1.2,11.1,8.9c0,3.9-3.2,5.9-6.8,5.9
			c-3.2,0-6.1-1.2-7.6-3.9L108.8,27.6z"/>
		<path class="st6" d="M123.3,13.3h2.4v3.4h0.1c1.5-2.7,4.7-3.9,7.5-3.9c5.8,0,9.9,4.2,9.9,10.1S139.1,33,133.4,33
			c-2.8,0-6-1.2-7.5-3.9h-0.1v10.7h-2.4L123.3,13.3z M133.4,30.8c4.6,0,7.4-3.5,7.4-7.9s-2.8-7.9-7.4-7.9c-4.2,0-7.7,3.5-7.7,7.9
			C125.7,27.3,129.1,30.8,133.4,30.8C133.4,30.8,133.4,30.8,133.4,30.8L133.4,30.8z"/>
		<path class="st6" d="M148.1,3.9c1,0,1.8,0.8,1.8,1.9c0,1-0.8,1.9-1.8,1.9c-1,0-1.8-0.8-1.8-1.9c0,0,0,0,0,0
			C146.2,4.7,147.1,3.9,148.1,3.9C148.1,3.9,148.1,3.9,148.1,3.9z M146.9,13.3h2.4v19.2h-2.4V13.3z"/>
		<path class="st6" d="M170.4,29.2L170.4,29.2c-1.6,2.7-4.8,3.9-7.6,3.9c-5.8,0-9.9-4.2-9.9-10.1s4.1-10.1,9.9-10.1
			c2.8,0,6,1.2,7.5,3.9h0.1V1.1h2.4v31.4h-2.4V29.2z M162.8,15.1c-4.6,0-7.4,3.5-7.4,7.9s2.8,7.9,7.4,7.9c4.2,0,7.7-3.5,7.7-7.9
			C170.5,18.6,167.1,15.1,162.8,15.1C162.8,15.1,162.8,15.1,162.8,15.1z"/>
		<path class="st6" d="M193.2,28.9c-1.9,2.9-4.8,4.1-8.1,4.1c-5.7,0-9.5-4.2-9.5-10.1c0-5.7,3.9-10.1,9.4-10.1c5.8,0,8.8,4.5,8.8,9
			v1.7H178c0,2.1,1.4,7.2,7.1,7.2c2.5,0,5.1-1.3,6.3-3.4L193.2,28.9z M191.3,21.3c0-3.4-2.9-6.2-6.5-6.2c-5.4,0-6.8,5.2-6.8,6.2
			L191.3,21.3z"/>
		<path class="st6" d="M197,18.8c0-1.4-0.2-4.4-0.2-5.4h2.4c0,1.4,0.1,3,0.2,3.4c1.2-2.2,3.2-3.9,6-3.9c0.5,0,1,0.1,1.4,0.2
			l-0.3,2.5c-0.3-0.1-0.6-0.2-0.9-0.2c-4.2,0-6.1,3-6.1,6.7v10.5H197L197,18.8z"/>
	</g>
</g>
</svg>
