<svg id="logo-appspider" xmlns="http://www.w3.org/2000/svg" width="104.039" height="24.611" viewBox="0 0 104.039 24.611">
  <path id="Path_104" data-name="Path 104" d="M43.836,14.244A6.983,6.983,0,0,1,48.669,12.4c3.625,0,5.151,2.035,5.151,4.2v6.359a13.824,13.824,0,0,0,.127,2.289h-2.1c-.064-.636-.064-1.272-.064-1.908h-.064A4.583,4.583,0,0,1,47.461,25.5c-2.289,0-4.261-1.335-4.261-3.752,0-3.243,3.052-4.324,6.741-4.324h1.717v-.509a2.711,2.711,0,0,0-2.925-2.671,5.242,5.242,0,0,0-3.5,1.4ZM50.45,19.2c-2.226,0-4.9.382-4.9,2.417,0,1.4,1.017,2.035,2.607,2.035a3.348,3.348,0,0,0,3.5-3.625V19.2H50.45Z" transform="translate(-43.2 -5.214)" fill="#445662"/>
  <path id="Path_105" data-name="Path 105" d="M63,12.618h2.353V14.4h.064a5.185,5.185,0,0,1,4.261-2.1c3.816,0,6.232,2.862,6.232,6.55,0,3.752-2.48,6.55-6.232,6.55a5.1,5.1,0,0,1-4.261-2.1h-.064v6.487H63Zm2.353,6.3c0,2.544,1.526,4.388,4.006,4.388s4.006-1.844,4.006-4.388-1.526-4.388-4.006-4.388S65.353,16.37,65.353,18.914Z" transform="translate(-50.409 -5.178)" fill="#445662"/>
  <path id="Path_106" data-name="Path 106" d="M85.7,12.618h2.353V14.4h.064a5.185,5.185,0,0,1,4.261-2.1c3.816,0,6.232,2.862,6.232,6.55,0,3.752-2.48,6.55-6.232,6.55a5.1,5.1,0,0,1-4.261-2.1h-.064v6.487H85.7Zm2.289,6.3c0,2.544,1.526,4.388,4.006,4.388S96,21.457,96,18.914,94.476,14.526,92,14.526,87.989,16.37,87.989,18.914Z" transform="translate(-58.673 -5.178)" fill="#445662"/>
  <path id="Path_107" data-name="Path 107" d="M107.963,22.248a3.933,3.933,0,0,0,3.434,2.035c1.335,0,2.735-.827,2.735-2.226,0-3.37-7.059-1.017-7.059-5.66,0-2.353,2.1-3.5,4.07-3.5a4.322,4.322,0,0,1,4.2,2.289l-1.4.827a2.905,2.905,0,0,0-2.8-1.717c-1.081,0-2.544.7-2.544,1.971,0,3.307,7.059.763,7.059,5.66,0,2.48-2.035,3.752-4.324,3.752A5.243,5.243,0,0,1,106.5,23.2Z" transform="translate(-66.245 -5.396)" fill="#445662"/>
  <path id="Path_108" data-name="Path 108" d="M123.3,13.118h1.526V15.28h.064a5.414,5.414,0,0,1,4.77-2.48,6.112,6.112,0,0,1,6.3,6.423,6.1,6.1,0,0,1-6.232,6.423,5.414,5.414,0,0,1-4.77-2.48h-.064v6.8h-1.526Zm6.423,11.129c2.925,0,4.706-2.226,4.706-5.024s-1.781-5.024-4.706-5.024a5.026,5.026,0,0,0,0,10.048Z" transform="translate(-72.362 -5.36)" fill="#445662"/>
  <path id="Path_109" data-name="Path 109" d="M147.442,3.9a1.156,1.156,0,0,1,1.145,1.208,1.2,1.2,0,0,1-1.145,1.208A1.156,1.156,0,0,1,146.3,5.108h0A1.119,1.119,0,0,1,147.442,3.9Zm-.763,5.978h1.526v12.21h-1.526Z" transform="translate(-80.732 -2.119)" fill="#445662"/>
  <path id="Path_110" data-name="Path 110" d="M164.029,18.97h0a5.594,5.594,0,0,1-4.833,2.48,6.112,6.112,0,0,1-6.3-6.423A6.112,6.112,0,0,1,159.2,8.6a5.414,5.414,0,0,1,4.77,2.48h.064V1.1h1.526V21.068h-1.526ZM159.2,10c-2.925,0-4.706,2.226-4.706,5.024s1.781,5.024,4.706,5.024a4.968,4.968,0,0,0,4.9-5.024A4.928,4.928,0,0,0,159.2,10Z" transform="translate(-83.138 -1.1)" fill="#445662"/>
  <path id="Path_111" data-name="Path 111" d="M186.792,23.039a5.81,5.81,0,0,1-5.151,2.607c-3.625,0-6.041-2.671-6.041-6.423,0-3.625,2.48-6.423,5.978-6.423a5.467,5.467,0,0,1,5.6,5.723V19.6H177.126a4.482,4.482,0,0,0,4.515,4.579,4.7,4.7,0,0,0,4.006-2.162Zm-1.208-4.833a4.047,4.047,0,0,0-4.134-3.943,4.395,4.395,0,0,0-4.324,3.943Z" transform="translate(-91.402 -5.36)" fill="#445662"/>
  <path id="Path_112" data-name="Path 112" d="M196.927,16.652c0-.89-.127-2.8-.127-3.434h1.526a14.794,14.794,0,0,0,.127,2.162,4.319,4.319,0,0,1,3.816-2.48,3.754,3.754,0,0,1,.89.127l-.191,1.59a1.857,1.857,0,0,0-.572-.127c-2.671,0-3.879,1.908-3.879,4.261v6.677h-1.59Z" transform="translate(-99.121 -5.396)" fill="#445662"/>
</svg>
