<svg id="logo-nexpose" xmlns="http://www.w3.org/2000/svg" width="91.246" height="20.918" viewBox="0 0 91.246 20.918">
  <path id="Path_159" data-name="Path 159" d="M49.1,12.1h2.344v1.924h.06A4.3,4.3,0,0,1,55.532,11.8c2.4,0,4.448,1.443,4.448,4.689v7.874H57.636V17.15c0-2.284-1.322-3.126-2.765-3.126-1.924,0-3.426,1.262-3.426,4.087v6.311H49.1V12.1Z" transform="translate(-49.1 -8.073)" fill="#445662"/>
  <path id="Path_160" data-name="Path 160" d="M72.164,19.033c0,2.164,1.984,3.546,4.148,3.546a4.148,4.148,0,0,0,3.366-1.863l1.743,1.322a6.433,6.433,0,0,1-5.41,2.525A6.057,6.057,0,0,1,69.7,18.132,6.192,6.192,0,0,1,76.011,11.7c4.328,0,5.951,3.306,5.951,6.432v.9h-9.8ZM79.5,17.17a3.313,3.313,0,0,0-3.546-3.546,3.807,3.807,0,0,0-3.787,3.546Z" transform="translate(-57.317 -8.033)" fill="#445662"/>
  <path id="Path_161" data-name="Path 161" d="M94.989,18.01,90.6,12.3h3.005l2.945,4.328L99.5,12.3h2.825l-4.148,5.71,4.989,6.552h-3.005l-3.607-5.169-3.607,5.169H90Z" transform="translate(-65.415 -8.273)" fill="#445662"/>
  <path id="Path_162" data-name="Path 162" d="M112.8,12.1h2.344v1.743h.06a5.162,5.162,0,0,1,4.268-2.044,6.108,6.108,0,0,1,6.251,6.432,6.108,6.108,0,0,1-6.251,6.432A5.163,5.163,0,0,1,115.2,22.62h-.06v6.372H112.8Zm2.344,6.131a4.034,4.034,0,1,0,8.055,0,3.947,3.947,0,0,0-4.027-4.268c-2.464,0-4.027,1.743-4.027,4.268Z" transform="translate(-74.51 -8.073)" fill="#445662"/>
  <path id="Path_163" data-name="Path 163" d="M142.492,11.7a6.462,6.462,0,1,1-.06,0Zm0,10.76a3.947,3.947,0,0,0,4.027-4.268,4.034,4.034,0,1,0-8.055,0,3.947,3.947,0,0,0,4.027,4.268Z" transform="translate(-83.765 -8.033)" fill="#445662"/>
  <path id="Path_164" data-name="Path 164" d="M166.134,15.126a3.106,3.106,0,0,0-2.525-1.2c-1.082,0-2.044.481-2.044,1.383,0,1.5,2.1,1.683,3.126,1.924,2.044.481,3.546,1.262,3.546,3.546,0,2.765-2.525,3.847-4.989,3.847A5.378,5.378,0,0,1,158.5,22.46l1.743-1.443a3.988,3.988,0,0,0,2.945,1.443c1.2,0,2.465-.481,2.465-1.563,0-1.383-1.924-1.683-2.945-1.924-1.984-.481-3.727-1.142-3.727-3.486,0-2.585,2.344-3.787,4.628-3.787a4.526,4.526,0,0,1,4.148,2.044Z" transform="translate(-92.74 -8.033)" fill="#445662"/>
  <path id="Path_165" data-name="Path 165" d="M178.664,19.033c0,2.164,1.984,3.546,4.148,3.546a4.148,4.148,0,0,0,3.366-1.863l1.743,1.322a6.433,6.433,0,0,1-5.41,2.525,6.057,6.057,0,0,1-6.312-6.432,6.192,6.192,0,0,1,6.312-6.432c4.328,0,5.951,3.306,5.951,6.432v.842h-9.8ZM186,17.17a3.313,3.313,0,0,0-3.546-3.546,3.807,3.807,0,0,0-3.787,3.546Z" transform="translate(-99.801 -8.033)" fill="#445662"/>
  <path id="Path_166" data-name="Path 166" d="M196.7,5.6a1.808,1.808,0,0,1,1.8,1.8,1.849,1.849,0,0,1-1.8,1.8,1.808,1.808,0,0,1-1.8-1.8h0A1.77,1.77,0,0,1,196.7,5.6Zm0,3.366A1.563,1.563,0,1,0,195.138,7.4,1.483,1.483,0,0,0,196.7,8.966Zm-.421-.481h-.24v-2.1h.781c.481,0,.661.18.661.6a.593.593,0,0,1-.541.6l.6.9h-.3l-.661-.9h-.361Zm0-1.142h.361c.3,0,.6,0,.6-.361,0-.24-.24-.361-.481-.361h-.481Z" transform="translate(-107.258 -5.6)" fill="#445662"/>
</svg>
