<svg xmlns="http://www.w3.org/2000/svg" width="112.138" height="24.37" viewBox="0 0 112.138 24.37">
  <g id="logo-metasploit" transform="translate(0 0)">
    <path id="Path_87" data-name="Path 87" d="M32,11.9h2.172v1.93h.06A4.435,4.435,0,0,1,38.213,11.6a4.032,4.032,0,0,1,3.861,2.292A4.417,4.417,0,0,1,45.995,11.6c3.8,0,4.705,2.714,4.705,5.489v7.178H48.347V17.391c0-1.87-.362-3.619-2.654-3.619s-3.137,1.508-3.137,3.74v6.756H40.2V17.813c0-2.353-.362-4.042-2.594-4.042-1.689,0-3.2,1.267-3.2,4.042v6.394H32Z" transform="translate(-32 -4.542)" fill="#445662"/>
    <path id="Path_88" data-name="Path 88" d="M67.994,18.859c0,2.172,1.991,3.619,4.162,3.619a4.163,4.163,0,0,0,3.378-1.87l1.749,1.327a6.493,6.493,0,0,1-5.489,2.533A6.174,6.174,0,0,1,65.4,17.954,6.313,6.313,0,0,1,71.854,11.5c4.343,0,6.032,3.318,6.032,6.515v.845Zm7.42-1.87c-.06-2.051-1.206-3.619-3.559-3.619a3.788,3.788,0,0,0-3.8,3.619Z" transform="translate(-45.253 -4.503)" fill="#445662"/>
    <path id="Path_89" data-name="Path 89" d="M94.045,11.85H90.667v5.61c0,1.387,0,2.835,1.749,2.835a4.048,4.048,0,0,0,1.689-.362v2.111a5.081,5.081,0,0,1-2.111.422c-3.619,0-3.68-2.232-3.68-4.222V11.85H85.6V9.8h2.714V6.3h2.353V9.8h3.378Z" transform="translate(-53.268 -2.439)" fill="#445662"/>
    <path id="Path_90" data-name="Path 90" d="M102.1,13.407a6.93,6.93,0,0,1,4.886-1.81c3.68,0,5.188,1.991,5.188,4.1v6.334a13.848,13.848,0,0,0,.121,2.232h-2.051c-.06-.6-.06-1.267-.06-1.87h-.06a4.748,4.748,0,0,1-4.343,2.172c-2.292,0-4.283-1.327-4.283-3.68,0-3.2,3.076-4.283,6.816-4.283h1.749v-.543a2.676,2.676,0,0,0-2.956-2.594,5.237,5.237,0,0,0-3.5,1.387Zm6.7,4.886c-2.232,0-4.946.362-4.946,2.353,0,1.387,1.025,1.991,2.654,1.991a3.335,3.335,0,0,0,3.5-3.619v-.784Z" transform="translate(-59.577 -4.54)" fill="#445662"/>
    <path id="Path_91" data-name="Path 91" d="M129.3,14.978a3.031,3.031,0,0,0-2.533-1.206c-1.086,0-2.051.483-2.051,1.387,0,1.508,2.111,1.689,3.137,1.93,2.051.483,3.619,1.267,3.619,3.619,0,2.775-2.533,3.861-5.007,3.861A5.332,5.332,0,0,1,121.7,22.4l1.749-1.448a4.028,4.028,0,0,0,3.016,1.448c1.206,0,2.533-.483,2.533-1.568,0-1.387-1.93-1.689-2.956-1.93-1.991-.483-3.8-1.146-3.8-3.5,0-2.594,2.353-3.8,4.705-3.8a4.842,4.842,0,0,1,4.222,2.051Z" transform="translate(-67.592 -4.542)" fill="#445662"/>
    <path id="Path_92" data-name="Path 92" d="M140.4,11.9h2.353v1.749h.06A5.261,5.261,0,0,1,147.1,11.6c3.8,0,6.273,2.835,6.273,6.515s-2.473,6.515-6.273,6.515a5,5,0,0,1-4.283-2.111h-.06v6.394H140.4Zm2.353,6.153c0,2.533,1.568,4.283,4.042,4.283,2.534,0,4.042-1.81,4.042-4.283a4.048,4.048,0,1,0-8.083,0Z" transform="translate(-75.012 -4.542)" fill="#445662"/>
    <path id="Path_93" data-name="Path 93" d="M165-.1h2.353V19.625H165Z" transform="translate(-84.773 0.1)" fill="#445662"/>
    <path id="Path_94" data-name="Path 94" d="M177.275,11.6a6.545,6.545,0,1,1-.06,0Zm0,10.8c2.534,0,4.042-1.81,4.042-4.283a3.961,3.961,0,0,0-4.042-4.283c-2.533,0-4.042,1.81-4.042,4.283a3.961,3.961,0,0,0,4.042,4.283Z" transform="translate(-87.034 -4.542)" fill="#445662"/>
    <path id="Path_95" data-name="Path 95" d="M195.149,1.9A1.749,1.749,0,1,1,193.4,3.649,1.791,1.791,0,0,1,195.149,1.9ZM194,8.053h2.353V20.419H194Z" transform="translate(-96.041 -0.694)" fill="#445662"/>
    <path id="Path_96" data-name="Path 96" d="M208.145,11.85h-3.378v5.61c0,1.387,0,2.835,1.749,2.835a4.048,4.048,0,0,0,1.689-.362v2.111a5.081,5.081,0,0,1-2.111.422c-3.619,0-3.68-2.232-3.68-4.222V11.85H199.7V9.8h2.714V6.3h2.353V9.8h3.378V11.85Z" transform="translate(-98.541 -2.439)" fill="#445662"/>
    <path id="Path_97" data-name="Path 97" d="M213.71.1a1.815,1.815,0,0,1,1.81,1.81,1.855,1.855,0,0,1-1.81,1.81,1.815,1.815,0,0,1-1.81-1.81h0A1.815,1.815,0,0,1,213.71.1Zm0,3.438a1.6,1.6,0,0,0,1.568-1.568,1.568,1.568,0,0,0-3.137,0h0a1.6,1.6,0,0,0,1.568,1.568ZM213.348,3h-.241V.884h.784c.483,0,.664.181.664.6a.6.6,0,0,1-.543.6l.6.9h-.3l-.6-.9h-.362Zm0-1.146h.362c.3,0,.6,0,.6-.362,0-.3-.241-.362-.483-.362h-.483Z" transform="translate(-103.382 0.021)" fill="#445662"/>
  </g>
</svg>
